<svg xmlns="http://www.w3.org/2000/svg" width="47.143" height="38.697" viewBox="0 0 47.143 38.697">
  <g id="Group_48028" data-name="Group 48028" transform="translate(2937.087 -6832.281)">
    <path id="Path_40262" data-name="Path 40262" d="M-2893.31,6958.36c.56,0,1.12,0,1.681.016a1.663,1.663,0,0,1,1.679,1.659q.013,9.275,0,18.549a1.789,1.789,0,0,1-.852,1.482.734.734,0,0,1-.721.425c-.63.012-1.259.011-1.889,0a.957.957,0,0,1-.705-.292c-.682-.161-.894-.745-1.155-1.285a33.093,33.093,0,0,0-.041-4,7.652,7.652,0,0,0,.1-1.871,3.055,3.055,0,0,1-1.194.772,10.872,10.872,0,0,0-1.209-.042h-13.413c-.385,0-.771.009-1.155-.023a3.179,3.179,0,0,1-1.321-.9c0,.007-.048,0-.048,0a2.851,2.851,0,0,1-1.32.886,10.175,10.175,0,0,1-1.207.035q-6.664,0-13.329,0a10.863,10.863,0,0,0-1.2.043,3.376,3.376,0,0,1-1.2-.748,7.444,7.444,0,0,0,.1,1.844,33.335,33.335,0,0,0-.041,4c-.285.517-.47,1.126-1.154,1.289a.84.84,0,0,1-.5.272,17.323,17.323,0,0,1-2.307,0,.638.638,0,0,1-.513-.4,2,2,0,0,1-.863-1.8c.017-5.973.009-11.946.009-17.919,0-1.346.638-1.975,2-1.977.455,0,.91-.009,1.365-.014.331-.312.674-.153.963.032a1.81,1.81,0,0,1,.945,1.493c.045,2.381.026,4.763.011,7.144a1.024,1.024,0,0,1-.054.332,1.54,1.54,0,0,1,1.437-.8c1.715-.014,3.431-.046,5.147.019q2.079-.081,4.157,0a11.806,11.806,0,0,1,1.708,0c1.165-.047,2.331-.057,3.5,0a2.524,2.524,0,0,1,1.608.222,2.593,2.593,0,0,1,.76.69c0-.008.044-.013.043-.02a2.569,2.569,0,0,1,1.4-.908c2.329-.022,4.657-.048,6.985.013,1.284-.087,2.573.033,3.856-.074,1.443.192,2.891-.022,4.336.038a2.051,2.051,0,0,1,1.671.683c0-2.38,0-4.7,0-7.029a1.948,1.948,0,0,1,.838-1.714C-2894.078,6958.251-2893.715,6958.015-2893.31,6958.36Z" transform="translate(0 -112.656)" fill="#2782c6"/>
    <path id="Path_40263" data-name="Path 40263" d="M-2818.246,6854.116h-3.565a1.18,1.18,0,0,1,.614-1.881c.729-.2.817-.3.822-1.044.01-1.4.006-2.8,0-4.205a2.772,2.772,0,0,0-.012-.315c-.049-.423-.281-.678-.611-.65a.591.591,0,0,0-.556.649c-.04.962-.01,1.927-.017,2.89,0,.211-.016.422,0,.631a1.18,1.18,0,0,1-.616,1.22,2.242,2.242,0,0,0-1.069,1.941c-.01.273.038.573-.243.764h-4.2a.489.489,0,0,1-.114-.108,2.89,2.89,0,0,1,.8-3.217,2.3,2.3,0,0,1,1.215-.269c.662-.009.761-.132.67-.791-.289-2.1-.526-4.2-.8-6.3a1.678,1.678,0,0,0-.546-1.036,4.615,4.615,0,0,1-1.455-3.792c.035-.475.032-1,.533-1.3,1.124-1.454.947-3.275,1.4-5,.513.612,1,1.174,1.463,1.757a.5.5,0,0,0,.651.215,6.346,6.346,0,0,1,4.119-.007.5.5,0,0,0,.653-.2c.453-.576.935-1.13,1.486-1.789.156.905.307,1.713.43,2.524a4.844,4.844,0,0,0,.662,2.008,4.263,4.263,0,0,1,.5,3.186c.029.05.058.1.089.148.06.257.235.292.475.291a14.893,14.893,0,0,1,2.515.1,7.015,7.015,0,0,1,5.58,5.774,34.19,34.19,0,0,1,.07,4.564c.066.881.031,1.763.025,2.644a.647.647,0,0,1-.238.6q-3.2.009-6.407.018c-.245,0-.49.01-.735.015a3.367,3.367,0,0,1-1.858.132c-.278-.193-.258-.46-.2-.751.394-2.083.828-4.155,1.239-6.233.024-.12.045-.241.064-.362q.133-.825-.427-.919c-.353-.059-.59.161-.7.676-.223,1.009-.41,2.025-.615,3.038q-.375,1.854-.742,3.708A.973.973,0,0,1-2818.246,6854.116Z" transform="translate(-97.591 0)" fill="#eeb993"/>
    <path id="Path_40264" data-name="Path 40264" d="M-2869.493,7101.908q7.468,0,14.936.008a6.109,6.109,0,0,1,1.2.086c.711-.185,1.15.255,1.15,1.147a21.8,21.8,0,0,1,0,4.263.832.832,0,0,1-.519,1.061,3.46,3.46,0,0,1-.746.161c-.14.006-.28.017-.419.017h-33.6c-.14,0-.28-.011-.42-.017a1.841,1.841,0,0,1-.978-.395.644.644,0,0,1-.178-.825,22.125,22.125,0,0,1,0-4.267c-.01-.9.428-1.333,1.151-1.146a6,6,0,0,1,1.146-.087q7.054.006,14.108,0a1.55,1.55,0,0,0,.77-.1.376.376,0,0,0,.351.011A2.845,2.845,0,0,1-2869.493,7101.908Z" transform="translate(-42.877 -241.05)" fill="#0067ab"/>
    <path id="Path_40265" data-name="Path 40265" d="M-2896.291,6880.009a4.563,4.563,0,0,0,1.4,5.218.881.881,0,0,1,.289.591c.289,2.394.579,4.787.9,7.177.053.4-.067.473-.427.48-2.106.041-2.471.427-2.471,2.557,0,.263,0,.524,0,.787l-4.674.017a1.9,1.9,0,0,0-1.994,1.056.992.992,0,0,1-.065-.556q-.005-3.492,0-6.985a1.726,1.726,0,0,0-1.684-1.946c0-1.645,0-3.289,0-4.935a3.367,3.367,0,0,1,3.477-3.466C-2899.791,6880-2898.041,6880.006-2896.291,6880.009Z" transform="translate(-28.692 -42.701)" fill="#90caef"/>
    <path id="Path_40266" data-name="Path 40266" d="M-2706.8,6893.413c-.062-1.449.094-2.9-.1-4.349a6.736,6.736,0,0,0-6.4-5.74c-.577-.013-1.156-.027-1.731,0-.484.025-.557-.144-.33-.53a.218.218,0,0,0,.234-.129,3.229,3.229,0,0,1,3.053-2.7c3.7-.04,7.4-.015,11.1-.017.073,0,.137.012.167.09-.074.276-.328.356-.542.456a3.1,3.1,0,0,0-1.84,3.044c-.021,2.678-.005,5.357-.006,8.035a2,2,0,0,1-.655,1.594,1.74,1.74,0,0,1-1.031.468,11.925,11.925,0,0,1-1.417.011A.6.6,0,0,1-2706.8,6893.413Z" transform="translate(-198.284 -42.652)" fill="#90caef"/>
    <path id="Path_40267" data-name="Path 40267" d="M-2633,6893.261c.507,0,1.015.008,1.522.005a1.678,1.678,0,0,0,1.835-1.824c0-2.713,0-5.426,0-8.139a3.345,3.345,0,0,1,2.629-3.413,9.776,9.776,0,0,1,3.113.022c1.019.437,1.34.94,1.2,1.889a1.992,1.992,0,0,1-1.78,1.6,1.5,1.5,0,0,0-1.554,1.727c-.014,2.7.012,5.4-.013,8.1a3.548,3.548,0,0,1-1.476,2.938,3.516,3.516,0,0,1-1.6.446h-3.9Q-2633.009,6894.939-2633,6893.261Z" transform="translate(-272.082 -42.499)" fill="#c99c7c"/>
    <path id="Path_40268" data-name="Path 40268" d="M-2595.973,6897.771a3.421,3.421,0,0,0,2.789-2.854,4.521,4.521,0,0,0,.047-.785q.005-3.968,0-7.936a1.681,1.681,0,0,1,1.734-1.877,1.7,1.7,0,0,0,1.552-1.212,1.644,1.644,0,0,0-.66-1.847l-.25-.192a3.277,3.277,0,0,1,2.668,3.214c.016,1.692,0,3.384.006,5.076a1.714,1.714,0,0,0-1.684,1.942q0,3.467,0,6.935v.613c-.225-.1-.263-.286-.366-.413a1.725,1.725,0,0,0-1.427-.648C-2593.032,6897.788-2594.5,6897.777-2595.973,6897.771Z" transform="translate(-305.226 -43.655)" fill="#90caef"/>
    <path id="Path_40269" data-name="Path 40269" d="M-2929.036,7166.152a6.242,6.242,0,0,0,3.343,0,.136.136,0,0,1,.028.195c-.006.964-.035,1.929-.007,2.892.012.409-.119.5-.5.484-.841-.029-1.683-.019-2.524,0-.275.005-.362-.077-.357-.355C-2929.036,7168.292-2929.04,7167.222-2929.036,7166.152Z" transform="translate(-7.188 -298.743)" fill="#c97b5f"/>
    <path id="Path_40270" data-name="Path 40270" d="M-2529.386,7166.154a6.241,6.241,0,0,0,3.344,0c0,1.069,0,2.139.018,3.208,0,.277-.082.36-.357.355-.876-.015-1.754-.023-2.63,0-.354.011-.394-.136-.391-.43.009-.981-.006-1.964-.012-2.945A.135.135,0,0,1-2529.386,7166.154Z" transform="translate(-364.757 -298.747)" fill="#c97b5f"/>
    <path id="Path_40271" data-name="Path 40271" d="M-2547.636,7157.271c-.009.064-.018.13-.028.194l-2.175-.018a1.7,1.7,0,0,0,1.265-1.222C-2548.218,7156.536-2548.068,7157.03-2547.636,7157.271Z" transform="translate(-346.506 -289.864)" fill="#8ec8ee"/>
    <path id="Path_40272" data-name="Path 40272" d="M-2897.073,7157.481c-.01-.064-.019-.13-.028-.195.438-.235.569-.745.937-1.042a1.832,1.832,0,0,0,1.156,1.22Z" transform="translate(-35.779 -289.88)" fill="#8ec8ee"/>
    <path id="Path_40273" data-name="Path 40273" d="M-2714.085,6905.646c.027.1.041.206-.065.255s-.131-.058-.169-.126l.039-.147Z" transform="translate(-199.331 -65.63)" fill="#648daa"/>
    <path id="Path_40274" data-name="Path 40274" d="M-2870.538,7065.379h-17.672c-.789,0-.789,0-.79-.764,0-.918,0-.919.9-.919q17.646,0,35.292.008c.272,0,.685-.178.793.187a2.713,2.713,0,0,1,0,1.351c-.026.112-.158.127-.265.131-.175.006-.351.006-.526.006Z" transform="translate(-43.028 -207.037)" fill="#0067ab"/>
    <path id="Path_40275" data-name="Path 40275" d="M-2785.118,6968.443a2.983,2.983,0,0,1,.858-2.686c.013-.011.023-.029.038-.035.872-.341.818-1.071.8-1.816-.029-.944-.011-1.89-.005-2.834,0-.663.321-1.033.857-1.022.516.01.82.368.823,1q.008,2.361,0,4.724c0,.6-.227.892-.726.99-.815.161-.951.325-.955,1.151,0,.175,0,.35,0,.524Z" transform="translate(-135.97 -114.327)" fill="#c99d7c"/>
    <path id="Path_40276" data-name="Path 40276" d="M-2735.1,6968.411q.5-2.6,1-5.2c.156-.807.32-1.613.486-2.418a.842.842,0,0,1,1-.757.838.838,0,0,1,.639,1.083q-.679,3.423-1.366,6.846c-.031.153-.044.311-.065.466.054.125-.008.195-.114.244A3.3,3.3,0,0,0-2735.1,6968.411Z" transform="translate(-180.733 -114.295)" fill="#c99d7c"/>
    <path id="Path_40277" data-name="Path 40277" d="M-2547.608,7096.332a1.518,1.518,0,0,0-1.149-1.147c.36-.4.942-.566,1.182-1.13A8.794,8.794,0,0,1-2547.608,7096.332Z" transform="translate(-347.475 -234.233)" fill="#8ec9ee"/>
    <path id="Path_40278" data-name="Path 40278" d="M-2887.831,7095.2a1.519,1.519,0,0,0-1.15,1.146,9.225,9.225,0,0,1-.034-2.274C-2888.784,7094.65-2888.179,7094.789-2887.831,7095.2Z" transform="translate(-42.96 -234.251)" fill="#8ec9ee"/>
    <path id="Path_40279" data-name="Path 40279" d="M-2722.534,7093.766c-.674,0-1.348.01-2.021.007-.13,0-.282.046-.376-.1a1.484,1.484,0,0,0,1.156-1.047.122.122,0,0,1,.2,0C-2723.444,7093.2-2722.936,7093.436-2722.534,7093.766Z" transform="translate(-189.836 -232.908)" fill="#8fc9ee"/>
    <path id="Path_40280" data-name="Path 40280" d="M-2720.067,7040.219l.114-.244,1.9.019a1.825,1.825,0,0,0-1.174,1.135.122.122,0,0,1-.2,0A2.309,2.309,0,0,0-2720.067,7040.219Z" transform="translate(-194.188 -185.843)" fill="#8fc9ed"/>
    <path id="Path_40281" data-name="Path 40281" d="M-2713.949,7050.941h.2c-.013.092.027.235-.124.218C-2713.96,7051.148-2713.949,7051.024-2713.949,7050.941Z" transform="translate(-199.662 -195.655)" fill="#4ea0d9"/>
    <path id="Path_40282" data-name="Path 40282" d="M-2713.745,7091.2h-.2c.013-.091-.028-.234.124-.217C-2713.734,7090.991-2713.745,7091.115-2713.745,7091.2Z" transform="translate(-199.667 -231.482)" fill="#4fa0da"/>
    <path id="Path_40283" data-name="Path 40283" d="M-2799.288,6872.888a.852.852,0,0,1-.853.823.85.85,0,0,1-.822-.854.845.845,0,0,1,.853-.821A.848.848,0,0,1-2799.288,6872.888Z" transform="translate(-121.802 -35.573)" fill="#404648"/>
    <path id="Path_40284" data-name="Path 40284" d="M-2751.29,6872.894a.852.852,0,0,1-.86.816.85.85,0,0,1-.815-.86.847.847,0,0,1,.859-.815A.85.85,0,0,1-2751.29,6872.894Z" transform="translate(-164.751 -35.571)" fill="#404648"/>
    <path id="Path_40285" data-name="Path 40285" d="M-2775.283,6880.905a.825.825,0,0,1-.849.811.826.826,0,0,1-.823-.889.825.825,0,0,1,.874-.784A.825.825,0,0,1-2775.283,6880.905Z" transform="translate(-143.284 -42.737)" fill="#ca9d7d"/>
  </g>
</svg>
