<svg xmlns="http://www.w3.org/2000/svg" width="47.143" height="42.196" viewBox="0 0 47.143 42.196">
  <g id="Group_48026" data-name="Group 48026" transform="translate(2865.752 -2164.558)">
    <path id="Path_39913" data-name="Path 39913" d="M-2859.51,2187.519c-.424.354-.76.64-1.1.918a1.941,1.941,0,0,1-2.712-.137q-.887-.873-1.761-1.76a1.956,1.956,0,0,1,.1-3.019c1.185-1.042,2.393-2.058,3.591-3.085l7.874-6.761,7.764-6.668q1.143-.981,2.292-1.957a1.93,1.93,0,0,1,2.537-.032q3.369,2.868,6.718,5.759,3.865,3.318,7.729,6.637c2.359,2.024,4.728,4.039,7.077,6.075a1.966,1.966,0,0,1,.1,3.088c-.573.577-1.147,1.155-1.727,1.726a1.946,1.946,0,0,1-2.75.1c-.328-.272-.653-.547-1.065-.893v.588c0,5.25-.012,10.5.011,15.75a2.86,2.86,0,0,1-2.833,2.889c-7.851-.012-15.7.008-23.553.012-1.867,0-3.734,0-5.6-.032a2.716,2.716,0,0,1-2.682-2.77q0-7.9,0-15.8C-2859.51,2187.98-2859.51,2187.806-2859.51,2187.519Z" transform="translate(0 0)" fill="#2352a1"/>
    <path id="Path_39914" data-name="Path 39914" d="M-2784.191,2322.107c1.389,4.091,4.13,6.492,8.548,6.327,4.058-.152,6.546-2.534,7.8-6.363.912.781,1.816,1.553,2.718,2.327q2.67,2.29,5.342,4.577a.817.817,0,0,1,.328.688q-.016,6.533,0,13.067c0,.4-.114.5-.506.5q-3.015-.029-6.031,0c-.363,0-.458-.1-.451-.458.021-1.228.014-2.457.006-3.686a9.6,9.6,0,0,0-8.567-9.556,9.614,9.614,0,0,0-10.508,8.246,44.189,44.189,0,0,0-.08,4.925c0,.418-.1.536-.528.531-1.994-.024-3.989-.02-5.983,0-.372,0-.483-.093-.481-.476q.021-6.558.005-13.115a.68.68,0,0,1,.237-.584q4.019-3.436,8.029-6.884A.584.584,0,0,1-2784.191,2322.107Z" transform="translate(-66.164 -142.432)" fill="#d8e6f6"/>
    <path id="Path_39915" data-name="Path 39915" d="M-2702.964,2425.4c-2.76,0-5.52-.01-8.279.01-.448,0-.555-.134-.552-.563.018-2.872,0-5.743.01-8.614a8.807,8.807,0,0,1,7.67-8.908,8.877,8.877,0,0,1,9.869,7.378,10.465,10.465,0,0,1,.1,1.429c0,2.919-.01,5.839.011,8.758,0,.446-.153.519-.549.517C-2697.445,2425.393-2700.2,2425.4-2702.964,2425.4Z" transform="translate(-139.216 -219.44)" fill="#94bbe4"/>
    <path id="Path_39916" data-name="Path 39916" d="M-2843.166,2185.114c.4,1.194-.683,1.6-1.355,2.2-1.494,1.339-3.033,2.627-4.558,3.932q-2.322,1.989-4.654,3.968a1.1,1.1,0,0,1-1.459.066,11.594,11.594,0,0,1-2.16-2.154,1.188,1.188,0,0,1,.273-1.7c1.723-1.465,3.434-2.943,5.153-4.413q2.5-2.143,5.013-4.282c1.463-1.254,2.919-2.517,4.38-3.773q2.59-2.227,5.183-4.451c.543-.467,1.088-.933,1.629-1.4a1.235,1.235,0,0,1,1.771-.041c1.842,1.571,3.672,3.156,5.51,4.731q2.9,2.488,5.808,4.969,2.846,2.443,5.684,4.9,2.192,1.884,4.393,3.757a1.2,1.2,0,0,1,.27,1.736,14.173,14.173,0,0,1-2.079,2.107,1.162,1.162,0,0,1-1.545-.062q-2.813-2.408-5.614-4.83c-1.413-1.215-2.813-2.445-4.253-3.628a1.627,1.627,0,0,1-.717-1.446,7.94,7.94,0,0,0-2.367-6.063,7.971,7.971,0,0,0-4.876-2.414,8.093,8.093,0,0,0-6.116,1.633A8.237,8.237,0,0,0-2843.166,2185.114Z" transform="translate(-7.371 -7.372)" fill="#2b5eaa"/>
    <path id="Path_39917" data-name="Path 39917" d="M-2691.07,2237.975a7.553,7.553,0,0,1-7.572-7.562,7.575,7.575,0,0,1,7.566-7.58,7.576,7.576,0,0,1,7.572,7.574A7.552,7.552,0,0,1-2691.07,2237.975Z" transform="translate(-151.109 -52.695)" fill="#f39397"/>
    <path id="Path_39918" data-name="Path 39918" d="M-2789.131,2550.806c1.036,0,2.072.01,3.108-.006.314-.005.412.1.408.41q-.022,1.816,0,3.633c0,.3-.1.381-.388.379-1.562-.011-3.124.009-4.685-.013a1.973,1.973,0,0,1-1.909-2c-.018-.669.01-1.339-.01-2.008-.01-.322.113-.437.417-.4a.391.391,0,0,0,.048,0Z" transform="translate(-66.14 -349.257)" fill="#69c4c9"/>
    <path id="Path_39919" data-name="Path 39919" d="M-2516.833,2555.254c-.8,0-1.594-.007-2.39,0-.262,0-.366-.077-.364-.353.011-1.243.009-2.486,0-3.729,0-.245.083-.337.333-.337q3.155.009,6.31,0c.286,0,.348.124.344.376-.011.685.014,1.371-.009,2.055a1.992,1.992,0,0,1-2.026,1.983C-2515.367,2555.261-2516.1,2555.254-2516.833,2555.254Z" transform="translate(-313.019 -349.293)" fill="#69c4c9"/>
    <path id="Path_39920" data-name="Path 39920" d="M-2676.545,2250.97a6.028,6.028,0,0,1-6.037-6.021,6.056,6.056,0,0,1,6.026-6.043,6.056,6.056,0,0,1,6.037,6.033A6.024,6.024,0,0,1-2676.545,2250.97Z" transform="translate(-165.631 -67.229)" fill="#ffe37c"/>
    <path id="Path_39921" data-name="Path 39921" d="M-2651.648,2293.936c-.542,0-1.083.016-1.624,0a1.726,1.726,0,0,1-1.727-1.361,1.593,1.593,0,0,1,1.178-1.824.505.505,0,0,0,.35-.447,1.779,1.779,0,0,1,1.8-1.459,1.8,1.8,0,0,1,1.886,1.418.6.6,0,0,0,.452.517,1.6,1.6,0,0,1,1.1,1.7,1.686,1.686,0,0,1-1.56,1.435c-.618.041-1.241.008-1.861.008Z" transform="translate(-190.55 -112.383)" fill="#2b5eaa"/>
    <path id="Path_39922" data-name="Path 39922" d="M-2642.165,2263.006c-.005.82-.538,1.325-1.246,1.182-.636-.128-.932-.724-.8-1.61a.989.989,0,0,1,1.157-.872C-2642.461,2261.769-2642.16,2262.209-2642.165,2263.006Z" transform="translate(-200.301 -87.839)" fill="#2c5faa"/>
    <path id="Path_39923" data-name="Path 39923" d="M-2594.075,2281.855c0,.949-.646,1.48-1.417,1.168a1.335,1.335,0,0,1-.608-1.689,1.009,1.009,0,0,1,1.141-.727C-2594.367,2280.668-2594.073,2281.082-2594.075,2281.855Z" transform="translate(-243.768 -104.932)" fill="#2c5faa"/>
    <path id="Path_39924" data-name="Path 39924" d="M-2614.938,2262.968c0,.836-.437,1.316-1.137,1.25a.963.963,0,0,1-.894-.848,3.589,3.589,0,0,1-.015-.668.969.969,0,0,1,1.056-.982.986.986,0,0,1,.989,1.009C-2614.936,2262.808-2614.939,2262.888-2614.938,2262.968Z" transform="translate(-224.94 -87.858)" fill="#2c5faa"/>
    <path id="Path_39925" data-name="Path 39925" d="M-2664.734,2281.85c0-.816.323-1.231.979-1.251a.967.967,0,0,1,1.062.974,4.835,4.835,0,0,1,0,.525,1.007,1.007,0,0,1-1,1.006,1.019,1.019,0,0,1-1.041-1.016C-2664.738,2282.009-2664.734,2281.929-2664.734,2281.85Z" transform="translate(-181.769 -104.93)" fill="#2c5faa"/>
  </g>
</svg>
