<svg xmlns="http://www.w3.org/2000/svg" width="39.561" height="39.653" viewBox="0 0 39.561 39.653">
  <g id="Group_48035" data-name="Group 48035" transform="translate(3667.98 7882.063)">
    <path id="Path_43358" data-name="Path 43358" d="M-3490.09-7834.692c-.851.413-1.618.966-2.427,1.448-.763.455-1.514.932-2.271,1.4-.319-.153-.243-.455-.244-.709-.009-1.986-.007-3.973,0-5.958a8.587,8.587,0,0,1,.034-1.316c.088-.344.394-.472.656-.632q2.4-1.474,4.8-2.953c4.08-2.521,8.18-5.009,12.244-7.555a.346.346,0,0,1,.118-.047c.156.1.081.26.081.389,0,2.5,0,5.011.01,7.516a.578.578,0,0,1-.319.575q-2.734,1.66-5.45,3.349c-.142.088-.314.143-.4.307a7.5,7.5,0,0,1-1.618,1.084c-1.564.977-3.137,1.938-4.707,2.9A.784.784,0,0,1-3490.09-7834.692Z" transform="translate(-158.162 -28.396)" fill="#6b7586"/>
    <path id="Path_43359" data-name="Path 43359" d="M-3366.831-7578.082q6.578,0,13.156,0c.375,0,.51.077.509.488q-.024,6.364,0,12.728c0,.391-.123.469-.486.468q-6.364-.018-12.728,0c-.385,0-.478-.113-.472-.482.021-1.3.008-2.592.008-3.887a.431.431,0,0,1,.443-.064,11.117,11.117,0,0,0,2.675.174c1,0,1.991.011,2.987,0a2.5,2.5,0,0,0,2.346-1.43,2.443,2.443,0,0,0-.271-2.729,2.471,2.471,0,0,0-2.031-1c-1.052-.015-2.1,0-3.157-.005a2.909,2.909,0,0,1-3.134-3.15C-3366.986-7577.347-3367.119-7577.749-3366.831-7578.082Z" transform="translate(-275.252 -278.01)" fill="#223243"/>
    <path id="Path_43360" data-name="Path 43360" d="M-3667.98-7871.128c.929-.67,1.944-1.2,2.926-1.781q7.529-4.475,15.066-8.936a1.4,1.4,0,0,1,.753-.219q5.36.012,10.72.006c.142,0,.284.011.426.016,0,.236-.214.285-.361.376-2.566,1.587-5.146,3.153-7.707,4.75-3.056,1.906-6.127,3.784-9.194,5.673a1.51,1.51,0,0,1-.538.254c-.595.083-1.191-.031-1.786.025-1.922.012-3.843.018-5.765,0-.632-.056-1.267.069-1.9-.021-.708.059-1.416.02-2.124.024A.936.936,0,0,1-3667.98-7871.128Z" transform="translate(0 0)" fill="#cfe0ea"/>
    <path id="Path_43361" data-name="Path 43361" d="M-3423.584-7606.426a9.229,9.229,0,0,0,.052,1.913,2.7,2.7,0,0,0,2.635,2.187c1.11.015,2.219,0,3.329,0a2.731,2.731,0,0,1,2.853,2.751,2.732,2.732,0,0,1-2.848,2.715c-1.323,0-2.646-.008-3.969,0a10.422,10.422,0,0,1-2.066-.263,8.5,8.5,0,0,1-2.716-1.453,7.386,7.386,0,0,1-2.744-5.721c-.032-1.592,0-3.186,0-4.779.2-.052.31.1.433.212a3.271,3.271,0,0,0,4.577,0c.123-.108.229-.263.433-.212Z" transform="translate(-218.499 -249.666)" fill="#bdd1df"/>
    <path id="Path_43362" data-name="Path 43362" d="M-3525.181-7870.979l6.885-4.251,10.792-6.667c.121-.037.182.053.25.122q1.247,1.253,2.492,2.508c0,.154-.11.213-.223.283q-6.174,3.792-12.346,7.587-2.56,1.574-5.117,3.151c-.189.065-.289-.079-.394-.183q-1.087-1.07-2.157-2.157C-3525.1-7870.69-3525.245-7870.79-3525.181-7870.979Z" transform="translate(-130.585 -0.144)" fill="#9ba9b4"/>
    <path id="Path_43363" data-name="Path 43363" d="M-3649.714-7753.84h5.816a3.99,3.99,0,0,1,1.991,1.534,6.257,6.257,0,0,1-1.237,9.01,2.353,2.353,0,0,1-.759.368,7.7,7.7,0,0,1-2.522.68,5.931,5.931,0,0,1-2.73-.475c-.181-.077-.37-.137-.555-.205a3.508,3.508,0,0,1-1.871-1.531c-.252-.488-.605-.912-.825-1.424a6.05,6.05,0,0,1,.228-5.473,1.427,1.427,0,0,0,.081-.279,2.755,2.755,0,0,1,.452-.749,8.536,8.536,0,0,1,1.218-1.109A2.115,2.115,0,0,1-3649.714-7753.84Z" transform="translate(-13.743 -117.27)" fill="#223243"/>
    <path id="Path_43364" data-name="Path 43364" d="M-3430.98-7700.423a4.037,4.037,0,0,1-2.092,1.21,3.382,3.382,0,0,1-3.036-.929c-.1-.095-.21-.187-.316-.281-.942-1.338-.652-2.874-.7-4.355,1-.716,2.084-1.306,3.123-1.964,1.135-.72,2.286-1.416,3.431-2.119a1.675,1.675,0,0,1,.274-.105c0,2.174.008,4.348,0,6.521A4.194,4.194,0,0,1-3430.98-7700.423Z" transform="translate(-211.128 -158.31)" fill="#9ba9b4"/>
    <path id="Path_43365" data-name="Path 43365" d="M-3547.007-7743.069a7.126,7.126,0,0,0,2.332-2.251,6.025,6.025,0,0,0,.508-5.382,6.452,6.452,0,0,0-2.836-3.278l1.875-.014,2.734,2.733q0,3.832,0,7.664c0,.163-.063.343.078.485a.746.746,0,0,1-.454.05Q-3544.886-7743.062-3547.007-7743.069Z" transform="translate(-110.638 -117.128)" fill="#1a2234"/>
    <path id="Path_43366" data-name="Path 43366" d="M-3665.321-7752.52a2.078,2.078,0,0,1-.521.687c-.628-.633-1.259-1.264-1.884-1.9-.1-.1-.236-.164-.254-.323l2.656.015A1.759,1.759,0,0,1-3665.321-7752.52Z" transform="translate(0 -117.072)" fill="#6b7586"/>
    <path id="Path_43367" data-name="Path 43367" d="M-3637.024-7644.017a10.649,10.649,0,0,0,1.871,1.531c-.521,0-1.041,0-1.561.011-.235.006-.33-.081-.322-.319C-3637.022-7643.2-3637.027-7643.609-3637.024-7644.017Z" transform="translate(-28.3 -217.711)" fill="#1a2234"/>
    <path id="Path_43368" data-name="Path 43368" d="M-3636.893-7752.358q0-.761,0-1.522l1.868,0A11.4,11.4,0,0,0-3636.893-7752.358Z" transform="translate(-28.428 -117.234)" fill="#1a2234"/>
    <path id="Path_43369" data-name="Path 43369" d="M-3628.632-7738.1a4.748,4.748,0,0,1-6.2.947,4.779,4.779,0,0,1-1.985-5.476,4.746,4.746,0,0,1,4.9-3.32,4.255,4.255,0,0,1,3.249,1.692c-.2.144-.382,0-.563-.053a3.274,3.274,0,0,0-3.791,1.461,3.223,3.223,0,0,0,.608,4.079,3.2,3.2,0,0,0,3.216.7C-3629.01-7738.117-3628.828-7738.265-3628.632-7738.1Z" transform="translate(-28.295 -124.476)" fill="#2094bd"/>
    <path id="Path_43370" data-name="Path 43370" d="M-3592.023-7723.56a5.728,5.728,0,0,1-1.566.338,3.443,3.443,0,0,1-3.422-3.622,3.451,3.451,0,0,1,3.7-3.212,4.838,4.838,0,0,1,1.266.339,2.565,2.565,0,0,1,.773,1.221c-.163.121-.327.038-.489,0a1.907,1.907,0,0,0-2.068.844,1.816,1.816,0,0,0,0,2.01,1.911,1.911,0,0,0,2.066.847c.163-.036.327-.12.49,0A2.821,2.821,0,0,1-3592.023-7723.56Z" transform="translate(-64.904 -139.013)" fill="#0d6fac"/>
    <path id="Path_43371" data-name="Path 43371" d="M-3562.038-7710.084a2.081,2.081,0,0,1-2.4-.421,2,2,0,0,1-.315-2.465,2.039,2.039,0,0,1,2.349-.928l.367.11A4.221,4.221,0,0,1-3562.038-7710.084Z" transform="translate(-94.145 -153.72)" fill="#7ac7e6"/>
    <path id="Path_43372" data-name="Path 43372" d="M-3410.26-7648.607a1.375,1.375,0,0,1-1.373,1.348,1.377,1.377,0,0,1-1.358-1.406,1.37,1.37,0,0,1,1.394-1.325A1.376,1.376,0,0,1-3410.26-7648.607Z" transform="translate(-233.205 -212.248)" fill="#223243"/>
  </g>
</svg>
