<svg xmlns="http://www.w3.org/2000/svg" width="48" height="48" viewBox="0 0 48 48">
  <g id="Group_48036" data-name="Group 48036" transform="translate(2183 3121)">
    <path id="Path_43373" data-name="Path 43373" d="M-2152.1-3113.746a1.316,1.316,0,0,1,.429,1.267c-.42,2.63-.823,5.263-1.261,7.889a1.374,1.374,0,0,1-2.237.854c-.063-.046-.123-.1-.184-.145-.794-.64-.794-.64-1.174.286A18.365,18.365,0,0,0-2151.9-3083a18.1,18.1,0,0,0,13.648,4.775c.046,0,.093,0,.14,0a24.508,24.508,0,0,0,4.812-.608,17.925,17.925,0,0,0,9.008-5.066,17.853,17.853,0,0,0,4.948-9.775,15.977,15.977,0,0,0,.26-3.444,19.45,19.45,0,0,0-1.507-6.67,17.819,17.819,0,0,0-4.775-6.516,18.048,18.048,0,0,0-9.305-4.3c-1.185-.18-2.389-.192-3.561-.449a2.592,2.592,0,0,1-2.007-2.206,2.989,2.989,0,0,1,.917-2.725,2.1,2.1,0,0,1,1.4-.557,19.405,19.405,0,0,1,8.5,1.945,22.818,22.818,0,0,1,5.833,3.776,24.48,24.48,0,0,1,5.278,6.521,23.92,23.92,0,0,1,2.564,7.1,20.784,20.784,0,0,1,.2,2.559c.011.183-.053.373.045.549v3.094c-.086.787-.069,1.582-.162,2.367a20.159,20.159,0,0,1-1.42,5.173,23.928,23.928,0,0,1-6.47,9.067,23.583,23.583,0,0,1-11.431,5.572,18.549,18.549,0,0,1-2.468.182,1.664,1.664,0,0,0-.643.045h-.844c-.614-.1-1.236-.078-1.854-.132a18.077,18.077,0,0,1-4.186-.909,24.066,24.066,0,0,1-6.469-3.327,24.134,24.134,0,0,1-5.365-5.313,24.209,24.209,0,0,1-4.015-8.594,24.638,24.638,0,0,1-.591-7.577,22.734,22.734,0,0,1,2.5-9c.327-.636.339-.614-.194-1.038a1.7,1.7,0,0,1-.746-1.39,1.455,1.455,0,0,1,.955-1.469c2.074-.823,4.165-1.6,6.252-2.392A1.139,1.139,0,0,1-2152.1-3113.746Z" transform="translate(-19.5 -0.413)" fill="#fcda4e"/>
    <path id="Path_43374" data-name="Path 43374" d="M-1952.593-3121a.155.155,0,0,0,0,.081,2.793,2.793,0,0,0-2.151,3.164,2.833,2.833,0,0,0,2.786,2.373,17.388,17.388,0,0,1,6.667,1.241,18.525,18.525,0,0,1,7.428,5.371,17.741,17.741,0,0,1,4.085,9.1,17.9,17.9,0,0,1-3.473,13.674,18.127,18.127,0,0,1-8.914,6.46,17.49,17.49,0,0,1-6.631.9,27.163,27.163,0,0,0,3.159-.543,18.272,18.272,0,0,0,9.021-5.43,17.741,17.741,0,0,0,4.491-8.958,17.946,17.946,0,0,0-3.122-14.119,18.073,18.073,0,0,0-11.038-7.282,17.8,17.8,0,0,0-3.893-.412A2.814,2.814,0,0,1-1957-3118.3a2.816,2.816,0,0,1,2.048-2.6c.075-.022.154-.022.2-.1Z" transform="translate(-204.813)" fill="#ffc44f"/>
    <path id="Path_43375" data-name="Path 43375" d="M-2160.875-3010.6a10.189,10.189,0,0,0-1.771-.265,23.246,23.246,0,0,1-10.319-4.207,23.726,23.726,0,0,1-9.32-13.648,20.037,20.037,0,0,1-.623-3.761c-.006-.089.016-.191-.092-.244v-3.75a9.36,9.36,0,0,0,.263-1.723,23.218,23.218,0,0,1,2.462-7.507c.171-.324.173-.52-.144-.711a3.482,3.482,0,0,1-.4-.32,1.4,1.4,0,0,1,.394-2.487c1.559-.6,3.123-1.19,4.685-1.784.911-.346,1.821-.7,2.736-1.034a1.232,1.232,0,0,1,1.412.281c-2.182.841-4.344,1.74-6.554,2.5a1.468,1.468,0,0,0-.486,2.506c.8.645.755.7.287,1.627a21.919,21.919,0,0,0-2.281,7.716,23.785,23.785,0,0,0,2.1,12.984,24.584,24.584,0,0,0,3.737,5.679,23.622,23.622,0,0,0,9.906,6.734,23.2,23.2,0,0,0,6.193,1.325,1.07,1.07,0,0,1,.26.087Z" transform="translate(0 -62.395)" fill="#ffc44f"/>
    <path id="Path_43376" data-name="Path 43376" d="M-2041.506-2992.718a13.267,13.267,0,0,1-13.209,13.2,13.267,13.267,0,0,1-13.215-13.234,13.265,13.265,0,0,1,13.254-13.194A13.263,13.263,0,0,1-2041.506-2992.718Z" transform="translate(-104.282 -104.264)" fill="#d34b5b"/>
    <path id="Path_43377" data-name="Path 43377" d="M-1998.022-2971.043a10.943,10.943,0,0,1-3.221,3.222c-.228.008-.318-.164-.414-.322a3.57,3.57,0,0,0-.37-.532.511.511,0,0,0-.706-.128.528.528,0,0,0-.188.7c.078.2.211.377.307.571.075.152.166.3.052.479a10.324,10.324,0,0,1-4.413,1.167c-.2-.109-.2-.3-.2-.49-.011-.312,0-.624-.005-.937,0-.877-.129-1.153-.538-1.163s-.55.273-.563,1.187a2.409,2.409,0,0,1-.089,1.061c-.179.219-.4.153-.595.055a9.294,9.294,0,0,1-3.158-2.275,1.459,1.459,0,0,0-.4-.32.625.625,0,0,1-.154-.159,10.908,10.908,0,0,1-1.617-2.1,13.1,13.1,0,0,1-1.712-5.145,12.606,12.606,0,0,1,1.856-8.085,6.158,6.158,0,0,1,1.3-1.638.613.613,0,0,0,.149-.235.925.925,0,0,1,.286-.333c.486-.258.771-.744,1.217-1.057a13.345,13.345,0,0,1,2.13-1.318c.221-.1.455-.239.684,0a2.761,2.761,0,0,1,.1,1.145,5.589,5.589,0,0,0,.029.651.5.5,0,0,0,.5.464.5.5,0,0,0,.54-.472c.064-.478.012-.962.033-1.442.01-.239-.062-.51.2-.673a10.314,10.314,0,0,1,4.412,1.165c.15.277-.052.473-.167.68-.31.564-.319.875-.009,1.073s.632.045.988-.5c.13-.2.194-.474.507-.484a10.9,10.9,0,0,1,3.223,3.223c.008.207-.138.3-.287.392s-.318.2-.478.294a.532.532,0,0,0-.236.76c.167.321.468.316.775.2.327-.119.584-.447.989-.332a10.318,10.318,0,0,1,1.165,4.413c-.121.217-.334.2-.533.2-.465.014-.932-.011-1.4.014-.436.023-.673.234-.658.562.014.307.24.493.658.515.465.025.931,0,1.4.014.2.006.413-.013.533.2a10.319,10.319,0,0,1-1.166,4.413.727.727,0,0,1-.616-.133,2.016,2.016,0,0,0-.5-.242.534.534,0,0,0-.647.237.511.511,0,0,0,.143.669,3.574,3.574,0,0,0,.534.373C-1998.188-2971.361-1998.013-2971.272-1998.022-2971.043Z" transform="translate(-151.268 -119.469)" fill="#c7ebfa"/>
    <path id="Path_43378" data-name="Path 43378" d="M-2044.354-2967.492a20.37,20.37,0,0,0-1.58,2.133,12.9,12.9,0,0,0-1.7,5.055,12.446,12.446,0,0,0,1.871,8.081,22.29,22.29,0,0,0,1.411,1.853,1.488,1.488,0,0,0-1.388.984.321.321,0,0,1-.306.172,10.962,10.962,0,0,1-3.23-3.23c0-.226.171-.319.332-.415a3.7,3.7,0,0,0,.5-.343.517.517,0,0,0,.168-.7.533.533,0,0,0-.739-.188c-.229.1-.437.242-.666.342a.341.341,0,0,1-.356-.01,10.239,10.239,0,0,1-1.169-4.413c.121-.217.335-.2.534-.2.466-.014.933.011,1.4-.014.437-.023.674-.234.659-.562-.014-.307-.241-.493-.66-.515-.466-.024-.932,0-1.4-.014-.2-.006-.413.014-.534-.2a10.239,10.239,0,0,1,1.169-4.412c.2-.125.359-.009.524.074a3.335,3.335,0,0,0,.538.283.547.547,0,0,0,.7-.211.522.522,0,0,0-.167-.706,3.953,3.953,0,0,0-.542-.367c-.15-.09-.292-.188-.294-.391a10.97,10.97,0,0,1,3.231-3.231.324.324,0,0,1,.306.172A1.486,1.486,0,0,0-2044.354-2967.492Z" transform="translate(-119.438 -138.07)" fill="#8cb9e3"/>
    <path id="Path_43379" data-name="Path 43379" d="M-1982.267-2772.886a20.9,20.9,0,0,0,2.11,1.729,9.8,9.8,0,0,0,1.84.975.2.2,0,0,1,.01.3,10.268,10.268,0,0,1-4.414-1.17.27.27,0,0,1-.023-.3A3.013,3.013,0,0,0-1982.267-2772.886Z" transform="translate(-181.45 -315.478)" fill="#8cb9e3"/>
    <path id="Path_43380" data-name="Path 43380" d="M-1978.329-2988.9a10.378,10.378,0,0,0-3.138,1.98,2.773,2.773,0,0,1-.687.554c-.214-.466-.36-.961-.617-1.409a.25.25,0,0,1,.038-.261,10.261,10.261,0,0,1,4.413-1.17A.2.2,0,0,1-1978.329-2988.9Z" transform="translate(-181.437 -119.439)" fill="#8cb9e3"/>
    <path id="Path_43381" data-name="Path 43381" d="M-1935.178-2989.587q.005-.152.01-.3a3.977,3.977,0,0,1,1.513,0c0,.636,0,1.272-.006,1.908,0,.593-.266.918-.74.925s-.755-.316-.761-.9Q-1935.171-2988.773-1935.178-2989.587Z" transform="translate(-224.589 -118.752)" fill="#264d6b"/>
    <path id="Path_43382" data-name="Path 43382" d="M-2051.89-2873.063c.669,0,1.339,0,2.008.007a.74.74,0,0,1,.826.748.74.74,0,0,1-.825.749c-.669.009-1.338.006-2.008.007A4.058,4.058,0,0,1-2051.89-2873.063Z" transform="translate(-118.754 -224.693)" fill="#264d6b"/>
    <path id="Path_43383" data-name="Path 43383" d="M-1830.22-2871.55c-.669,0-1.338,0-2.007-.007a.74.74,0,0,1-.824-.749.741.741,0,0,1,.824-.749c.669-.008,1.338,0,2.007-.007A3.8,3.8,0,0,1-1830.22-2871.55Z" transform="translate(-317.14 -224.694)" fill="#264d6b"/>
    <path id="Path_43384" data-name="Path 43384" d="M-1935.167-2768.21l-.01-.3c.005-.558.008-1.116.016-1.674.008-.543.293-.862.76-.856s.736.327.741.876c.005.651,0,1.3.006,1.955A3.908,3.908,0,0,1-1935.167-2768.21Z" transform="translate(-224.589 -317.148)" fill="#264d6b"/>
    <path id="Path_43385" data-name="Path 43385" d="M-1835.23-2932.883c-.282.16-.56.327-.847.478a.765.765,0,0,1-1.122-.246.762.762,0,0,1,.368-1.056c.277-.169.558-.33.838-.494A6.819,6.819,0,0,1-1835.23-2932.883Z" transform="translate(-313.296 -169.286)" fill="#264d6b"/>
    <path id="Path_43386" data-name="Path 43386" d="M-1876.556-2975.98c-.172.293-.336.592-.519.878a.758.758,0,0,1-1.077.3.749.749,0,0,1-.223-1.057c.157-.3.332-.593.5-.889A6.882,6.882,0,0,1-1876.556-2975.98Z" transform="translate(-275.957 -130.731)" fill="#264d6b"/>
    <path id="Path_43387" data-name="Path 43387" d="M-2037.98-2934.182c.306.18.62.347.916.543a.743.743,0,0,1,.272,1.045.744.744,0,0,1-1.016.246c-.318-.157-.621-.344-.93-.517A7.084,7.084,0,0,1-2037.98-2934.182Z" transform="translate(-130.737 -169.304)" fill="#264d6b"/>
    <path id="Path_43388" data-name="Path 43388" d="M-1877.907-2773.214c-.175-.309-.362-.613-.522-.93a.737.737,0,0,1,.246-1.016.747.747,0,0,1,1.048.267c.2.3.365.61.547.916A6.936,6.936,0,0,1-1877.907-2773.214Z" transform="translate(-275.924 -313.312)" fill="#264d6b"/>
    <path id="Path_43389" data-name="Path 43389" d="M-1994.865-2976.728c.128.225.246.456.386.673a1.191,1.191,0,0,1,.192,1l-.2.243c-.65.254-.922.163-1.271-.43-.142-.241-.282-.483-.422-.725A7.22,7.22,0,0,1-1994.865-2976.728Z" transform="translate(-169.304 -130.746)" fill="#264d6b"/>
    <path id="Path_43390" data-name="Path 43390" d="M-2038.734-2815.876c.31-.174.613-.359.93-.519a.739.739,0,0,1,1.016.246.744.744,0,0,1-.271,1.046c-.3.2-.61.364-.916.544A7.248,7.248,0,0,1-2038.734-2815.876Z" transform="translate(-130.741 -275.955)" fill="#264d6b"/>
    <path id="Path_43391" data-name="Path 43391" d="M-1835.981-2814.543c-.293-.173-.59-.338-.877-.52a.753.753,0,0,1-.327-1.033.747.747,0,0,1,1.079-.266c.3.156.593.333.888.5A7.1,7.1,0,0,1-1835.981-2814.543Z" transform="translate(-313.309 -275.969)" fill="#264d6b"/>
    <path id="Path_43392" data-name="Path 43392" d="M-1994.411-2774.918a.951.951,0,0,1-.041,1.118c-.151.23-.275.479-.412.718a7.288,7.288,0,0,1-1.316-.756c.141-.242.281-.484.423-.726.349-.595.621-.687,1.271-.43Z" transform="translate(-169.305 -313.447)" fill="#264d6b"/>
    <path id="Path_43393" data-name="Path 43393" d="M-1945.953-2920.987c0-.781,0-1.562.009-2.343a1.588,1.588,0,0,1,1.572-1.681,1.586,1.586,0,0,1,1.605,1.695c.007,1.218,0,2.437,0,3.655a1.656,1.656,0,0,1-1.965,1.852,1.511,1.511,0,0,1-1.416-1.647c-.008-.342,0-.684,0-1.026A.634.634,0,0,1-1945.953-2920.987Z" transform="translate(-214.645 -177.615)" fill="#1d3e54"/>
    <path id="Path_43394" data-name="Path 43394" d="M-1999.809-2882.087c0,.419.029.841,0,1.258a1.774,1.774,0,0,0,1.224,1.919c-1.8,0-3.592.022-5.387.008a1.578,1.578,0,0,1-1.6-1.6,1.59,1.59,0,0,1,1.646-1.566C-2002.557-2882.088-2001.183-2882.083-1999.809-2882.087Z" transform="translate(-160.789 -216.515)" fill="#254d6b"/>
  </g>
</svg>
