<svg xmlns="http://www.w3.org/2000/svg" width="58" height="33.699" viewBox="0 0 58 33.699">
  <g id="Group_48033" data-name="Group 48033" transform="translate(3474.329 4299.506)">
    <path id="Path_42797" data-name="Path 42797" d="M-3425.091-4271.809a6.091,6.091,0,0,0,1.093.134c.515-.025.586.235.539.642a4.759,4.759,0,0,1-2.883,4.237,1.805,1.805,0,0,0-.25.19l10.263.257,0,.226q-28.669.635-57.435,0c.313-.332.648-.078.926-.314a4.658,4.658,0,0,1-1.488-1.1,1.03,1.03,0,0,1,1.079.051,4.393,4.393,0,0,0,2.733.307,23.921,23.921,0,0,0,2.828-.433,2.454,2.454,0,0,0,2.117-2.86,5.578,5.578,0,0,1,.439-2.413,17.235,17.235,0,0,1,5.966-7.659,11.116,11.116,0,0,0,3.2-3.3c.178-.289.374-.234.6-.179a28.263,28.263,0,0,0,3.483.462c.18.02.468.091.495-.159.033-.315-.278-.175-.433-.187-1.126-.094-2.246-.227-3.359-.419-.386-.067-.572-.221-.446-.654a13.551,13.551,0,0,1,.569-2.25l.578.843c.753.574,1.545.083,2.318.073a.378.378,0,0,0,.322-.379.415.415,0,0,0-.237-.384,4.061,4.061,0,0,1-1.075-.741,4.994,4.994,0,0,0,1.052.729.409.409,0,0,1,.25.438.394.394,0,0,1-.354.347c-.493.018-.961.191-1.449.206-.313.01-.609-.064-.664-.458-.352-.712-.738-1.484-.212-2.207a3.928,3.928,0,0,1,2.826-1.679.608.608,0,0,1,.486.151c.527.49,1.06.33,1.622.063,1.176-.557,1.629-.319,1.742.96a2.362,2.362,0,0,1-.623,1.538,4.9,4.9,0,0,1-1.483,1.732c-.3.166-.35.581-.454.913a9.623,9.623,0,0,0-.227,4.315,6.36,6.36,0,0,1-.816,4.324,7.632,7.632,0,0,0-.846,4.351c.034.953.18,1.9.235,2.854a1.417,1.417,0,0,0,.789,1.253,5.1,5.1,0,0,1,.442.276c.624.436.624.592,0,1h8.389c-.05-.259-.259-.33-.376-.475a1.2,1.2,0,0,1,.39-1.96c1.252-.533,1.715-.587.69-2.375a6.818,6.818,0,0,0-1.195-1.443,2.423,2.423,0,0,1-.128-3.308,2.108,2.108,0,0,1,2.125-.673c1.653.3,3.189.988,4.8,1.418.587.156,1.177.3,1.755.486.605.192.836-.091.924-.636a5.281,5.281,0,0,0-1.167-3.886c-.29-.428-.61-1.034-1.018-1.131-.447-.106-.789.579-1.217.861a12.244,12.244,0,0,1-2.4.921c-.261.1-.543-.084-.787-.238a6.035,6.035,0,0,1-1.893-1.944,24.83,24.83,0,0,1-1.273-2.493,8.583,8.583,0,0,0-1.689-2.607,3.873,3.873,0,0,1-.814-1.752,1.724,1.724,0,0,0-1.04-1.162c-.345-.132-.432-.4-.581-.648a.328.328,0,0,1,.188-.525,2.808,2.808,0,0,1,2.264-.054c.385.214.708.444.755.9a7.518,7.518,0,0,0,1.989,4.019,27.186,27.186,0,0,0,2.621,2.719c.308.281.483.254.7-.093a11.792,11.792,0,0,1,1.462-1.478,4.406,4.406,0,0,0,1.457-2.741,3.376,3.376,0,0,1,.843-1.666c.154-.214.609-.4.325-.73-.306-.355-.568-.87-1.183-.783-.365.052-.724.142-1.09.181s-.6-.093-.642-.533c-.061-.633-.6-1.1-.687-1.734-1.128-.11-.379-.868-.457-1.338-.035-.212.03-.464-.063-.638a3.178,3.178,0,0,1,.277-3.435,4.068,4.068,0,0,1,4.092-1.756,2.822,2.822,0,0,1,1.667.952,1.5,1.5,0,0,0,1.262.505,1.513,1.513,0,0,1,1.777,1.151,2.938,2.938,0,0,1,.3,2.044,2.128,2.128,0,0,0,.394,1.846,10.609,10.609,0,0,1,1.362,4.039c.061.335,0,.539-.375.254-.111.053-.05.125-.019.192a19.062,19.062,0,0,1,2.118,4.657,36.841,36.841,0,0,1,2.132,6.671c.236,1.341.238,2.718.569,4.05.293,1.178.285,1.181-.961,1.171-.2,0-.39-.01-.585-.016C-3424.972-4271.966-3425.14-4272.1-3425.091-4271.809Z" transform="translate(0 0)" fill="#791455"/>
    <path id="Path_42798" data-name="Path 42798" d="M-3097.638-4088.548c-.1-.019-.167-.091-.094-.163.1-.1.226-.017.332.042Z" transform="translate(-327.453 -183.261)" fill="#510d39"/>
    <path id="Path_42799" data-name="Path 42799" d="M-3305.27-4048.065a.776.776,0,0,1-.23.036c-.046-.011-.081-.065-.12-.1a.553.553,0,0,1,.161-.03A.778.778,0,0,1-3305.27-4048.065Z" transform="translate(-146.705 -218.564)" fill="#550e3d"/>
  </g>
</svg>
