<svg xmlns="http://www.w3.org/2000/svg" width="47.143" height="27.583" viewBox="0 0 47.143 27.583">
  <g id="Group_48030" data-name="Group 48030" transform="translate(4584.734 -398.361)">
    <path id="Path_41537" data-name="Path 41537" d="M-4511.275,413.884l0,.053a1.605,1.605,0,0,1,.041.511c-.012.035-.062.058-.033.106a.844.844,0,0,1-.027.252,7.215,7.215,0,0,1-.366,1.186,5.667,5.667,0,0,1-1.378,1.935c-.048.044-.137.083-.116.153s.11.051.17.065c.246.053.477.154.722.208.073.021.147.037.221.056a.733.733,0,0,0,.168.043c.628.2,1.263.363,1.889.562a1.788,1.788,0,0,0,.554.063h2.313a.434.434,0,0,1,.215.025.022.022,0,0,1,0,.039l-.513,0a.352.352,0,0,1-.2.038h-1.708a.769.769,0,0,1-.213-.026c.441.107.87.255,1.306.382a.212.212,0,0,1,.126.076c.029.035.072.021.108.029a1.452,1.452,0,0,1,.548.162h0a2.058,2.058,0,0,1,.688.213.142.142,0,0,0,.108.032.076.076,0,0,1,.026,0,4.1,4.1,0,0,1,.936.3c-.058.122-.105.248-.169.368a1.065,1.065,0,0,0-.009.9.386.386,0,0,0,.2.214c.039.02.09.025.115.084a.648.648,0,0,1-.434.056.447.447,0,0,0-.174,0c-.287-.009-.574-.013-.861-.023a.25.25,0,0,1-.046-.008,1.135,1.135,0,0,0-.29-.016.449.449,0,0,1-.088-.011,1.852,1.852,0,0,0-.3-.023.265.265,0,0,1-.042-.009.952.952,0,0,0-.231-.014.415.415,0,0,1-.085-.01,1.689,1.689,0,0,0-.273-.023.285.285,0,0,1-.041-.009c-.075-.025-.155,0-.23-.021a.106.106,0,0,1-.038-.02.385.385,0,0,0-.23-.014.139.139,0,0,1-.064,0c-.069-.031-.142,0-.212-.013a.358.358,0,0,1-.065-.01.83.83,0,0,0-.215-.017.361.361,0,0,1-.067-.011c-.222-.021-.442-.057-.665-.068a.408.408,0,0,1-.093-.011,1.954,1.954,0,0,1-.434-.081l-.01,0-.01,0a.8.8,0,0,0-.21-.012.224.224,0,0,1-.041,0c-.055-.018-.11,0-.165,0a.358.358,0,0,1-.061-.01.5.5,0,0,0-.16-.021.214.214,0,0,1-.082-.006.557.557,0,0,0-.16-.018.335.335,0,0,1-.061-.01.428.428,0,0,0-.139-.017.412.412,0,0,1-.081-.011.577.577,0,0,0-.161-.018.351.351,0,0,1-.061-.01.809.809,0,0,0-.181-.02.312.312,0,0,1-.041-.008c-.044-.016-.095-.014-.133-.048l-.048,0c-.054-.03-.118.008-.171-.025l-.011,0-.011,0a1.888,1.888,0,0,1-.391-.022.293.293,0,0,1-.043-.009c-.172-.025-.343-.054-.516-.071a.26.26,0,0,1-.042-.008.462.462,0,0,0-.171-.016.214.214,0,0,1-.185-.066l-.009,0-.01,0a.261.261,0,0,0-.146,0,.164.164,0,0,1-.037,0,.527.527,0,0,0-.129-.014.3.3,0,0,1-.057-.01.716.716,0,0,0-.136-.02.318.318,0,0,1-.041-.008,1.394,1.394,0,0,0-.312-.038.384.384,0,0,1-.17-.032,1.17,1.17,0,0,0-.31-.055.278.278,0,0,1-.042-.008.449.449,0,0,1-.135-.054c-.053-.01-.112.013-.16-.027s-.093.014-.141,0a.227.227,0,0,1-.041-.007,3.991,3.991,0,0,0-.394-.072.281.281,0,0,1-.043-.008c-.072-.025-.15-.005-.222-.031a2.433,2.433,0,0,0-.428-.089c-.58-.143-1.168-.254-1.735-.449a.429.429,0,0,0-.135-.018c-.055,0-.109,0-.164,0a12.554,12.554,0,0,1-2.56-.209c-.7-.112-1.4-.211-2.1-.274-.4-.035-.8-.065-1.2-.066-.269,0-.54-.021-.806-.016-.487.01-.976,0-1.462.034-.341.023-.682.046-1.024.063-.373.019-.746.05-1.118.087a.249.249,0,0,0-.154.081,5.184,5.184,0,0,1-1.39,1.007c-.024.012-.036.026-.029.053-.01.037-.032.043-.062.022l-.028,0c-.044.026-.1,0-.143.023l-.049.028c-.038.044-.1.028-.142.055l-.078.032a.591.591,0,0,1-.192.079h0c-.014.023-.042.016-.062.025h-.01l-.009.005c-.035.053-.1.028-.142.052l-.242.083a1.038,1.038,0,0,1-.5.136h0c-.065.057-.152.028-.224.055a.322.322,0,0,0-.156.03,1.934,1.934,0,0,1-.746.123.068.068,0,0,0-.051.013h0a3.812,3.812,0,0,1-.446.054h-.046c-.091.038-.191-.007-.283.026l-.1,0c-.146.052-.3-.015-.444.024h-.075a2.34,2.34,0,0,1-.528.011c-.151-.006-.294.037-.442.039a.4.4,0,0,0-.2-.031,12.335,12.335,0,0,1-1.268-.092c-.373-.028-.742-.09-1.111-.154a8.9,8.9,0,0,0-1.592-.147c-.062,0-.121.045-.186.015-.007-.089-.076-.045-.112-.044a9.777,9.777,0,0,0-1.648.223,8.656,8.656,0,0,0-1.079.289c-.044.055-.108.048-.169.053l-.434.144c-.049.015-.1.035-.144.048a.166.166,0,0,1-.1.032.467.467,0,0,1-.22.08h0c-.033.058-.092.045-.143.052a.156.156,0,0,1-.1.036,2.448,2.448,0,0,1-.713.269h0a1.526,1.526,0,0,1-.386.135h0a.137.137,0,0,1-.076.033c-.062-.01-.121.006-.048-.1a.7.7,0,0,0,.1-.3,1.36,1.36,0,0,0-.058-.79c-.051-.106-.111-.212-.248-.233a.077.077,0,0,1-.06-.05c-.008-.064.041-.08.085-.1l.034-.029a1.174,1.174,0,0,1,.422-.266l.045-.031a1.1,1.1,0,0,1,.366-.188.015.015,0,0,0,.018-.006.737.737,0,0,1,.364-.186l.074-.034c.046-.09.152-.056.218-.107h0a.52.52,0,0,1,.113-.052l.216-.108a.456.456,0,0,1,.252-.109l.049-.032c.023-.026.059-.008.084-.025l.054-.032a1.789,1.789,0,0,1,.295-.155c.149-.064.3-.133.448-.19a.573.573,0,0,0,.137-.043.2.2,0,0,1,.032-.014.509.509,0,0,0,.112-.045.271.271,0,0,1,.033-.014.762.762,0,0,0,.134-.05.293.293,0,0,1,.065-.03,1.5,1.5,0,0,0,.2-.071l.034-.011c.048-.011.1,0,.145-.04a.116.116,0,0,1,.072-.043.436.436,0,0,0,.065-.017l.031-.012a.6.6,0,0,0,.145-.058.365.365,0,0,1,.219-.045.334.334,0,0,0,.169-.058c.02-.034.06-.031.09-.046l.032-.012a1.059,1.059,0,0,0,.15-.054.217.217,0,0,1,.165-.023c.061-.026.133-.011.189-.052.091-.082.217-.07.319-.119.124-.042.254-.054.38-.086a.429.429,0,0,0,.243-.043.243.243,0,0,1,.04-.01.973.973,0,0,0,.266-.075c.1-.034.191-.081.289-.116a1,1,0,0,0,.4-.315.209.209,0,0,1,.068-.088.341.341,0,0,0,.1-.1l.02-.028a.285.285,0,0,0,.045-.09.153.153,0,0,1,.04-.058,2.045,2.045,0,0,0,.167-.259.338.338,0,0,1,.02-.029.427.427,0,0,0,.05-.09c0-.011.01-.021.016-.031a1.624,1.624,0,0,0,.087-.151c0-.01.011-.021.017-.03a.443.443,0,0,0,.045-.109.411.411,0,0,1,.076-.135.225.225,0,0,0,.055-.082c0-.01.01-.02.015-.03a.549.549,0,0,0,.068-.137.056.056,0,0,1,.034-.038.022.022,0,0,0,.02-.008,1.733,1.733,0,0,1,.175-.366l.03-.057a.321.321,0,0,0,.059-.2c0-.193.015-.386,0-.58a.334.334,0,0,1,.007-.044.643.643,0,0,0,.019-.214.371.371,0,0,1,.011-.084.938.938,0,0,0,.024-.181.284.284,0,0,1,.009-.04,1.676,1.676,0,0,0,.037-.288.251.251,0,0,1,.062-.184l.009-.079a.128.128,0,0,1,.007-.059c.036-.156.082-.31.127-.464a6.53,6.53,0,0,1,.554-1.275,5.979,5.979,0,0,1,.512-.756c.1-.119.093-.126-.044-.173a7.354,7.354,0,0,1-1.05-.459.554.554,0,0,0-.2-.1c-.053-.007-.085-.053-.133-.069a.747.747,0,0,1-.1-.079,1.991,1.991,0,0,0-.307-.212.186.186,0,0,1-.043-.033.272.272,0,0,0-.111-.08.31.31,0,0,1-.139-.11.178.178,0,0,0-.1-.084.31.31,0,0,1-.12-.112c-.027-.043-.067-.075-.1-.117a.145.145,0,0,1-.016-.037.722.722,0,0,1,0-.181.342.342,0,0,1,.008-.038.569.569,0,0,0,.021-.149.185.185,0,0,1,.007-.036.559.559,0,0,0,.026-.105.311.311,0,0,1,.01-.036c.021-.073.035-.148.058-.226a.47.47,0,0,0-.1.093c-.016.019-.029.04-.044.061-.1.093-.145.238-.261.322a.048.048,0,0,1-.036-.007c-.062-.06-.108-.134-.17-.2a.171.171,0,0,1-.033-.044.7.7,0,0,0-.108-.15.248.248,0,0,1-.033-.046,3.392,3.392,0,0,0-.214-.335.262.262,0,0,1-.056-.1.226.226,0,0,0-.053-.111.336.336,0,0,1-.063-.132.207.207,0,0,0-.053-.109.176.176,0,0,1-.033-.085.932.932,0,0,1-.018-.11.155.155,0,0,1,.006-.037.591.591,0,0,0,.044-.12.172.172,0,0,1,.034-.067c.074-.1.123-.21.2-.31-.086.05-.168.1-.249.159-.119.085-.148.074-.2-.066l-.018-.051a.292.292,0,0,1-.01-.035c-.012-.064-.027-.127-.04-.19a.165.165,0,0,1-.007-.034l-.008-.134a.272.272,0,0,1-.049-.112.239.239,0,0,1-.01-.041c-.016-.112-.029-.224-.046-.335a.317.317,0,0,1-.009-.043,1.612,1.612,0,0,0-.019-.283.352.352,0,0,1-.011-.064,2.75,2.75,0,0,0,.009-.515c-.012-.093.073-.163.121-.239a.714.714,0,0,1,.115-.146c-.066.005-.125.071-.181.023s-.043-.128-.028-.193a2.562,2.562,0,0,0,.022-.258.27.27,0,0,1,.009-.039.434.434,0,0,0,.019-.135.263.263,0,0,1,.006-.039c.022-.063.014-.13.03-.194a.1.1,0,0,1,.023-.032,1.055,1.055,0,0,0,.026-.26.3.3,0,0,1,.026-.161,1.01,1.01,0,0,0,.052-.192c0-.013.006-.026.009-.039a2.094,2.094,0,0,0,.068-.294.228.228,0,0,1,.041-.115,2.3,2.3,0,0,1,.553-.466.93.93,0,0,1-.26.064c-.138.027-.165-.006-.125-.145a.681.681,0,0,0,.039-.159.2.2,0,0,1,.03-.093.314.314,0,0,0,.055-.157.368.368,0,0,1,.055-.143,1.344,1.344,0,0,0,.108-.24.286.286,0,0,1,.015-.033.361.361,0,0,0,.02-.085.143.143,0,0,1,.032-.065.857.857,0,0,0,.1-.234.773.773,0,0,1,.09-.194.5.5,0,0,1,.356-.259l.077-.059a.494.494,0,0,1,.128-.068.256.256,0,0,1,.034-.013c.052-.013.1-.043.149-.059a.189.189,0,0,0,.049-.021l.023,0c.024-.027.061-.028.091-.04l.032-.014a.8.8,0,0,1,.124-.037l.032-.01a.6.6,0,0,0,.063-.019l.031-.011c.027-.008.053-.018.08-.026s.075-.02.112-.026c-.031-.009-.061.006-.09,0a.933.933,0,0,1-.267-.059,1.118,1.118,0,0,0-.431-.036c-.043.007-.085.013-.11-.028s0-.079.025-.113a3.169,3.169,0,0,1,.2-.292.379.379,0,0,1,.025-.03.248.248,0,0,0,.059-.09.8.8,0,0,1,.089-.133.434.434,0,0,1,.056-.047.565.565,0,0,1,.1-.08h0a.956.956,0,0,1,.055-.094.3.3,0,0,1,.035-.039.55.55,0,0,0,.059-.083.937.937,0,0,1,.094-.085,4.19,4.19,0,0,1,.567-.3.683.683,0,0,1,.2-.087c.164-.039.319-.1.479-.153a.161.161,0,0,1,.04-.006c.038,0,.077.023.114,0l.107-.032a.368.368,0,0,1,.132-.046.263.263,0,0,1,.039-.008,3.518,3.518,0,0,1,.374-.036,1.088,1.088,0,0,0-.332-.117.341.341,0,0,1-.139-.034.828.828,0,0,0-.21-.049c-.04-.006-.091,0-.108-.04s.029-.078.064-.1a.285.285,0,0,1,.034-.019.549.549,0,0,0,.116-.063.954.954,0,0,1,.292-.133.853.853,0,0,0,.209-.07l.034-.014c.077-.024.154-.047.229-.077l.036-.013c.054-.027.113-.009.169-.019l.157-.036a.276.276,0,0,1,.08-.039.237.237,0,0,1,.036-.01c.088-.018.177-.029.265-.05a.283.283,0,0,1,.042-.01c.156-.027.314-.023.47-.053a3.477,3.477,0,0,1,.41-.011c.048,0,.1,0,.144,0a.446.446,0,0,1,.094.011c.275.027.551.049.823.1l.147.028a1.375,1.375,0,0,1,.174.043c.063.054.155.032.218.086.015.02.035.018.057.015a.211.211,0,0,1,.233.076c.012.054-.02.073-.065.083a5.754,5.754,0,0,0-.99.386,8.046,8.046,0,0,0-1.91,1.159,7.6,7.6,0,0,0-1.568,1.759,6.152,6.152,0,0,0-.638,1.2,6.225,6.225,0,0,0-.323,1.14,5.693,5.693,0,0,0-.1,1.223,5.393,5.393,0,0,0,.228,1.44,8.149,8.149,0,0,0,.32.871,5.457,5.457,0,0,0,.842,1.32,8.3,8.3,0,0,0,.625.687,6.684,6.684,0,0,0,.688.562.142.142,0,0,0,.167.006,3.023,3.023,0,0,0,.348-.19c.05-.04.12-.042.176-.073a1.247,1.247,0,0,0,.144-.055.6.6,0,0,1,.118-.056,1.019,1.019,0,0,0,.156-.046l.035-.011a.737.737,0,0,0,.175-.054.453.453,0,0,1,.092-.033c.107-.017.211-.048.315-.076.054-.012.106-.026.16-.035a.6.6,0,0,0,.14-.019.249.249,0,0,1,.042-.008.637.637,0,0,0,.17-.026.237.237,0,0,1,.047-.007,9.463,9.463,0,0,1,1.6,0,.26.26,0,0,1,.046.006.434.434,0,0,0,.149.023.4.4,0,0,1,.083.011.635.635,0,0,0,.139.022.307.307,0,0,1,.04.008c.058.02.12.01.178.025s.092.018.138.028a.662.662,0,0,0,.139.021.277.277,0,0,1,.04.008,1.225,1.225,0,0,0,.281.043.316.316,0,0,1,.061.01.6.6,0,0,0,.137.022.291.291,0,0,1,.04.008.9.9,0,0,0,.18.019.256.256,0,0,1,.041.008.665.665,0,0,0,.189.014.452.452,0,0,1,.089.012,4.246,4.246,0,0,0,.562.039.6.6,0,0,1,.148.013,1.007,1.007,0,0,0,.286.015c.319,0,.638,0,.957,0a1.2,1.2,0,0,0,.284-.026.421.421,0,0,1,.073,0,1.144,1.144,0,0,0,.3-.011.356.356,0,0,1,.067-.011.986.986,0,0,0,.241-.017.543.543,0,0,1,.108-.012.647.647,0,0,0,.187-.012.337.337,0,0,1,.061-.01.509.509,0,0,0,.138-.017.263.263,0,0,1,.039-.008.867.867,0,0,0,.177-.019.265.265,0,0,1,.039-.008.672.672,0,0,0,.16-.021.261.261,0,0,1,.041-.008c.111,0,.219-.031.329-.044a.235.235,0,0,1,.04-.009.624.624,0,0,0,.14-.021c.053-.012.105-.027.159-.035a.528.528,0,0,0,.142-.021.3.3,0,0,1,.042-.01c.108-.014.214-.044.322-.06.044-.007.089-.024.132.005a1.949,1.949,0,0,1,.1.424,8.371,8.371,0,0,0,.978,2.646,4.364,4.364,0,0,0,2.1,1.894,3.767,3.767,0,0,0,1.677.263,1.667,1.667,0,0,0,1.349-.889,3.791,3.791,0,0,0,.44-1.231c.042-.2.065-.212.259-.156a11.072,11.072,0,0,0,1.784.355,13.465,13.465,0,0,0,2.119.055,8.958,8.958,0,0,0,1.546-.2.224.224,0,0,1,.135,0c.063.027.039.092.059.138a.616.616,0,0,0,.058.266,2.021,2.021,0,0,0,.081.308A.215.215,0,0,1-4511.275,413.884Z" transform="translate(-37.568 0)" fill="#f78f4e"/>
    <path id="Path_41538" data-name="Path 41538" d="M-3743.576,599.5c0-.015,0-.029,0-.044a2.358,2.358,0,0,1-.015-.455.951.951,0,0,0-.023-.226.242.242,0,0,1,.006-.07.948.948,0,0,0,.027-.232.277.277,0,0,1,.009-.04.386.386,0,0,0,.013-.138.256.256,0,0,1,.028-.137.3.3,0,0,0,.056-.163.094.094,0,0,1,.035-.07c.044-.016.013-.074.052-.092.021-.034.012-.077.03-.112a.243.243,0,0,1,.013-.031.353.353,0,0,0,.041-.11.138.138,0,0,1,.032-.061.263.263,0,0,0,.055-.107.636.636,0,0,1,.138-.222c.114-.1.183-.239.3-.339l.028-.025h0c.058-.052.1-.116.161-.168a.255.255,0,0,1,.026-.025c.045-.04.1-.07.142-.112a.267.267,0,0,1,.029-.022c.047-.027.087-.066.135-.094l.032-.019c.034-.019.065-.044.1-.064a2.387,2.387,0,0,1,2.563.064,2.5,2.5,0,0,1,.449.333,4.417,4.417,0,0,1,.9,1.075,11.4,11.4,0,0,1,1.453,3.6,10.227,10.227,0,0,1,.27,2.029c0,.145.03.29.025.436-.028.349-.029.7-.088,1.048a4.648,4.648,0,0,1-.433,1.35,1.773,1.773,0,0,1-1.423,1.009,3.715,3.715,0,0,1-1.474-.164,4.081,4.081,0,0,1-2.009-1.43,7.087,7.087,0,0,1-1.188-2.433c-.019-.066-.04-.131-.056-.2a.266.266,0,0,0-.028-.076.626.626,0,0,1-.059-.236.715.715,0,0,0-.035-.208.237.237,0,0,1-.01-.036c-.008-.079-.03-.156-.043-.235a.3.3,0,0,1-.009-.036.66.66,0,0,0-.024-.127.2.2,0,0,1-.009-.038,1.855,1.855,0,0,0-.024-.3.015.015,0,0,0,0-.021c-.03-.042.009-.105-.043-.141a.17.17,0,0,1-.02-.065c-.032-.3-.072-.6-.1-.894a.292.292,0,0,1-.013-.142c.011-.209-.028-.415-.029-.624A1.463,1.463,0,0,0-3743.576,599.5Z" transform="translate(-818.073 -192.209)" fill="#825233"/>
    <path id="Path_41539" data-name="Path 41539" d="M-3309.718,1042.3c-.79,0-1.58-.02-2.369,0a3.9,3.9,0,0,1-1.218-.209q-.542-.158-1.083-.318c-.117-.035-.233-.073-.35-.109-.037-.04-.092-.036-.137-.055a.414.414,0,0,1-.219-.055c-.306-.092-.263-.084-.09-.275a1.145,1.145,0,0,0,.159-.234c.093-.177.223-.328.314-.505a7.839,7.839,0,0,0,.352-.876c.045-.122.057-.256.1-.382.062-.2.074-.208.278-.179.051.006.1-.013.152.013l.047,0c.053.034.12-.018.172.026a.016.016,0,0,0,.021,0c.217.007.43.053.646.071a.2.2,0,0,1,.126.039h0c.042.03.095,0,.138.023l.073.006c.046.025.1-.005.147.024a.017.017,0,0,0,.021,0c.053.031.118-.008.171.026a.016.016,0,0,0,.02,0c.045.027.1,0,.144.023l.027,0a.25.25,0,0,1,.191.029h0a1.244,1.244,0,0,1,.331.053.021.021,0,0,0,.023,0c.052.032.117-.009.169.027h0c.069.039.152-.016.219.033l0,0c.043.027.1-.01.14.027h0a1.626,1.626,0,0,1,.5.08.034.034,0,0,0,.026,0,.509.509,0,0,1,.327.061.319.319,0,0,0,.163.019c.043.029.1,0,.141.024a.027.027,0,0,0,.024,0c.243.048.49.054.734.094a1.014,1.014,0,0,1,.253.079.318.318,0,0,0,.162.019c.043.029.1,0,.141.025a.025.025,0,0,0,.023,0c.043.03.1-.005.141.026a.026.026,0,0,0,.026,0,.415.415,0,0,1,.139.024.017.017,0,0,0,.021,0,.819.819,0,0,1,.28.05l.049,0c.044.029.1-.007.144.027a.024.024,0,0,0,.025,0,.315.315,0,0,1,.139.023h0c.042.031.1,0,.138.025a.017.017,0,0,0,.021,0c.044.028.1-.005.143.025l.052.009c.046.012.1-.01.139.023h0c.042.033.1-.016.14.025.056.044.122.025.184.031a.557.557,0,0,1,.31.052.013.013,0,0,0,.019,0c.048.012.1-.019.146.024a.014.014,0,0,0,.019,0c.045.027.1-.006.145.025h0c.042.032.095,0,.137.025l.028,0a.682.682,0,0,1,.165.027.015.015,0,0,0,.019,0c.054.03.119-.01.172.027h0c.052.033.115-.008.166.026a.02.02,0,0,0,.022,0c.036.023.077.006.115.016s.1-.005.141.012a.1.1,0,0,1,.037.02c.053.078-.012.127-.047.18a1.058,1.058,0,0,0,.041,1.186.287.287,0,0,0,.1.091.073.073,0,0,1,.037.112.048.048,0,0,1-.06,0l-.082.031a.152.152,0,0,1-.086.032c-.142.006-.283.03-.425.042a.419.419,0,0,1-.089.012,1.16,1.16,0,0,0-.262.013.285.285,0,0,1-.044.01,3.46,3.46,0,0,0-.435.023.406.406,0,0,1-.1.011,1.959,1.959,0,0,0-.442.022c-.173.021-.348-.008-.519.015-.242.033-.48-.019-.72-.007a.751.751,0,0,0-.268.033c-.1.04-.2-.006-.3-.006C-3309.108,1042.3-3309.413,1042.318-3309.718,1042.3Z" transform="translate(-1234.632 -623.173)" fill="#f7843d"/>
    <path id="Path_41540" data-name="Path 41540" d="M-4236.5,414.412a.094.094,0,0,0-.03.078,1.325,1.325,0,0,1-.055.141h0c-.042.1-.037.216-.118.3a.451.451,0,0,0-.074.218,1.033,1.033,0,0,1-.133.415.373.373,0,0,0-.06.214c-.03.063.012.144-.052.2a.61.61,0,0,0-.059.272.282.282,0,0,1-.046.221c0,.025-.005.05-.008.076-.028.044.005.1-.025.143l0,.048c-.03.054.008.118-.026.172a.019.019,0,0,0,0,.021c-.034.091.01.189-.025.28l0,.1a2.336,2.336,0,0,0,0,.532c0,.016,0,.033,0,.049.039.09-.008.189.027.28l0,.05c.029.043,0,.1.024.141a.026.026,0,0,0,0,.023c.03.044,0,.1.025.143a.023.023,0,0,0,0,.022,1.165,1.165,0,0,1,.108.414.131.131,0,0,0,.03.106c.056.055.054.133.077.2a.192.192,0,0,0,.048.133c.079.04.063.126.091.19a.676.676,0,0,0,.129.247c.056.029.06.091.088.137h0a2.453,2.453,0,0,1,.274.386l.037.048a.529.529,0,0,1,.209.224h0a.778.778,0,0,1,.2.209.02.02,0,0,0,.018.01c.072.031.14.068.151.157-.2.107-.4.218-.6.32-.064.032-.127-.029-.168-.063a7.91,7.91,0,0,1-.822-.7,7.221,7.221,0,0,1-1.158-1.541,8.528,8.528,0,0,1-.34-.784,5.1,5.1,0,0,1-.332-1.319,6.265,6.265,0,0,1-.021-1.157c.025-.341.126-.667.152-1.006a.992.992,0,0,1,.078-.215,7.3,7.3,0,0,1,.412-1.043,8.611,8.611,0,0,1,.829-1.3,6.78,6.78,0,0,1,1.155-1.179,7.078,7.078,0,0,1,1.008-.706,7.475,7.475,0,0,1,1.044-.52,6.911,6.911,0,0,1,.916-.345s0-.017.006-.025c.056-.043.106-.015.157.012.044.072-.018.111-.05.159-.022.023-.046.045-.067.07-.2.25-.414.485-.594.75a.372.372,0,0,1-.058.075,5.492,5.492,0,0,0-.353.47.457.457,0,0,1-.035.045c-.081.112-.165.222-.239.338-.01.016-.021.031-.032.046-.1.15-.2.3-.3.45a1.013,1.013,0,0,1-.083.122c-.069.116-.147.226-.217.341-.012.021-.023.043-.036.064a2.771,2.771,0,0,0-.157.266q-.016.033-.035.065c-.066.1-.125.211-.184.318-.021.037-.039.075-.058.113s-.057.091-.082.139a.332.332,0,0,1-.071.1l-.055.082a.036.036,0,0,1,0,.033.93.93,0,0,1-.062.147c0,.011-.011.021-.017.031-.031.048-.042.111-.1.142a.219.219,0,0,0-.056.136.1.1,0,0,1-.054.11.155.155,0,0,0-.049.11A.593.593,0,0,1-4236.5,414.412Z" transform="translate(-336.132 -10.74)" fill="#fa9758"/>
    <path id="Path_41541" data-name="Path 41541" d="M-3992.045,1173.606l-.117-.01c.126-.07.226-.129.328-.183a4.891,4.891,0,0,0,1.193-.908.287.287,0,0,1,.205-.083c.434-.03.867-.07,1.3-.1.163-.013.327-.016.49-.025.345-.02.69-.048,1.037-.035.177.007.356-.025.53-.019.442.016.885,0,1.325.027.483.032.967.064,1.449.122.715.085,1.425.2,2.137.306a10.787,10.787,0,0,0,2.081.111,1.824,1.824,0,0,1,.552.132c.268.067.535.136.8.2.308.074.615.154.929.2.028,0,.053.032.08.048-.076.114-.218.077-.317.137a.11.11,0,0,1-.121,0l-.247.054a1.6,1.6,0,0,1-.461.121.279.279,0,0,1-.04.011c-.047.007-.093.013-.14.022-.057-.013-.1.053-.158.031a.228.228,0,0,0-.182.024.109.109,0,0,1-.063-.005.429.429,0,0,0-.165.01v0a.153.153,0,0,1-.042.03,11.67,11.67,0,0,1-1.5.036.269.269,0,0,1-.047-.007.819.819,0,0,0-.241-.021.246.246,0,0,1-.064-.013.246.246,0,0,0-.179-.035l-.041,0a1.81,1.81,0,0,0-.182-.015.273.273,0,0,1-.04-.008,1.169,1.169,0,0,0-.2-.023.259.259,0,0,1-.041-.009c-.215-.037-.432-.063-.648-.1a.264.264,0,0,1-.04-.009.983.983,0,0,0-.138-.025.1.1,0,0,1-.035-.02c-.045-.042-.108,0-.154-.031l-.052-.006a.735.735,0,0,1-.15,0,.221.221,0,0,1-.044-.008c-.442-.062-.885-.113-1.33-.156a.145.145,0,0,1-.038-.028h0c-.1-.035-.205.011-.3-.026l-.048,0c-.148-.021-.3.006-.446-.028h-.045a3.718,3.718,0,0,0-.436-.012.325.325,0,0,1-.148-.013l-.184,0a8.678,8.678,0,0,0-1,0h-.1a3.819,3.819,0,0,1-.54.019c-.075,0-.153,0-.229.006l-.135,0c-.138.035-.281-.006-.42.024h-.045c-.128.042-.263-.009-.391.027l-.1,0a12.2,12.2,0,0,1-1.233.106l-.027,0c-.062.044-.135,0-.2.023l-.074,0c-.071.031-.15-.009-.221.024h0c-.072.04-.154-.006-.227.027l-.047,0c-.064.033-.136-.005-.2.025l-.047,0c-.06.043-.131,0-.194.026h0A.278.278,0,0,1-3992.045,1173.606Z" transform="translate(-576.336 -752.674)" fill="#f78540"/>
    <path id="Path_41542" data-name="Path 41542" d="M-4425.989,1236.813c.061-.067.139-.05.217-.052a10.021,10.021,0,0,1,1.822.186c.433.07.87.111,1.308.152.325.03.65.038.973.067.007,0,.013.021.019.032-.021.033-.061.005-.084.028h0a.835.835,0,0,1-.415.083.178.178,0,0,1-.1.032c-.035.019-.075.008-.11.022l-.026,0a.782.782,0,0,1-.168.051h0a.976.976,0,0,1-.358.111c-.042.048-.116.01-.158.059-.045.021-.093.034-.14.052h0c-.055.074-.144.058-.217.085h0a.045.045,0,0,1-.055.023l-.195.078c-.06.088-.159.092-.248.118l-.048.028a.283.283,0,0,1-.117.054.086.086,0,0,0-.075.033.543.543,0,0,1-.307.159l-.05.033a.315.315,0,0,1-.087.047v0a.431.431,0,0,1-.245.139h0a.391.391,0,0,1-.145.083l-.045.033a2.479,2.479,0,0,1-.558.351l-.159.1a.794.794,0,0,1-.324.229h0a1.125,1.125,0,0,1-.339.243l-.1.075a.488.488,0,0,1-.272.2l-.028.021a.52.52,0,0,1-.269.2c-.029,0-.044.023-.059.044a1.012,1.012,0,0,1-.354.256h0a.182.182,0,0,1-.179.094c-.053-.037-.03-.089-.027-.137a1.681,1.681,0,0,0-.114-.83.768.768,0,0,0-.134-.2.208.208,0,0,0-.332-.03c-.027.02-.049.059-.093.034,0,0,0-.007,0-.011a.123.123,0,0,1,0-.013,2.247,2.247,0,0,1,.476-.644,22.252,22.252,0,0,1,1.891-1.7A.175.175,0,0,1-4425.989,1236.813Z" transform="translate(-152.055 -815.427)" fill="#f7843d"/>
    <path id="Path_41543" data-name="Path 41543" d="M-3083.3,1178.365c.059-.048.119,0,.18,0a1.418,1.418,0,0,0,.377-.044.493.493,0,0,1-.388-.446,1.06,1.06,0,0,1,.146-.9c.045-.062.037-.162.123-.205a1.642,1.642,0,0,1,1.3-.683.873.873,0,0,1,.15.057.1.1,0,0,1,.05.059l.056.047a.274.274,0,0,1,.174.236.039.039,0,0,1,0,.036c0,.009,0,.019,0,.028a.119.119,0,0,1,.056.092.9.9,0,0,1-.006.218.364.364,0,0,0-.03.118,1.209,1.209,0,0,1-.127.317c-.005.011-.011.022-.017.033-.019.031-.034.064-.05.1a.263.263,0,0,1-.02.032,3.9,3.9,0,0,1-.561.61.3.3,0,0,1-.031.022,2.758,2.758,0,0,1-.343.224l-.034.018c-.042.018-.082.041-.125.056a.446.446,0,0,1-.251.018c-.066-.062-.125,0-.187.011a.493.493,0,0,1-.333-.032h-.055a.038.038,0,0,1-.05.011.024.024,0,0,1-.01-.021C-3083.305,1178.369-3083.3,1178.365-3083.3,1178.365Z" transform="translate(-1460.289 -756.42)" fill="#f99251"/>
    <path id="Path_41544" data-name="Path 41544" d="M-2950.964,1065.943c.01-.108-.105-.1-.152-.162a.99.99,0,0,1-.2-.55.94.94,0,0,1,.208-.762.066.066,0,0,0,.013-.086c.138-.128.257-.276.4-.4a.387.387,0,0,1,.177-.094l.051-.052.172-.083c.025-.084.107-.067.165-.092a1.2,1.2,0,0,1,.366-.03.364.364,0,0,1,.311.169h0a.406.406,0,0,1,.19.273,1.625,1.625,0,0,1-.044.561.614.614,0,0,1-.041.1.288.288,0,0,1-.082.111l-.03.047c0,.017-.007.035-.012.052a1.125,1.125,0,0,1-.084.135l-.021.028c-.021.027-.037.058-.06.083l-.061.065a4.512,4.512,0,0,1-.452.424c-.038.031-.08.056-.119.085a.893.893,0,0,0-.122.073.226.226,0,0,1-.031.019,1.841,1.841,0,0,1-.208.073.14.14,0,0,1-.039,0,.778.778,0,0,0-.2.022C-2950.9,1065.956-2950.934,1065.967-2950.964,1065.943Z" transform="translate(-1588.654 -647.046)" fill="#f99251"/>
    <path id="Path_41545" data-name="Path 41545" d="M-4583.693,1236.394c.361.122.411.415.412.739a1.287,1.287,0,0,1-.1.591c-.02.041-.022.089-.072.119l.064.006a.693.693,0,0,1-.17.189h0c-.022.025-.013.073-.06.079l-.024.026a.434.434,0,0,1-.222.222l-.1.087c-.047.093-.143.082-.223.105h0a.366.366,0,0,1-.493-.3c-.051-.049,0-.114-.028-.167a.3.3,0,0,1,0-.247.017.017,0,0,0,0-.02c.027-.045-.006-.1.024-.144a.352.352,0,0,1,.057-.188.48.48,0,0,1,.137-.305l.035-.051a.481.481,0,0,1,.2-.278.861.861,0,0,1,.2-.22A.71.71,0,0,1-4583.693,1236.394Z" transform="translate(0 -815.072)" fill="#f99251"/>
    <path id="Path_41546" data-name="Path 41546" d="M-4450.026,1323.028c.037.032.044-.008.06-.025a.235.235,0,0,1,.383.005,1.026,1.026,0,0,1,.246.547,1.7,1.7,0,0,1,0,.608c0,.013.014.031.022.046.009.072-.054.109-.079.164s-.059.125-.087.187-.029.159-.119.193l-.018.026a.558.558,0,0,1-.356.333h0a.329.329,0,0,1-.327.005.029.029,0,0,0-.022-.007.258.258,0,0,1-.171-.183l-.052-.115a.092.092,0,0,1-.023-.084c-.063-.054.008-.132-.033-.19a.913.913,0,0,1,.055-.6.563.563,0,0,1,.084-.24.48.48,0,0,1,.138-.279Z" transform="translate(-130.436 -899.215)" fill="#f78f4e"/>
    <path id="Path_41547" data-name="Path 41547" d="M-3689.928,489.482a.1.1,0,0,0,.047-.086l.031-.058a.488.488,0,0,0,.116-.183c.023-.143.152-.223.205-.348a.255.255,0,0,1,.087-.114.314.314,0,0,0,.058-.063.288.288,0,0,1,.023-.026c.021-.021.042-.042.061-.064l.023-.028a6.288,6.288,0,0,1,.654-.658.25.25,0,0,1,.039-.038.464.464,0,0,1,.1-.065l.028-.026c.021-.031.036-.068.072-.087.16-.1.3-.234.459-.34.063-.048.134-.086.193-.139a.261.261,0,0,1,.129-.065l.081-.052c.015-.05.058-.068.1-.087.174-.095.342-.2.515-.295a.429.429,0,0,1,.139-.064.875.875,0,0,0,.19-.074.32.32,0,0,1,.069-.031c.054-.026.115-.006.17-.025l.212-.059a1.512,1.512,0,0,1,.446-.094c.125,0,.25-.006.376-.014h0a.059.059,0,0,1,.039-.015,4.261,4.261,0,0,1,1.958.6c.307.172.605.357.9.555a.59.59,0,0,1,.167.141c.04.1-.037.109-.1.123a1.178,1.178,0,0,0-.365.147.862.862,0,0,0-.248,1.163.368.368,0,0,0,.356.185,2.365,2.365,0,0,0,.351-.055,9.177,9.177,0,0,0,1.383-.426.25.25,0,0,1,.133-.027c.12.061.048.093-.019.126a.833.833,0,0,0-.6.566.812.812,0,0,0,.5,1,.815.815,0,0,0,1.027-.436.778.778,0,0,0,.067-.44.14.14,0,0,1,.008-.106c.072-.033.122.017.174.049a8.354,8.354,0,0,0,2.456,1.075.5.5,0,0,1,.141.052l.033.026h0a1.04,1.04,0,0,1,.436.2.158.158,0,0,0,.107.052c.082.032.174.046.224.132a1.207,1.207,0,0,0,.244.168c.037.027.1.026.109.086l.028.024a.556.556,0,0,1,.2.136,3.878,3.878,0,0,1,.6.688,1.87,1.87,0,0,1,.327.6c0,.021,0,.041.021.053a.478.478,0,0,1,.143.331.027.027,0,0,0,.005.023.137.137,0,0,1,.048.139.5.5,0,0,0,.052.192.262.262,0,0,1,.039.164,1.734,1.734,0,0,1-1.414-.142,1.887,1.887,0,0,1-.317-.189.236.236,0,0,1-.1-.126c0-.066.048-.107.085-.151a.78.78,0,0,0,.151-.77,2.261,2.261,0,0,0-.348-.648.283.283,0,0,0-.243-.1,1.932,1.932,0,0,0-1.033.317,1.839,1.839,0,0,0-.577.476.564.564,0,0,0,.053.821,1.427,1.427,0,0,0,1.223.38,1.342,1.342,0,0,1,.189-.029c.087.015.1.089.112.154a1.886,1.886,0,0,1-.892,2.135,3.177,3.177,0,0,1-.5.246,4.507,4.507,0,0,1-.548.163,1.281,1.281,0,0,0,1.108-.09c.184-.034.371-.017.557-.038a3.044,3.044,0,0,0,2.152-1.255,1.639,1.639,0,0,0,.287-.673c.035-.054-.017-.172.114-.156a.176.176,0,0,1,.038.172.416.416,0,0,0,.006.2v.315a2.1,2.1,0,0,0-.011.274c0,.025,0,.054-.028.067-.031-.007-.031-.037-.05-.067a3.312,3.312,0,0,1-.671.931,5.758,5.758,0,0,1-1.535,1.039,9.178,9.178,0,0,1-2.729.772c-.279.037-.561.062-.844.076q-.554.027-1.108.02a10.836,10.836,0,0,1-2.171-.252.359.359,0,0,1-.115-.041.594.594,0,0,1-.083-.391,11.114,11.114,0,0,0-.366-2.235,10.52,10.52,0,0,0-.364-1.146,9.65,9.65,0,0,0-.723-1.544.213.213,0,0,1-.044-.113.131.131,0,0,1,.054-.091,4.021,4.021,0,0,0,.839-1.089c.139-.236.262-.481.378-.728a.469.469,0,0,0-.276-.7.9.9,0,0,0-1.276.693,3.2,3.2,0,0,0-.073.869c0,.1,0,.192,0,.287-.036.116-.048.122-.119.043s-.153-.18-.231-.269a3.415,3.415,0,0,0-.9-.763c-.1-.055-.194-.118-.291-.177a3.2,3.2,0,0,0-1.032-.6,2.333,2.333,0,0,0-1.888.183c-.028.015-.058.026-.087.039Z" transform="translate(-870.211 -85.516)" fill="#f78f4e"/>
    <path id="Path_41548" data-name="Path 41548" d="M-3514.605,449.539a7.645,7.645,0,0,0-1.968-1.078,3.265,3.265,0,0,0-.961-.183.128.128,0,0,1-.091-.022c-.013-.03.009-.044.028-.06l.032-.055c.05-.05.055-.136.133-.164l.03-.032a.55.55,0,0,1,.254-.233h0a.319.319,0,0,1,.194-.143l.184-.116a1.212,1.212,0,0,1,.479-.184l.009,0,.007-.006a.985.985,0,0,1,.249-.054h0c.078-.054.169.014.248-.028h0a.656.656,0,0,1,.327,0h0c.081.028.169-.01.25.027l.008.006.009,0a.8.8,0,0,1,.257.05.163.163,0,0,0,.131.032,1.318,1.318,0,0,1,.552.2l.243.105a.267.267,0,0,1,.115.055h0a.224.224,0,0,1,.163.092l.3.18c.032.024.089.008.1.062v0c.057.035.142.032.166.116.032.03.056.073.108.073a1.849,1.849,0,0,1,.523.393l.055.045a.168.168,0,0,1,.082.061l0,0a.351.351,0,0,1,.165.138h0a.228.228,0,0,1,.143.132l.129.112c.078.012.11.074.146.133h0a1.518,1.518,0,0,1,.3.3l0,0a1.183,1.183,0,0,1,.214.22h0a1.07,1.07,0,0,1,.325.362.08.08,0,0,0,.049.053c.052.052.121.091.142.17l.018.023a.231.231,0,0,1,.118.138h0a.217.217,0,0,1,.111.142l.159.212c.044.01.049.049.062.082l.018.027a.533.533,0,0,1,.144.2c0,.037.024.054.048.075a.146.146,0,0,1,.061.083v0a.18.18,0,0,1,.056.083v0a.3.3,0,0,1,.111.173c0,.02,0,.039.025.046.045.053.1.1.111.173s.074.12.1.185c.077.027.068.1.094.161a.219.219,0,0,0,.058.108c.043.016.033.06.048.092a.151.151,0,0,0,.05.1c.04.046.084.091.065.161a8.534,8.534,0,0,1-2.635-1.133c-.042-.027-.089-.047-.133-.07s-.061-.064-.08-.1a.8.8,0,0,0-.838-.477c-.037,0-.073.007-.1-.026,0-.031.134-.011.03-.081a1.452,1.452,0,0,1-.431-.279c-.3-.216-.592-.439-.89-.656A1.415,1.415,0,0,1-3514.605,449.539Z" transform="translate(-1037.867 -47.468)" fill="#825233"/>
    <path id="Path_41549" data-name="Path 41549" d="M-3738.937,852.263a8.887,8.887,0,0,0,.626,1.659,5.434,5.434,0,0,0,1.049,1.456,3.8,3.8,0,0,0,2.272,1.087,3.029,3.029,0,0,0,.951-.015,1.756,1.756,0,0,0,1.182-.937,4,4,0,0,0,.418-1.264.35.35,0,0,1,.023-.062c.055-.044.112-.022.168-.006.231.065.464.123.7.173a14.6,14.6,0,0,0,1.9.238,14.638,14.638,0,0,0,2.071-.066c.138-.011.274-.086.416-.019.082.044.073.131.094.2v0a.9.9,0,0,1,.055.143c0,.028-.007.058.021.078a.638.638,0,0,1,.09.246c0,.029-.01.061.02.083.07.048.031.131.062.191h0a.057.057,0,0,1,0,.081c-.183.029-.366.061-.55.087-.314.045-.628.083-.945.11-.479.041-.957.023-1.435.019a9.677,9.677,0,0,1-1.635-.173,8.046,8.046,0,0,1-1.072-.258c-.122-.04-.153,0-.174.117a3.539,3.539,0,0,1-.51,1.371,1.729,1.729,0,0,1-1.513.815,3.837,3.837,0,0,1-2.433-.817,4.87,4.87,0,0,1-1.2-1.4,8.583,8.583,0,0,1-.927-2.467,2.363,2.363,0,0,1-.1-.575c.013-.023.042-.012.057-.028h0c.073-.064.167-.029.249-.055h0C-3738.99,852.246-3738.964,852.253-3738.937,852.263Z" transform="translate(-822.253 -441.457)" fill="#d17744"/>
    <path id="Path_41550" data-name="Path 41550" d="M-3452.706,798.449a.216.216,0,0,0-.172-.023,9.5,9.5,0,0,1-1.2.113c-.259.014-.518.027-.776.018a11.811,11.811,0,0,1-1.968-.207.971.971,0,0,1-.287-.064.182.182,0,0,1-.015-.145,8.791,8.791,0,0,0,.033-.886c.017-.028.04-.026.064-.01.343.061.685.128,1.03.182.206.032.414.046.622.064a11.16,11.16,0,0,0,1.393.024,11.5,11.5,0,0,0,1.836-.2,8.738,8.738,0,0,0,1.221-.32,6.691,6.691,0,0,0,1.7-.836,5.479,5.479,0,0,0,.711-.585,2.54,2.54,0,0,0,.5-.658c.051-.1.15-.185.146-.335.073.073.032.145.05.2a.593.593,0,0,1-.082.46.122.122,0,0,0-.032.107c-.034.05.021.132-.061.164l-.077.189c-.02.037-.005.093-.059.112-.023.011-.025.032-.024.053-.014.054-.021.112-.08.141h0a1.226,1.226,0,0,1-.312.472,2.6,2.6,0,0,1-.7.6l-.22.155c-.067.117-.192.146-.3.2h0a.672.672,0,0,1-.3.166h0a.726.726,0,0,1-.356.167h0a.219.219,0,0,1-.12.055.294.294,0,0,0-.125.055c-.046.046-.112.035-.166.058h0c-.036.049-.1.032-.141.054l-.1.033a.414.414,0,0,1-.222.076h0c-.053.057-.129.037-.193.057a.1.1,0,0,0-.08.028c-.034.028-.078.009-.115.025a.155.155,0,0,1-.1.034,1.488,1.488,0,0,1-.221.05h0c-.041.036-.1,0-.138.029h0C-3452.327,798.4-3452.528,798.376-3452.706,798.449Z" transform="translate(-1096.705 -385.364)" fill="#f28845"/>
    <path id="Path_41551" data-name="Path 41551" d="M-3065.927,554.189a.351.351,0,0,0,.029.162c.032.052-.007.115.025.168,0,.026,0,.053,0,.079a.138.138,0,0,1,.018.121c-.116.126-.238.246-.36.365a5.078,5.078,0,0,1-1.566,1.073c-.083.038-.165.077-.246.118a7.369,7.369,0,0,1-1.81.458,5.543,5.543,0,0,1-.789.046.994.994,0,0,0-.309.017c-.052.009-.069-.028-.086-.066h0c-.087-.049-.106-.149-.167-.218h0a.3.3,0,0,1-.086-.13l-.026-.033a.2.2,0,0,1-.052-.091l-.033-.073a.5.5,0,0,1-.146-.319c.066-.069.151.021.22-.026a9.215,9.215,0,0,0,1.726-.1,5.009,5.009,0,0,0,1.1-.284,4.694,4.694,0,0,0,1.367-.789,4.608,4.608,0,0,0,.508-.5,4.2,4.2,0,0,0,.376-.5c.02-.033.033-.079.089-.064l.045.06c.1.047.056.148.089.221a.021.021,0,0,0,0,.021C-3065.923,553.988-3065.949,554.1-3065.927,554.189Z" transform="translate(-1471.746 -150.993)" fill="#fac35b"/>
    <path id="Path_41552" data-name="Path 41552" d="M-3040.671,493.775q-.2.266-.39.531a.375.375,0,0,1-.049.046,2.846,2.846,0,0,0-.973-.993,2.813,2.813,0,0,0-1.339-.425,3.042,3.042,0,0,0-1.556.341,1.319,1.319,0,0,0-.2.125c-.04.029-.076.069-.133.051a1.062,1.062,0,0,1,.015-.477c0-.048.025-.1.026-.146a.165.165,0,0,1,.133-.141h0a.307.307,0,0,1,.2-.139l.045-.035a1.159,1.159,0,0,1,.471-.239l0,0a.087.087,0,0,1,.081-.03l.026-.008a.515.515,0,0,1,.309-.11c.053-.01.109.007.159-.021h0c.044-.035.1,0,.146-.027l.045,0a3.306,3.306,0,0,1,.63,0l.075,0c.14.024.292-.009.416.089.023.027.054.019.083.019a.375.375,0,0,1,.22.079.09.09,0,0,0,.079.032,1,1,0,0,1,.412.224c.009.023.029.025.05.025a.241.241,0,0,1,.172.134c.015.035.051.039.078.056a1.5,1.5,0,0,1,.359.357l.047.054a.179.179,0,0,1,.063.083l.02.028a.752.752,0,0,1,.254.408h0c.032.019,0,.061.029.082A.11.11,0,0,0-3040.671,493.775Z" transform="translate(-1497.222 -91.132)" fill="#fab22c"/>
    <path id="Path_41553" data-name="Path 41553" d="M-3340.593,987.44c-.114-.011-.185.007-.228.146-.051.166-.082.337-.125.5-.031.117-.128.193-.138.318a1.342,1.342,0,0,1-.277.62,3.958,3.958,0,0,1-.292.453,2.047,2.047,0,0,0-.237.307l.2.1a5.914,5.914,0,0,1-.651-.177,2.592,2.592,0,0,1-.263-.069c-.063-.019-.085-.04-.021-.1.146-.135.288-.276.426-.42a5.2,5.2,0,0,0,.785-1.053,5.422,5.422,0,0,0,.583-1.456c.022-.1.049-.192.074-.288a.346.346,0,0,0,.027-.274c.007-.028-.016-.062.014-.083,0,0,.026.019.04.029a3.636,3.636,0,0,1,0,.712l0,.046c-.036.073.017.156-.026.227a.015.015,0,0,0,0,.02,1.617,1.617,0,0,1-.052.309c0,.029-.041.054-.01.087.048.016.1-.006.147.025a.013.013,0,0,0,.018,0A.016.016,0,0,1-3340.593,987.44Z" transform="translate(-1208.033 -571.501)" fill="#f78540"/>
    <path id="Path_41554" data-name="Path 41554" d="M-3050.2,649.057c0-.04.03-.061.064-.05a1.094,1.094,0,0,0,.239,0,1.644,1.644,0,0,0,.472.362,2.866,2.866,0,0,0,3.389-.339,3.536,3.536,0,0,0,.425-.48c.032-.042.052-.1.12-.1.039.119-.076.167-.115.25l-.02.029a.46.46,0,0,1-.187.249l0,0c-.018.026-.016.069-.06.075h0c-.016.039-.037.075-.084.083l-.109.1c-.021.085-.093.113-.163.142h0c-.018.052-.071.059-.111.083h0c-.017.056-.064.069-.113.081l-.047.034c-.04.08-.131.068-.194.106h0a.768.768,0,0,1-.365.163l-.045.01a.35.35,0,0,1-.225.073h-.011l-.01,0c-.088.075-.2.057-.3.067a.979.979,0,0,0-.23.013l-.1,0a.286.286,0,0,1-.192,0l-.011,0-.011,0c-.091-.033-.191.038-.279-.026l-.01,0-.011,0a1.3,1.3,0,0,1-.526-.131c-.031-.007-.067,0-.09-.031-.041-.025-.1,0-.129-.057h0c-.036-.02-.086-.01-.112-.052l-.059-.029c-.022-.023-.068-.01-.079-.05a.025.025,0,0,0-.02-.007.372.372,0,0,1-.115-.076l-.06-.032a.249.249,0,0,1-.155-.113h0a.312.312,0,0,1-.164-.138h0C-3050.1,649.227-3050.189,649.176-3050.2,649.057Z" transform="translate(-1492.485 -243.239)" fill="#f4b250"/>
    <path id="Path_41555" data-name="Path 41555" d="M-3192.845,732.11a.466.466,0,0,0,.2.179,1.983,1.983,0,0,0,1.128.344,2.371,2.371,0,0,0,.321-.049c.05-.009.1-.049.156-.006a.052.052,0,0,1,.028.057l.008.19c.025.023.053.045.022.082-.1.019-.019.126-.079.166a.127.127,0,0,0-.162-.054,1.693,1.693,0,0,1-.677.056,1,1,0,0,1-.556-.241,2.479,2.479,0,0,1-.544-.551C-3193.01,732.169-3192.945,732.124-3192.845,732.11Z" transform="translate(-1353.602 -324.605)" fill="#d17744"/>
    <path id="Path_41556" data-name="Path 41556" d="M-3072.953,519.521c.056.026.028.078.019.106a2.437,2.437,0,0,0-.065.527.091.091,0,0,1-.024.053,3.173,3.173,0,0,0-.683.739c-.02.033-.04.091-.1.045a.879.879,0,0,1,.077-.364.468.468,0,0,1,.149-.336.02.02,0,0,0,.009-.021,1.466,1.466,0,0,1,.447-.6.013.013,0,0,0,.015-.011C-3073.072,519.594-3073.036,519.53-3072.953,519.521Z" transform="translate(-1469.526 -117.841)" fill="#f2a52d"/>
    <path id="Path_41557" data-name="Path 41557" d="M-3078.9,559.321c0,.135-.067.257-.077.39.051.092.011.188.005.279a2.867,2.867,0,0,0,.2,1.294c.019.048.055.1.013.153s-.106,0-.16,0c-.018,0-.02-.019-.028-.031a.377.377,0,0,1-.057-.16,1.443,1.443,0,0,1-.133-.57,3.017,3.017,0,0,1,.023-.5l0-.077c.031-.053-.008-.117.025-.17,0-.015,0-.03,0-.046a.925.925,0,0,1,.053-.228h0c.034-.059-.014-.143.056-.191h0c.024-.044.006-.1.054-.138h0A.015.015,0,0,1-3078.9,559.321Z" transform="translate(-1464.344 -156.548)" fill="#f4b351"/>
    <path id="Path_41558" data-name="Path 41558" d="M-2877.694,625.932a.249.249,0,0,0-.054.138c-.018.037-.013.1-.081.083-.033-.149.047-.289.032-.437a.137.137,0,0,1,.021-.058c.057-.036.1-.1.186-.069.042.105-.026.182-.07.264h0C-2877.687,625.871-2877.643,625.924-2877.694,625.932Z" transform="translate(-1660.129 -220.993)" fill="#f3a72f"/>
    <path id="Path_41559" data-name="Path 41559" d="M-2983.474,490.544l-.629,0A1.543,1.543,0,0,1-2983.474,490.544Z" transform="translate(-1556.774 -89.628)" fill="#faf9f8"/>
    <path id="Path_41560" data-name="Path 41560" d="M-3578.757,627.517h-.055a.4.4,0,0,1-.223-.036c-.144-.037-.283-.091-.428-.124a.2.2,0,0,1-.146-.087,11.849,11.849,0,0,0-.661-3.748,9.614,9.614,0,0,0-1.444-2.792,4.416,4.416,0,0,0-.521-.557,2.682,2.682,0,0,1,.753.462,6.246,6.246,0,0,1,.7.736l.035.04c0-.006.012-.012.014-.019a.373.373,0,0,0,0-.041c.072.01.057.071.063.116a3.457,3.457,0,0,0,.058.374c.029.123.081.222.23.22a.077.077,0,0,1,.059.029c.082.15.168.3.246.451.173.341.321.692.462,1.048.131.331.239.668.35,1a10.4,10.4,0,0,1,.273,1.078,6.351,6.351,0,0,1,.122.833c.025.316.055.632.084.948A.252.252,0,0,0-3578.757,627.517Z" transform="translate(-975.031 -215.735)" fill="#eb8a4c"/>
    <path id="Path_41561" data-name="Path 41561" d="M-3489.331,879.188l.8.247a2.151,2.151,0,0,1,.014.692,1,1,0,0,1-.042.349,4.956,4.956,0,0,1-.694-.164.444.444,0,0,0-.158-.029Q-3489.373,879.736-3489.331,879.188Z" transform="translate(-1065.308 -467.653)" fill="#e88242"/>
    <path id="Path_41562" data-name="Path 41562" d="M-3264.589,671.715c-.049.052-.14.07-.134.167a.552.552,0,0,0-.135.093,1.415,1.415,0,0,1-.249.072,1.464,1.464,0,0,1-1.48-.4.558.558,0,0,1-.066-.739,2.246,2.246,0,0,1,1.667-.894.346.346,0,0,1,.351.186,2.9,2.9,0,0,1,.3.568.836.836,0,0,1-.187.874C-3264.548,671.667-3264.568,671.691-3264.589,671.715Z" transform="translate(-1281.858 -264.21)" fill="#884a33"/>
    <path id="Path_41563" data-name="Path 41563" d="M-3233.932,737.877c.029-.056.053-.121.139-.083a3.457,3.457,0,0,0,.645.6,1.222,1.222,0,0,0,.878.154,1.013,1.013,0,0,0,.263-.062c.115-.046.144-.005.134.1a2.005,2.005,0,0,1-.738,1.181,3.034,3.034,0,0,1-1.57.749,4.337,4.337,0,0,1-.709.04c-.121-.034-.065-.1-.02-.149.11-.121.229-.234.331-.364a3.042,3.042,0,0,0,.65-1.309,1.713,1.713,0,0,0-.006-.731C-3233.944,737.965-3233.965,737.92-3233.932,737.877Z" transform="translate(-1312.788 -330.122)" fill="#79452d"/>
    <path id="Path_41564" data-name="Path 41564" d="M-3526.984,593.34c-.242.006-.325-.084-.356-.371a1.588,1.588,0,0,0-.053-.368,4.277,4.277,0,0,1,.08-1.193,1.048,1.048,0,0,1,.607-.74.908.908,0,0,1,1.038.32.338.338,0,0,1,.023.338,8.475,8.475,0,0,1-.766,1.382A3.42,3.42,0,0,1-3526.984,593.34Z" transform="translate(-1028.367 -186.985)" fill="#c3723f"/>
    <path id="Path_41565" data-name="Path 41565" d="M-3439.628,530.172c.223.162.447.322.67.485.289.212.576.426.864.638-.291.1-.577.221-.875.3a5.54,5.54,0,0,1-1.02.224.374.374,0,0,1-.375-.225.9.9,0,0,1,.624-1.34C-3439.69,530.245-3439.612,530.271-3439.628,530.172Z" transform="translate(-1112.899 -128.2)" fill="#c3723f"/>
    <path id="Path_41566" data-name="Path 41566" d="M-3377.98,573.392a.839.839,0,0,1,.674.129.931.931,0,0,1,.344.478.863.863,0,0,1-.638,1.049.855.855,0,0,1-1.025-.652A.847.847,0,0,1-3377.98,573.392Z" transform="translate(-1173.043 -170.215)" fill="#573324"/>
    <path id="Path_41567" data-name="Path 41567" d="M-3480.149,667.349a.87.87,0,0,1-.853.86.866.866,0,0,1-.856-.842.849.849,0,0,1,.845-.86A.853.853,0,0,1-3480.149,667.349Z" transform="translate(-1072.657 -260.8)" fill="#573324"/>
    <path id="Path_41568" data-name="Path 41568" d="M-3273.882,741.014a2.124,2.124,0,0,1-.3,1.73,3.691,3.691,0,0,1-.647.822c-.039.038-.105.078-.014.132a1.18,1.18,0,0,1-1.2.058c.167-.048.328-.088.483-.14a2.1,2.1,0,0,0,1.511-1.423,1.933,1.933,0,0,0-.019-1.022c-.009-.035-.016-.074-.065-.075C-3274.045,741.069-3273.982,740.985-3273.882,741.014Z" transform="translate(-1272.838 -333.259)" fill="#d17844"/>
    <path id="Path_41569" data-name="Path 41569" d="M-3045.462,522.016l.028-.028a2.849,2.849,0,0,1,1.08-.49,2.892,2.892,0,0,1,.936-.051,2.729,2.729,0,0,1,1.082.338,3.2,3.2,0,0,1,1.044.941.271.271,0,0,1,.049.167,4.269,4.269,0,0,1-1.156.96,5.522,5.522,0,0,1-1.748.626.326.326,0,0,1-.055,0c-.155-.165-.337-.3-.49-.47a2.838,2.838,0,0,1-.749-1.617A1.156,1.156,0,0,1-3045.462,522.016Z" transform="translate(-1497.087 -119.699)" fill="#f8ab15"/>
    <path id="Path_41570" data-name="Path 41570" d="M-3035.1,629.608c0,.016,0,.031-.006.047a.044.044,0,0,0-.02.006c-.148.146-.263.32-.4.473a2.64,2.64,0,0,1-.972.658,2.871,2.871,0,0,1-2.378-.077,3.417,3.417,0,0,1-.615-.4c-.032-.025-.085-.05-.044-.109.153,0,.306.007.458-.006a7.847,7.847,0,0,0,1.4-.245c.258-.071.509-.163.764-.245a1.49,1.49,0,0,1,.417-.054,2.988,2.988,0,0,0,1.311-.469c.041-.027.083-.06.137-.024A2.673,2.673,0,0,1-3035.1,629.608Z" transform="translate(-1502.838 -224.466)" fill="#f39d16"/>
    <path id="Path_41571" data-name="Path 41571" d="M-3073.793,542.727a.639.639,0,0,1,.048.3,2.766,2.766,0,0,0,.663,1.574,2.217,2.217,0,0,0,.542.5c.063.038.036.054.008.085-.184.027-.367.059-.551.079a10.852,10.852,0,0,1-1.187.029.086.086,0,0,1-.074-.025,4.5,4.5,0,0,1-.215-.71,3.1,3.1,0,0,1,0-1.017,3.214,3.214,0,0,1,.658-.742C-3073.866,542.78-3073.83,542.754-3073.793,542.727Z" transform="translate(-1468.755 -140.411)" fill="#f39d16"/>
    <path id="Path_41572" data-name="Path 41572" d="M-2941.426,607.9a3.4,3.4,0,0,0-.425.233,3.266,3.266,0,0,1-.966.29,2.973,2.973,0,0,1-.474.024c.194-.1.39-.193.583-.294a5.281,5.281,0,0,0,1.2-.883c.022-.014.053-.015.057.008a.993.993,0,0,1,.026.568C-2941.426,607.868-2941.426,607.886-2941.426,607.9Z" transform="translate(-1596.468 -203.179)" fill="#f8ab15"/>
    <path id="Path_41573" data-name="Path 41573" d="M-2878.16,596.6a4.605,4.605,0,0,0-.045-.534c0-.031-.014-.038-.038-.042.122-.1.2-.258.352-.327,0,.045-.037.091,0,.136a.6.6,0,0,0-.02.279c0,.052-.005.1-.008.156a.27.27,0,0,0-.026.138l-.046.112C-2878.048,596.541-2878.091,596.6-2878.16,596.6Z" transform="translate(-1659.734 -191.929)" fill="#fab22d"/>
    <path id="Path_41574" data-name="Path 41574" d="M-3348.775,580.479a.155.155,0,0,1-.166.159.156.156,0,0,1-.167-.16.166.166,0,0,1,.173-.17A.163.163,0,0,1-3348.775,580.479Z" transform="translate(-1201.77 -176.961)" fill="#f6f4f2"/>
    <path id="Path_41575" data-name="Path 41575" d="M-3448.956,670.571a.158.158,0,0,1-.158.172.155.155,0,0,1-.174-.152.165.165,0,0,1,.163-.179A.163.163,0,0,1-3448.956,670.571Z" transform="translate(-1104.334 -264.598)" fill="#f5f3f1"/>
  </g>
</svg>
