<svg xmlns="http://www.w3.org/2000/svg" width="25.989" height="25.102" viewBox="0 0 25.989 25.102">
  <path id="Path_34318" data-name="Path 34318" d="M34.594,34.195a1.436,1.436,0,0,1-2,0l-3.563-3.422a12.014,12.014,0,0,1-7.25,2.4A11.559,11.559,0,0,1,10,21.887,11.552,11.552,0,0,1,21.75,10.6,11.552,11.552,0,0,1,33.5,21.887,10.967,10.967,0,0,1,31,28.851l3.563,3.422A1.33,1.33,0,0,1,34.594,34.195Zm-12.813-20.8a8.634,8.634,0,0,0-8.813,8.465,8.634,8.634,0,0,0,8.813,8.465,8.634,8.634,0,0,0,8.813-8.465A8.654,8.654,0,0,0,21.781,13.392Z" transform="translate(-9.5 -10.1)" stroke="rgba(0,0,0,0)" stroke-miterlimit="10" stroke-width="1"/>
</svg>
