<svg xmlns="http://www.w3.org/2000/svg" width="48" height="48" viewBox="0 0 48 48">
  <g id="Group_48042" data-name="Group 48042" transform="translate(-937 -2018)">
    <circle id="Ellipse_1613" data-name="Ellipse 1613" cx="24" cy="24" r="24" transform="translate(937 2018)" fill="#1297d8"/>
    <g id="Group_48032" data-name="Group 48032" transform="translate(944.427 2033)">
      <path id="Path_42449" data-name="Path 42449" d="M-4424.741-3091.893l-.216.246c-.145.186-.247.005-.386-.082.176.293.1.405-.291.519a.309.309,0,0,0-.367-.128,1.7,1.7,0,0,1-.944.019c-.13-.031-.292-.041-.332-.18-.047-.163.123-.209.23-.278.031-.019.077-.023.07-.077a1.272,1.272,0,0,0-.213-.1c-.123-.057-.209-.18-.356-.194a.3.3,0,0,1-.092-.046c-.1-.1-.12-.249-.206-.357a.261.261,0,0,1-.052-.147.159.159,0,0,1,.048-.091c.037-.041.13-.021.117-.105,0-.007-.077.051-.122.073a.388.388,0,0,1-.262-.046,1.955,1.955,0,0,0-.911-.009.485.485,0,0,1-.111,0,1.488,1.488,0,0,0-.5-.006.338.338,0,0,1-.112-.037.486.486,0,0,0-.378-.065c-.467.041-.938,0-1.406.072a.564.564,0,0,1-.417-.076.994.994,0,0,1-.174-.16.887.887,0,0,0-1.161-.273.511.511,0,0,1-.312-.028.884.884,0,0,0-1.14.358c-.186.145-.373.272-.584.041-.054-.111-.037-.248-.13-.345-.025-.025-.048-.051-.073-.076-.143-.131-.058-.218.059-.3a.489.489,0,0,1,.086-.068c.15-.047.275-.145.434-.188a.649.649,0,0,0,.413-.745,1.054,1.054,0,0,0-1.512-.885c-.007,0-.013.014-.024.017a.54.54,0,0,1,.067-.036,1.059,1.059,0,0,1,1.461.893c.007.052.037.108.021.156-.05.157-.073.4-.245.4s-.1-.232-.1-.369a.678.678,0,0,0-.451-.683.64.64,0,0,0-.709.089.7.7,0,0,0-.124.779c.073.254.288.273.516.26a.333.333,0,0,0,.342-.32.3.3,0,0,0-.236-.362c-.172-.039-.265.061-.269.228.056.044.1.037.124.005.1-.125.221-.169.319-.011a.254.254,0,0,1-.12.37.472.472,0,0,1-.7-.337.592.592,0,0,1,.568-.711.749.749,0,0,1,.718.748c-.008.406-.283.6-.594.775a.7.7,0,0,1-.714-.081.827.827,0,0,1-.38-.45.893.893,0,0,1-.045-.76.873.873,0,0,0,.039.75.723.723,0,0,0,.328.419,2.3,2.3,0,0,0,.241.154c.206.047.2.163.118.323-.111.209-.213.416-.509.269a.756.756,0,0,0-.832-.391.38.38,0,0,1-.449-.232c-.071-.155-.186-.264-.375-.2s-.225.2-.232.374a.735.735,0,0,1-.077.421.1.1,0,0,1-.138-.012c-.519-.478-.9-.438-1.291.132a1.165,1.165,0,0,1-1.075.083,4.619,4.619,0,0,1-.38-.344.721.721,0,0,0-.7-.185,1.334,1.334,0,0,1-.815,0c-.413-.141-.662.144-.926.382-.271-.1-.534.111-.805.018a.354.354,0,0,1-.1-.055,1.025,1.025,0,0,0-1.667.076c-.263.133-.527.271-.77-.036a1.016,1.016,0,0,0-1.015-.435,1.088,1.088,0,0,1,.878.275c.065.067.138.137.023.224a4.861,4.861,0,0,1-1.587.057c-.187-.011-.43.177-.522-.154-.109-.384-.309-.469-.654-.288-.224.118-.341.357-.561.479-.308.024-.383-.172-.395-.423a5.015,5.015,0,0,0-.047-.751.3.3,0,0,0-.312-.254c-.174-.009-.222.111-.229.259-.037.241.067.5-.11.724a.913.913,0,0,0-1.178.265.846.846,0,0,0-.233.565c-.006.135,0,.27,0,.4a.67.67,0,0,0,.271.586c.08.14.34.219.155.449a5.94,5.94,0,0,0-.869-.033c.156,0,.313-.006.469,0,.1.006.243-.03.254.116.008.109-.119.123-.206.146-.065.017-.127.04-.192.055a1.98,1.98,0,0,1-.588,0,.843.843,0,0,1-.594-.24l-.4-.3c-.129.006-.187-.056-.175-.184l-.224-.319c-.191-.075-.15-.279-.229-.417a2.291,2.291,0,0,1-.125-.9q0-3.13,0-6.26a1.4,1.4,0,0,1,.158-.77.633.633,0,0,1,.351-.269,3.282,3.282,0,0,1,.949-.086,2.254,2.254,0,0,1,.595-.045h26.912a2.1,2.1,0,0,1,.593.042,2.851,2.851,0,0,1,.909.089c.113.065.253.084.34.2a.51.51,0,0,1,.116.522q0,3.231,0,6.461a1.578,1.578,0,0,1-.046.982C-4424.566-3092.181-4424.574-3092-4424.741-3091.893Z" transform="translate(4456.08 3100.963)" fill="#fff"/>
      <path id="Path_42450" data-name="Path 42450" d="M-4409.725-3102.953c-.133.007-.266.019-.4.019h-27.445c-.132,0-.265-.012-.4-.019-.019-.068.022-.1.073-.137.014-.085.051-.151.148-.155s.213-.005.319-.005q13.579,0,27.159.005c.157,0,.389-.124.467.155C-4409.748-3103.058-4409.706-3103.021-4409.725-3102.953Z" transform="translate(4440.022 3103.381)" fill="#1f98d4"/>
      <path id="Path_42451" data-name="Path 42451" d="M-4172.579-2956.865a1.181,1.181,0,0,0,.131.569,3.937,3.937,0,0,1,.416.812c.019.178.038.356-.161.458a.462.462,0,0,1-.628-.1,1.763,1.763,0,0,1-.49-1,3.65,3.65,0,0,1,.065-2.028c.115-.364.162-.749.247-1.122a1.241,1.241,0,0,0,.1-.722,1.14,1.14,0,0,0-.129-.4c-.019-.03-.035-.061-.052-.093-.059-.141-.212-.25-.145-.434.047-.393.28-.488.632-.4a.665.665,0,0,1,.315.321,1.979,1.979,0,0,1,.335.71,5.811,5.811,0,0,1,.018.86,2.218,2.218,0,0,1-.2.566,9.942,9.942,0,0,0-.448,1.616A.754.754,0,0,1-4172.579-2956.865Z" transform="translate(4196.591 2972.795)" fill="#f5f9fa"/>
      <path id="Path_42452" data-name="Path 42452" d="M-4367.459-2956.719a1.542,1.542,0,0,0,.237.8c.105.174.277.32.24.556-.061.473-.178.547-.645.408-.392-.2-.441-.617-.559-.968a2.6,2.6,0,0,1-.075-1.719.509.509,0,0,1,.1-.234,2.1,2.1,0,0,0,.312-1.077,2.929,2.929,0,0,0,.181-1.182c-.1-.184-.173-.383-.285-.565a.4.4,0,0,1,.092-.563c.437-.138.5.274.708.479a1.472,1.472,0,0,1,.327,1.122,3.254,3.254,0,0,1-.2.994c-.172.394-.115.858-.375,1.225a.273.273,0,0,0-.058.249A.775.775,0,0,1-4367.459-2956.719Z" transform="translate(4375.983 2972.731)" fill="#f9fbfc"/>
      <path id="Path_42453" data-name="Path 42453" d="M-4302.166-2958.749q-.027.086-.056.172a1.5,1.5,0,0,1-.142.7,1.592,1.592,0,0,0-.09.58,1.2,1.2,0,0,0,0,.636c.013.166.082.323.084.491a.9.9,0,0,0,.136.523.609.609,0,0,1,.089.414.326.326,0,0,1-.548.232c-.085-.062-.132-.161-.217-.225a1.289,1.289,0,0,1-.189-.27,2.9,2.9,0,0,1-.293-2.005,4.764,4.764,0,0,1,.354-1.158,3.137,3.137,0,0,0,.214-.732,5.733,5.733,0,0,0-.068-.731c-.053-.187-.2-.331-.234-.529-.027-.133-.055-.266-.082-.4-.065-.135.009-.2.124-.234a.91.91,0,0,1,.505,0,2.441,2.441,0,0,1,.673,1.215,1.872,1.872,0,0,1,.006.453A5.1,5.1,0,0,1-4302.166-2958.749Z" transform="translate(4316.261 2972.76)" fill="#f8fafb"/>
      <path id="Path_42454" data-name="Path 42454" d="M-4237.5-2956.5a3.677,3.677,0,0,1,.006-.888c-.056-.292.147-.553.1-.844a1.031,1.031,0,0,1,.232-.426,1.887,1.887,0,0,0-.008-1.832.633.633,0,0,1-.071-.633l.149-.1a.427.427,0,0,1,.481.23.952.952,0,0,0,.26.283,1.413,1.413,0,0,1,.22,1.351c-.088.216.009.48-.171.673a3.724,3.724,0,0,0-.311,2.538,1.5,1.5,0,0,0,.069.141,1.211,1.211,0,0,1,.272.55c0,.141.021.288-.111.392-.216-.042-.108-.351-.323-.393-.046-.039-.052-.106-.1-.146-.039.121.033.19.113.255a1.079,1.079,0,0,0,.275.3.173.173,0,0,1-.013.164.283.283,0,0,1-.382.029,4.73,4.73,0,0,1-.641-1.308A.385.385,0,0,1-4237.5-2956.5Z" transform="translate(4255.573 2972.681)" fill="#f8fafa"/>
      <path id="Path_42455" data-name="Path 42455" d="M-4404.073-2980.4c-.036.069.111.216-.042.211-.411-.012-.8.125-1.212.124q-13.092-.015-26.186-.011c-.164,0-.347.066-.493-.076.32-.16.687-.05,1.014-.175a6.436,6.436,0,0,1,.758-.019q10.854,0,21.708,0c.076,0,.153,0,.228,0,.608.017,1.215-.019,1.822.019a1.415,1.415,0,0,0,.272.031c.556-.108,1.123.016,1.679-.081A.829.829,0,0,1-4404.073-2980.4Z" transform="translate(4434.536 2990.341)" fill="#1697d2"/>
      <path id="Path_42456" data-name="Path 42456" d="M-4406.953-3104.6h-27.722v-.04h27.739Z" transform="translate(4436.992 3104.638)" fill="#00a0df"/>
      <path id="Path_42457" data-name="Path 42457" d="M-4068.908-3081.435q.04-.521.079-1.043c.124-.121.071-.276.072-.417q0-2.732,0-5.464c0-.093,0-.186,0-.279,0-.115.023-.219.172-.21.125.008.143.1.144.2,0,.16,0,.319,0,.479,0,1.7,0,3.4,0,5.105a.916.916,0,0,1-.182.679c-.184.225-.151.625-.214.949C-4068.859-3081.4-4068.883-3081.4-4068.908-3081.435Z" transform="translate(4100.417 3090.108)" fill="#099ed5"/>
      <path id="Path_42458" data-name="Path 42458" d="M-4057.9-3081.94a2.205,2.205,0,0,1-.138-.862c0-1.817,0-3.634,0-5.451,0-.106,0-.212.008-.318,0-.073.045-.125.126-.115a.105.105,0,0,1,.1.108c.006.106.009.212.009.318,0,1.79,0,3.581,0,5.372a1.071,1.071,0,0,0,.079.619C-4057.624-3082.13-4057.774-3082.048-4057.9-3081.94Z" transform="translate(4090.41 3089.961)" fill="#009fdb"/>
      <path id="Path_42459" data-name="Path 42459" d="M-4062.185-3085.45c0-.955,0-1.91,0-2.865,0-.108-.056-.285.112-.292s.122.172.122.279q.006,2.885,0,5.771c0,.127.029.316-.153.306-.164-.009-.081-.193-.082-.294C-4062.187-3083.513-4062.185-3084.481-4062.185-3085.45Z" transform="translate(4094.245 3089.886)" fill="#1297d8"/>
      <path id="Path_42460" data-name="Path 42460" d="M-4460.865-3083.534c-.2-.029-.159-.183-.159-.309q0-2.892,0-5.783c0-.149-.007-.3.161-.374.141.139.11.32.11.488q.006,2.743,0,5.486A.666.666,0,0,1-4460.865-3083.534Z" transform="translate(4461.24 3091.168)" fill="#2095d5"/>
      <path id="Path_42461" data-name="Path 42461" d="M-4463.321-3093.731v-6.465c.062-.195-.134-.232-.22-.314-.208-.2-.219-.359.043-.46a1.274,1.274,0,0,1,.975-.023.158.158,0,0,1-.08.116,1.865,1.865,0,0,1-.218.111,1.02,1.02,0,0,0-.3.821c-.016,2.05.007,4.1-.012,6.147l-.032.067Z" transform="translate(4463.696 3101.365)" fill="#009edc"/>
      <path id="Path_42462" data-name="Path 42462" d="M-4457.311-3097.3c-.1-.333.1-.531.318-.721.067.038.129.079.085.172a1.367,1.367,0,0,0-.16.688q.006,3.367.006,6.734a1.794,1.794,0,0,0,.078.623.056.056,0,0,1-.087.007,2.983,2.983,0,0,1-.241-1.119h0a.529.529,0,0,0,.039-.272q0-2.92,0-5.841A.527.527,0,0,0-4457.311-3097.3Z" transform="translate(4457.846 3098.549)" fill="#1a98cc"/>
      <path id="Path_42463" data-name="Path 42463" d="M-4178.155-2956.528a.109.109,0,0,1,.029.072.554.554,0,0,1,.034.382.152.152,0,0,1-.16.065c-.1-.085-.193-.164-.278.028a1.464,1.464,0,0,0-.063.5c-.024.24.075.5-.1.715a.271.271,0,0,1,0,.04c-.046.165.1.474-.112.473s-.207-.312-.207-.521c0-.252,0-.5,0-.755a.6.6,0,0,1,.232-.582c.284-.209.209-.443-.15-.652.088-.071.142-.177.239-.239l.238.161C-4178.357-2956.736-4178.338-2956.555-4178.155-2956.528Z" transform="translate(4201.735 2968.789)" fill="#009fd9"/>
      <path id="Path_42464" data-name="Path 42464" d="M-4159.13-2908.995a.752.752,0,0,0,.085-.481c.056-.241-.263-.384-.167-.636.116.028.155.186.363.169-.421-.446-.135-.925-.145-1.394.158.342.091.731.261,1.064h0a.161.161,0,0,0,.158.08.17.17,0,0,1,0,.239c.158.158.261.3.019.493a1.167,1.167,0,0,0-.24.431C-4158.892-2908.813-4159-2908.834-4159.13-2908.995Z" transform="translate(4183.53 2926.764)" fill="#009eda"/>
      <path id="Path_42465" data-name="Path 42465" d="M-4283.6-2910.084c-.164-.1-.411-.121-.4-.4,0-.507.05-1.011.079-1.516.439.022.423.369.374.631a1.6,1.6,0,0,0,.077,1.205,1.009,1.009,0,0,1,.011.541c-.008.092-.086.073-.142.017A.347.347,0,0,1-4283.6-2910.084Z" transform="translate(4298.344 2927.375)" fill="#009edb"/>
      <path id="Path_42466" data-name="Path 42466" d="M-4173.444-2937.91a2.638,2.638,0,0,1-.2,1,3.629,3.629,0,0,0,.289,3.2c-.174-.045-.395-.192-.377-.3.031-.187-.112-.313-.114-.479-.1-.087-.169-.185-.083-.32a5.3,5.3,0,0,1,.086-2.153.529.529,0,0,1,.031-.234c.05-.186.085-.375.131-.563.033-.138.037-.319.25-.329A.17.17,0,0,1-4173.444-2937.91Z" transform="translate(4197.128 2951.381)" fill="#2b96c4"/>
      <path id="Path_42467" data-name="Path 42467" d="M-4157.126-2956c.441.124.272.5.334.793.123-.041.023-.165.092-.229.13.052.122.157.11.273-.049.487-.2.98.144,1.436.105.138-.073.292-.054.48-.273-.157-.034-.457-.228-.6a.048.048,0,0,1-.08,0,.816.816,0,0,1-.081-.478c-.146-.23-.051-.486-.079-.729a1.219,1.219,0,0,0-.03-.376C-4157.017-2955.622-4157.181-2955.785-4157.126-2956Z" transform="translate(4181.604 2967.861)" fill="#00a0db"/>
      <path id="Path_42468" data-name="Path 42468" d="M-4174.836-2946.756a.166.166,0,0,1-.079.16c-.269-.02-.078-.316-.241-.4.06-.457-.141-.941.144-1.376.043-.066,0-.22.144-.176a.172.172,0,0,1,.111.276A6.413,6.413,0,0,1-4174.836-2946.756Z" transform="translate(4198.197 2961.013)" fill="#1397d7"/>
      <path id="Path_42469" data-name="Path 42469" d="M-4282.875-2957.968c0-.106,0-.213,0-.32a1.919,1.919,0,0,1,0-1.2c-.338-.255-.158-.687-.336-1a1.605,1.605,0,0,1,.5,1.39c-.039.261.1.491.075.745-.014.177,0,.357-.243.378Z" transform="translate(4297.616 2971.987)" fill="#009eda"/>
      <path id="Path_42470" data-name="Path 42470" d="M-4348.939-2933.453c.2-.056.1-.478.359-.37.321.13-.067.308-.042.484a3.323,3.323,0,0,1-.072.857.282.282,0,0,1-.185.27c-.065.023-.136.041-.178-.024a.279.279,0,0,1,.011-.333.69.69,0,0,0,.107-.487A.28.28,0,0,1-4348.939-2933.453Z" transform="translate(4358.253 2947.472)" fill="#009dd8"/>
      <path id="Path_42471" data-name="Path 42471" d="M-4245.716-2942c-.273.078-.218-.183-.2-.26a5.5,5.5,0,0,0-.027-1.951c-.017-.1.011-.209.12-.218.145-.011.1.123.109.2.043.383-.095.782.135,1.154.039.066-.085.232-.134.351A.662.662,0,0,1-4245.716-2942Z" transform="translate(4263.33 2957.22)" fill="#009ed7"/>
      <path id="Path_42472" data-name="Path 42472" d="M-4238.961-2948.8a6.669,6.669,0,0,1-.131-2.325.41.41,0,0,1,.164.43,7.311,7.311,0,0,0-.034,1.1c-.01.172.071.242.236.231.045.12-.029.219-.057.326C-4238.894-2949-4238.766-2948.774-4238.961-2948.8Z" transform="translate(4257.054 2963.378)" fill="#009dd6"/>
      <path id="Path_42473" data-name="Path 42473" d="M-4369.786-2916.421a3.622,3.622,0,0,0,.559,2.721l-.082.077c-.241-.028-.171-.3-.317-.4h0a2.377,2.377,0,0,1-.442-1.418.832.832,0,0,1,.042-.656c.117-.084.069-.21.082-.321A.106.106,0,0,1-4369.786-2916.421Z" transform="translate(4377.583 2931.475)" fill="#2999c4"/>
      <path id="Path_42474" data-name="Path 42474" d="M-4288.619-2912.011a2.464,2.464,0,0,1-.08,1.517c-.117.084-.068.209-.08.319a.082.082,0,0,1-.109,0,.856.856,0,0,1-.217-.487,1.89,1.89,0,0,1,.06-.408.443.443,0,0,1,.074-.213c.06-.088.246.108.253-.123s-.238-.035-.272-.178c-.018-.121-.065-.255.131-.271C-4288.776-2911.9-4288.743-2912.023-4288.619-2912.011Z" transform="translate(4303.041 2927.386)" fill="#1598d7"/>
      <path id="Path_42475" data-name="Path 42475" d="M-4305.373-2917.695a4.208,4.208,0,0,0,.315,2.04c.035.089-.009.105-.084.091-.13-.1-.088-.31-.241-.4a3.036,3.036,0,0,1-.28-1.312.6.6,0,0,1,.121-.364c.15-.1.01-.3.156-.4A.4.4,0,0,1-4305.373-2917.695Z" transform="translate(4318.289 2932.934)" fill="#2897c4"/>
      <path id="Path_42476" data-name="Path 42476" d="M-4307.3-2913.278a4.885,4.885,0,0,0,.159,1.676,1.746,1.746,0,0,1-.4-1.437.176.176,0,0,1,0-.239h0c.054-.053.107,0,.16,0Z" transform="translate(4320.044 2928.573)" fill="#00a0da"/>
      <path id="Path_42477" data-name="Path 42477" d="M-4372.036-2904.02c-.111.527.2.959.322,1.436-.114-.008-.233-.047-.213-.176.028-.189-.092-.32-.212-.316-.209.007-.1.223-.14.347a.954.954,0,0,1-.05.1c-.087-.167-.087-.167.136-.837.05-.108-.032-.2-.033-.3C-4372.228-2903.9-4372.244-2904.043-4372.036-2904.02Z" transform="translate(4379.671 2920.034)" fill="#009fd9"/>
      <path id="Path_42478" data-name="Path 42478" d="M-4353.019-2952.824a2.818,2.818,0,0,0-.078-2.128c.219,0,.211.171.27.318s0,.347.137.478a.282.282,0,0,1,0,.4,4,4,0,0,0-.16.878h0c-.13.068-.03.25-.159.319A.266.266,0,0,1-4353.019-2952.824Z" transform="translate(4361.924 2966.899)" fill="#2c92c3"/>
      <path id="Path_42479" data-name="Path 42479" d="M-4370.574-2935.124c.165-.138.006-.359.147-.531.195.2,0,.64.409.691a.074.074,0,0,1,.029.058c0,.022,0,.033-.009.033-.089.13-.1.3-.2.423-.038.041-.08.073-.14.046a.639.639,0,0,0-.24-.481A.167.167,0,0,1-4370.574-2935.124Z" transform="translate(4378.052 2949.142)" fill="#1797d6"/>
      <path id="Path_42480" data-name="Path 42480" d="M-4231.261-2895.294c-.048-.177-.193-.318-.187-.515.2-.062.129.193.255.216.16.155.3.316.162.558.033.293-.052.483-.392.48-.289,0-.571.007-.566-.4l.053-.016c.109.073.164.194.256.281.123.113.223.027.326-.037A.441.441,0,0,0-4231.261-2895.294Z" transform="translate(4250.481 2912.484)" fill="#2895c2"/>
      <path id="Path_42481" data-name="Path 42481" d="M-4089.33-2990a.7.7,0,0,1-.4.087.238.238,0,0,1-.234.02c.095-.333.44-.2.636-.338.178-.087.547-.105.138-.4a.125.125,0,0,1-.026-.178c.06-.08.134-.048.21-.009.115.059.133.289.336.193q0,.036-.006.073c.01.125-.048.188-.174.186Z" transform="translate(4119.794 2999.939)" fill="#edf5ec"/>
      <path id="Path_42482" data-name="Path 42482" d="M-4070.153-3098.9c-.057-.156-.114-.312-.171-.467.014-.083-.052-.168.007-.251a.809.809,0,0,1,.229-.053c.158.01.257.145.342.248.1.123-.093.152-.145.23A2.513,2.513,0,0,1-4070.153-3098.9Z" transform="translate(4101.737 3100.066)" fill="#099ed5"/>
      <path id="Path_42483" data-name="Path 42483" d="M-4291.538-2916.745q-.04.2-.08.4a.077.077,0,0,1-.109-.013c-.061-.216-.088-.441-.165-.655-.086-.2.042-.408-.039-.606a1.307,1.307,0,0,1,.147-.579c.047.015.055.066.086.1-.021.08-.126.159,0,.24.166.164.054.369.082.553S-4291.644-2916.922-4291.538-2916.745Z" transform="translate(4305.64 2933.078)" fill="#149ed0"/>
      <path id="Path_42484" data-name="Path 42484" d="M-4373.135-2917.073a.215.215,0,0,0-.119.318c.041.089.056.174-.04.24a.886.886,0,0,1-.088-.58,3.371,3.371,0,0,0-.2-1.112l.366.5A1.3,1.3,0,0,0-4373.135-2917.073Z" transform="translate(4380.771 2933.086)" fill="#1797d6"/>
      <path id="Path_42485" data-name="Path 42485" d="M-4296.534-2896.131c.047.019.124.026.136.059.069.184.181.332.381.22.218-.123.174-.356.068-.525a.979.979,0,0,1-.176-.636c.2-.03.067.2.184.237.061.15.144.29.205.439.111.549-.043.7-.627.6l-.082-.077C-4296.543-2895.9-4296.616-2896-4296.534-2896.131Z" transform="translate(4309.908 2913.586)" fill="#cde9f4"/>
      <path id="Path_42486" data-name="Path 42486" d="M-4222.025-2955.976a.225.225,0,0,1,.245.136,1.59,1.59,0,0,1,0,1.378A9.736,9.736,0,0,0-4222.025-2955.976Z" transform="translate(4241.313 2967.841)" fill="#0aa0d4"/>
      <path id="Path_42487" data-name="Path 42487" d="M-4291.732-2959.757a4.6,4.6,0,0,0-.579-1.187.281.281,0,0,1,.356.208,6.425,6.425,0,0,0,.308.66c.058.105.164.2.086.337A.141.141,0,0,1-4291.732-2959.757Z" transform="translate(4305.99 2972.418)" fill="#259ac3"/>
      <path id="Path_42488" data-name="Path 42488" d="M-4225.985-2959.4a3.129,3.129,0,0,1,.242,1.514l-.08,0a.167.167,0,0,1-.07-.079,1.589,1.589,0,0,0-.231-1.287.5.5,0,0,1-.2-.445C-4226.1-2959.727-4226.166-2959.422-4225.985-2959.4Z" transform="translate(4245.273 2971.267)" fill="#3796bb"/>
      <path id="Path_42489" data-name="Path 42489" d="M-4281.183-2947.989v1.2c-.036.052-.073.1-.122.171a4.265,4.265,0,0,1-.031-1.22C-4281.343-2947.937-4281.269-2947.976-4281.183-2947.989Z" transform="translate(4295.924 2960.491)" fill="#2293d3"/>
      <path id="Path_42490" data-name="Path 42490" d="M-4348-2944.613q0-.2,0-.4c.226-.008.445.008.379.323-.021.1-.021.255-.154.291C-4347.947-2944.35-4347.9-2944.571-4348-2944.613Z" transform="translate(4357.236 2957.752)" fill="#009fd5"/>
      <path id="Path_42491" data-name="Path 42491" d="M-4222.8-2916.344c-.257-.319-.089-.588-.051-.852.008-.062.048-.133.135-.1a.139.139,0,0,1,.084.164C-4222.675-2916.889-4222.731-2916.646-4222.8-2916.344Z" transform="translate(4242.153 2932.257)" fill="#0c9cd1"/>
      <path id="Path_42492" data-name="Path 42492" d="M-4243-2922.277v-.718a.933.933,0,0,1,.229.983C-4242.874-2922.1-4242.867-2922.248-4243-2922.277Z" transform="translate(4260.613 2937.492)" fill="#2092d3"/>
      <path id="Path_42493" data-name="Path 42493" d="M-4288.969-2913.926c-.3-.337-.1-.746-.16-1.117.057.016.105-.206.166-.008.032.106.049.218.074.327-.117.084-.069.209-.08.319a.167.167,0,0,1,0,.24Z" transform="translate(4303.071 2930.258)" fill="#00a2dc"/>
      <path id="Path_42494" data-name="Path 42494" d="M-4439.893-2980.762a3.118,3.118,0,0,1-.959.063,1.879,1.879,0,0,1-.613-.117c-.076-.02-.236-.053-.1-.2.189.034.347.176.55.169a1.9,1.9,0,0,0,.691.014C-4440.175-2980.852-4440.017-2980.906-4439.893-2980.762Z" transform="translate(4443.38 2990.886)" fill="#2f96c4"/>
      <path id="Path_42495" data-name="Path 42495" d="M-4221.84-2892.607c.028-.21-.147-.361-.162-.558.2-.048.391.013.438.2A.285.285,0,0,1-4221.84-2892.607Z" transform="translate(4241.292 2910.058)" fill="#00a1d8"/>
      <path id="Path_42496" data-name="Path 42496" d="M-4153.006-2911.1v-1.136a1.057,1.057,0,0,1,0,1.137Z" transform="translate(4177.803 2927.596)" fill="#1d95d5"/>
      <path id="Path_42497" data-name="Path 42497" d="M-4302.029-2926.843c-.005-.115-.009-.231-.013-.346a.847.847,0,0,1,.316-.794A5.24,5.24,0,0,1-4302.029-2926.843Z" transform="translate(4314.944 2942.082)" fill="#339abd"/>
      <path id="Path_42498" data-name="Path 42498" d="M-4237.414-2901.9c.033.1.065.208.1.312a6.968,6.968,0,0,1,.331,1.028l-.011.008A1.427,1.427,0,0,1-4237.414-2901.9Z" transform="translate(4255.489 2918.086)" fill="#2b92c3"/>
      <path id="Path_42499" data-name="Path 42499" d="M-4282.722-2888.017v.479c-.124.043-.278.174-.314-.081C-4283.068-2887.85-4283.02-2888.038-4282.722-2888.017Z" transform="translate(4297.462 2905.307)" fill="#1598d7"/>
      <path id="Path_42500" data-name="Path 42500" d="M-4364.848-2960.944a.625.625,0,0,0,.075.72,1.927,1.927,0,0,1,.162.392c-.027.039-.055.04-.084,0a5.1,5.1,0,0,1-.338-.578C-4365.126-2960.622-4365.151-2960.849-4364.848-2960.944Z" transform="translate(4372.965 2972.413)" fill="#d2edf5"/>
      <path id="Path_42501" data-name="Path 42501" d="M-4373.023-2929v.24c-.037.174-.073.348-.11.521l-.1-.023C-4373.2-2928.515-4373.469-2928.827-4373.023-2929Z" transform="translate(4380.501 2943.018)" fill="#009dd5"/>
      <path id="Path_42502" data-name="Path 42502" d="M-4282.742-2929.059c0,.039,0,.078,0,.117,0,.162,0,.339-.19.38-.116.026-.116-.107-.129-.2-.035-.251.092-.328.319-.3Z" transform="translate(4297.483 2943.077)" fill="#0f9dcf"/>
      <path id="Path_42503" data-name="Path 42503" d="M-4350.384-2929v.4c-.122.059-.046.3-.292.277a2.353,2.353,0,0,0,.055-.675h.238Z" transform="translate(4359.697 2943.017)" fill="#2491d2"/>
      <path id="Path_42504" data-name="Path 42504" d="M-4449.994-3100.9l.079-.078a3.34,3.34,0,0,1,.958-.079c-.023.046-.048.092-.072.137a4.192,4.192,0,0,0-.89.088A.1.1,0,0,1-4449.994-3100.9Z" transform="translate(4451.087 3101.349)" fill="#169bc8"/>
      <path id="Path_42505" data-name="Path 42505" d="M-4178.832-2960.182c.017.176-.061.259-.239.239a.838.838,0,0,0-.022-.113c-.048-.133-.134-.324,0-.385C-4178.914-2960.523-4178.915-2960.279-4178.832-2960.182Z" transform="translate(4201.874 2971.965)" fill="#01a3d0"/>
      <path id="Path_42506" data-name="Path 42506" d="M-4355.848-2928.3c0,.087.007.175.011.263-.028.186-.055.373-.082.56-.094.114.028.314-.154.394l-.1,0A7.234,7.234,0,0,1-4355.848-2928.3Z" transform="translate(4364.752 2942.375)" fill="#3a9dbc"/>
      <path id="Path_42507" data-name="Path 42507" d="M-4084.921-3100.893l-.072-.137c.326.016.669-.073.959.16.028.014.037.028.028.042s-.019.021-.027.021A4.215,4.215,0,0,0-4084.921-3100.893Z" transform="translate(4115.218 3101.321)" fill="#169bc8"/>
      <path id="Path_42508" data-name="Path 42508" d="M-4156.923-2945.035v.8c-.168.074.027.383-.25.385a1.8,1.8,0,0,1,.109-.552,2.363,2.363,0,0,0,.024-.491C-4157.035-2944.969-4157.042-2945.056-4156.923-2945.035Z" transform="translate(4181.641 2957.776)" fill="#1a94c0"/>
      <path id="Path_42509" data-name="Path 42509" d="M-4154.966-2929h.079a1.05,1.05,0,0,1,0,.118c-.013.136.051.3-.1.392a.073.073,0,0,1-.116-.054C-4155.1-2928.711-4155.238-2928.924-4154.966-2929Z" transform="translate(4179.763 2943.023)" fill="#2393d4"/>
      <path id="Path_42510" data-name="Path 42510" d="M-4308.22-2891.4c-.2-.177-.278-.331-.229-.526.017-.066.088-.05.13-.024C-4308.116-2891.822-4308.189-2891.64-4308.22-2891.4Z" transform="translate(4320.853 2908.945)" fill="#009ed4"/>
      <path id="Path_42511" data-name="Path 42511" d="M-4159.971-2957.9a.917.917,0,0,1,.161.558.069.069,0,0,1-.1.009l-.307-.635c-.034-.09.009-.107.086-.093Z" transform="translate(4184.449 2969.766)" fill="#2298c3"/>
      <path id="Path_42512" data-name="Path 42512" d="M-4361.826-2947l.083,0a1.655,1.655,0,0,1-.146,1.207l-.047-.038a.338.338,0,0,1-.042-.177.355.355,0,0,1,.055-.176c.117-.235.026-.494.086-.735C-4361.833-2946.945-4361.83-2946.971-4361.826-2947Z" transform="translate(4370.097 2959.582)" fill="#d2ecf4"/>
      <path id="Path_42513" data-name="Path 42513" d="M-4287.091-2939.58c.056-.291.113-.581.169-.871a.132.132,0,0,1,.162-.021.071.071,0,0,1,0,.1,2.211,2.211,0,0,0-.175.711C-4286.933-2939.595-4286.983-2939.5-4287.091-2939.58Z" transform="translate(4301.186 2953.591)" fill="#279bbf"/>
      <path id="Path_42514" data-name="Path 42514" d="M-4365.449-2931.589c0-.027.009-.054.015-.081a.1.1,0,0,0,.007-.068c.082-.1-.093-.307.146-.338l.02.016c-.093.374.024.81-.326,1.109-.076-.061-.058-.138-.039-.216C-4365.533-2931.292-4365.558-2931.469-4365.449-2931.589Z" transform="translate(4373.47 2945.848)" fill="#d2ecf4"/>
      <path id="Path_42515" data-name="Path 42515" d="M-4294-2888.71c.575,0,.694-.129.576-.638.021-.038.04-.04.061,0h.082C-4293.2-2888.653-4293.492-2888.5-4294-2888.71Z" transform="translate(4307.542 2906.557)" fill="#2791bf"/>
      <path id="Path_42516" data-name="Path 42516" d="M-4306.838-2919.566c-.053.089-.106.007-.16,0v-.57C-4306.806-2919.968-4306.7-2919.793-4306.838-2919.566Z" transform="translate(4319.505 2934.862)" fill="#1b96d6"/>
      <path id="Path_42517" data-name="Path 42517" d="M-4176.437-2897.018l.084.32c-.208.125-.35.017-.374-.172C-4176.754-2897.081-4176.549-2896.991-4176.437-2897.018Z" transform="translate(4199.632 2913.588)" fill="#00a3d4"/>
      <path id="Path_42518" data-name="Path 42518" d="M-4178.832-2885.583c.107.04.192.092.178.222a.134.134,0,0,1-.156.131c-.146,0-.154-.11-.151-.218C-4178.958-2885.531-4178.939-2885.6-4178.832-2885.583Z" transform="translate(4201.687 2903.07)" fill="#00a0d6"/>
      <path id="Path_42519" data-name="Path 42519" d="M-4161.014-2897.763c-.019.231.369.357.166.636a1.781,1.781,0,0,1-.341-.789Z" transform="translate(4185.333 2914.415)" fill="#3494bb"/>
      <path id="Path_42520" data-name="Path 42520" d="M-4237.8-2924.78l.159-.242a.058.058,0,0,1,.024.061c-.006.022-.012.032-.019.032.052.311-.131.573-.176.864C-4237.98-2924.306-4237.718-2924.541-4237.8-2924.78Z" transform="translate(4255.892 2939.358)" fill="#3797b5"/>
      <path id="Path_42521" data-name="Path 42521" d="M-4231.615-2961.577l.2.445c-.168-.049-.223-.184-.282-.334s-.229-.188-.382-.221C-4231.884-2961.829-4231.758-2961.664-4231.615-2961.577Z" transform="translate(4250.567 2973.147)" fill="#c6e9f4"/>
      <path id="Path_42522" data-name="Path 42522" d="M-4290-2926.134l-.086-.1c.061-.232.123-.465.183-.7C-4289.712-2926.634-4289.963-2926.4-4290-2926.134Z" transform="translate(4303.945 2941.11)" fill="#3291c1"/>
      <path id="Path_42523" data-name="Path 42523" d="M-4298.755-2887.967c.03.105.061.211.089.316-.386.089-.16-.306-.316-.4.029-.031.057-.061.085-.092Z" transform="translate(4312.128 2905.421)" fill="#28a0c9"/>
      <path id="Path_42524" data-name="Path 42524" d="M-4296.915-2947.207a1.178,1.178,0,0,1,.038.8c-.043-.235-.085-.471-.128-.706C-4296.978-2947.145-4296.969-2947.2-4296.915-2947.207Z" transform="translate(4310.309 2959.772)" fill="#3c9eb9"/>
      <path id="Path_42525" data-name="Path 42525" d="M-4353.689-2893.432a1.545,1.545,0,0,1-.24-.555C-4353.695-2893.869-4353.516-2893.727-4353.689-2893.432Z" transform="translate(4362.689 2910.8)" fill="#2793c6"/>
      <path id="Path_42526" data-name="Path 42526" d="M-4365.074-2936.356c-.309-.215-.152-.428,0-.64C-4364.931-2936.782-4365.02-2936.569-4365.074-2936.356Z" transform="translate(4373.108 2950.376)" fill="#00a4da"/>
      <path id="Path_42527" data-name="Path 42527" d="M-4235.62-2959.818c-.052.219.084.417.071.632C-4235.769-2959.375-4235.868-2959.577-4235.62-2959.818Z" transform="translate(4253.957 2971.377)" fill="#c6e9f4"/>
      <path id="Path_42528" data-name="Path 42528" d="M-4222.083-2937.966l.07.079c-.065.2.155.488-.175.616C-4222.152-2937.5-4222.118-2937.734-4222.083-2937.966Z" transform="translate(4241.462 2951.269)" fill="#3390bb"/>
      <path id="Path_42529" data-name="Path 42529" d="M-4302.821-2944.161c-.205-.185-.193-.31-.14-.432.025-.057.089-.042.128,0C-4302.7-2944.463-4302.868-2944.365-4302.821-2944.161Z" transform="translate(4315.819 2957.4)" fill="#009fd5"/>
      <path id="Path_42530" data-name="Path 42530" d="M-4283.922-2949.12c0-.027,0-.053,0-.08a.408.408,0,0,1,0-.477L-4284-2950C-4283.718-2949.729-4283.831-2949.424-4283.922-2949.12Z" transform="translate(4298.345 2962.34)" fill="#009eda"/>
      <path id="Path_42531" data-name="Path 42531" d="M-4299.172-2952.494l-.09.1c-.048-.188-.267-.323-.173-.555A.912.912,0,0,1-4299.172-2952.494Z" transform="translate(4312.566 2965.059)" fill="#2e93b5"/>
      <path id="Path_42532" data-name="Path 42532" d="M-4171.706-2955.594c-.307.09-.279-.135-.3-.317l.081-.08Z" transform="translate(4195.285 2967.855)" fill="#2c98c6"/>
      <path id="Path_42533" data-name="Path 42533" d="M-4222.763-2903.831a.941.941,0,0,1-.053.56A.43.43,0,0,1-4222.763-2903.831Z" transform="translate(4242.115 2919.858)" fill="#0c9cd1"/>
      <path id="Path_42534" data-name="Path 42534" d="M-4363.037-2936.362q0-.32,0-.64h.079c.082.061.006.167.068.234,0,.053,0,.106,0,.16l-.145.337C-4363.031-2936.3-4363.033-2936.332-4363.037-2936.362Z" transform="translate(4371.07 2950.382)" fill="#2797c9"/>
      <path id="Path_42535" data-name="Path 42535" d="M-4363.993-2886c.185.072.172.3.317.4C-4363.9-2885.589-4363.9-2885.589-4363.993-2886Z" transform="translate(4371.95 2903.454)" fill="#009fd9"/>
      <path id="Path_42536" data-name="Path 42536" d="M-4180.944-2950.575a.479.479,0,0,1,.048-.452C-4180.8-2950.845-4180.782-2950.721-4180.944-2950.575Z" transform="translate(4203.543 2963.287)" fill="#099fd1"/>
      <path id="Path_42537" data-name="Path 42537" d="M-4453.987-2995.06l.088-.007.153.323C-4453.979-2994.754-4453.979-2994.754-4453.987-2995.06Z" transform="translate(4454.762 3003.812)" fill="#338eac"/>
      <path id="Path_42538" data-name="Path 42538" d="M-4361.405-2945.978a1.3,1.3,0,0,1-.056.806.208.208,0,0,1-.011-.25C-4361.445-2945.606-4361.529-2945.8-4361.405-2945.978Z" transform="translate(4369.664 2958.641)" fill="#2a92ac"/>
      <path id="Path_42539" data-name="Path 42539" d="M-4364.875-2944.559a.289.289,0,0,1,0-.392A.291.291,0,0,1-4364.875-2944.559Z" transform="translate(4372.834 2957.696)" fill="#2391d2"/>
      <path id="Path_42540" data-name="Path 42540" d="M-4367.73-2921.26c0,.079-.007.158-.011.237-.027.052-.056.1-.083.156h-.159c.028-.1.054-.21.081-.315l.08-.082A.056.056,0,0,1-4367.73-2921.26Z" transform="translate(4375.622 2935.92)" fill="#358db6"/>
      <path id="Path_42541" data-name="Path 42541" d="M-4162.746-2960.777c-.029.031-.059.061-.086.092l-.239-.327C-4162.9-2961.023-4162.725-2961.036-4162.746-2960.777Z" transform="translate(4187.064 2972.479)" fill="#2da2c4"/>
      <path id="Path_42542" data-name="Path 42542" d="M-4070.863-2995.991h.072c-.037.159.037.385-.242.4Z" transform="translate(4102.372 3004.663)" fill="#308db2"/>
      <path id="Path_42543" data-name="Path 42543" d="M-4235.028-2929.61l-.005-.093a.57.57,0,0,1,.076-.318c.01-.031.021-.088.032-.088.064,0,.041.058.055.093A.52.52,0,0,1-4235.028-2929.61Z" transform="translate(4253.286 2944.038)" fill="#2f8cbb"/>
      <path id="Path_42544" data-name="Path 42544" d="M-4448.92-2987.034l.174.184c-.021.088-.069.155-.16.083A.159.159,0,0,1-4448.92-2987.034Z" transform="translate(4450.16 2996.42)" fill="#249bb3"/>
      <path id="Path_42545" data-name="Path 42545" d="M-4072.987-3098.927c0-.021,0-.042,0-.063h.236c.034.085.129.171-.007.25Z" transform="translate(4104.171 3099.441)" fill="#3194b6"/>
      <path id="Path_42546" data-name="Path 42546" d="M-4151.011-2896.761c0-.08,0-.16,0-.239.082.013.21-.031.206.1C-4150.81-2896.794-4150.915-2896.766-4151.011-2896.761Z" transform="translate(4175.968 2913.572)" fill="#1d95d5"/>
      <path id="Path_42547" data-name="Path 42547" d="M-4075.987-2986.834l.173-.186a.157.157,0,0,1-.015.264C-4075.917-2986.686-4075.968-2986.741-4075.987-2986.834Z" transform="translate(4106.931 2996.407)" fill="#249bb2"/>
      <path id="Path_42548" data-name="Path 42548" d="M-4301.606-2960.9c-.041.078-.082.156-.124.234-.06.017-.142.06-.132-.055C-4301.85-2960.873-4301.742-2960.916-4301.606-2960.9Z" transform="translate(4314.78 2972.377)" fill="#3291b1"/>
      <path id="Path_42549" data-name="Path 42549" d="M-4354.942-2917.594c.094-.114.029-.291.154-.394C-4354.824-2917.851-4354.685-2917.645-4354.942-2917.594Z" transform="translate(4363.622 2932.885)" fill="#10a8cd"/>
      <path id="Path_42550" data-name="Path 42550" d="M-4356.914-2909.492q0-.237,0-.474A.381.381,0,0,1-4356.914-2909.492Z" transform="translate(4365.437 2925.503)" fill="#2089bc"/>
      <path id="Path_42551" data-name="Path 42551" d="M-4361.933-2939l.012.25-.019.143c-.083-.06-.064-.15-.068-.233C-4361.983-2938.894-4361.958-2938.947-4361.933-2939Z" transform="translate(4370.124 2952.22)" fill="#2186b1"/>
      <path id="Path_42552" data-name="Path 42552" d="M-4308.672-2913c0,.08,0,.16,0,.24C-4308.924-2912.84-4308.8-2912.92-4308.672-2913Z" transform="translate(4321.178 2928.294)" fill="#1b96d6"/>
      <path id="Path_42553" data-name="Path 42553" d="M-4162.835-2909.541c0-.13,0-.26,0-.39A.3.3,0,0,1-4162.835-2909.541Z" transform="translate(4186.847 2925.471)" fill="#338eb1"/>
      <path id="Path_42554" data-name="Path 42554" d="M-4386.937-2994.042c-.129.277-.443.176-.641.312a5.491,5.491,0,0,1-1.125.045c-.14.01-.294-.037-.4.108-.062.007-.122.008-.157-.058a9.149,9.149,0,0,0-1.914-.019h-.157c-.106-.061-.229-.006-.338-.046a1.632,1.632,0,0,0-.644.01,1.13,1.13,0,0,1-.312-.009,2.1,2.1,0,0,0-.742.015h-19.877c-.3-.087-.055-.194-.011-.294a.592.592,0,0,1,.3-.085.554.554,0,0,0,.31-.119.905.905,0,0,1,.212-.094,1.367,1.367,0,0,1,.538,0,.554.554,0,0,0,.349,0,1.633,1.633,0,0,1,.328-.029h1.58c.18.017.381-.042.518.137-.028.15-.158.131-.256.156a2.688,2.688,0,0,0,1.392-.09c.119-.029.293-.052.322.051.033.12.075.136.169.138a5.254,5.254,0,0,0,1.37-.057,2.952,2.952,0,0,0,.557-.047.6.6,0,0,1,.243,0c.356.1.731-.033,1.086.09a1.081,1.081,0,0,0,.606-.032,5.979,5.979,0,0,1,1.094,0,4.525,4.525,0,0,0,1.617.028c.223-.031.474-.124.7-.139a2.845,2.845,0,0,0-.8.069,1.129,1.129,0,0,0-.325.052.635.635,0,0,1-.543-.081.163.163,0,0,1,.044-.2,4.869,4.869,0,0,1,1.329-.07c.222-.013.446,0,.67,0a1.265,1.265,0,0,1,.487.056.123.123,0,0,1,.07.1c-.091.181-.271.118-.412.154a6.475,6.475,0,0,0,1,.062c.565.012,1.131-.008,1.694-.01a10.2,10.2,0,0,0,1.529-.011c.529-.081,1.076.044,1.615-.026.211,0,.421,0,.632,0,.362-.013.724-.014,1.085,0a3.8,3.8,0,0,1,.9.051c.252.22.558.01.831.1a1.163,1.163,0,0,0,.324,0c-.3.008-.684-.031-1.064-.025-.076-.089-.01-.154.038-.222a.53.53,0,0,1,.515-.111,2.907,2.907,0,0,0,.86.034c.189.118.376.174.557-.015.086-.035.173-.078.267-.021.044.276.3.247.479.334.161.065.328,0,.456.03.088-.006.038-.051.031-.047a.891.891,0,0,1-.474.029,1.265,1.265,0,0,1-.5-.53c-.027-.2-.18-.406-.008-.613h.079c.106.055.152.225.318.161l.608.228c-.255.127-.512.067-.614.318a1.5,1.5,0,0,0,1.3.033C-4386.832-2994.481-4386.991-2994.172-4386.937-2994.042Z" transform="translate(4417.402 3003.751)" fill="#fbfbf9"/>
      <path id="Path_42555" data-name="Path 42555" d="M-4368.431-3005.412h.081a3.222,3.222,0,0,1,.764-.024c.087.064.032.111-.019.159-.355.14-.73,0-1.09.076a.264.264,0,0,1-.084.078.376.376,0,0,1-.18.018c-.53-.007-1.061-.005-1.59-.057a1.465,1.465,0,0,0-.711-.026.531.531,0,0,1-.172.006.517.517,0,0,0-.371.016,1.439,1.439,0,0,1-.681-.008.632.632,0,0,0-.435,0,1.745,1.745,0,0,1-.685.015.6.6,0,0,0-.424-.036.547.547,0,0,1-.115,0,1.159,1.159,0,0,0-.586.041,2.634,2.634,0,0,1-.8-.005,4.413,4.413,0,0,0-1.423-.005,1.356,1.356,0,0,1-.544.006,1.706,1.706,0,0,0-.58-.053,1.452,1.452,0,0,0-.511.051,1.584,1.584,0,0,1-.594,0,2.7,2.7,0,0,0-1-.025.545.545,0,0,1-.178.007.5.5,0,0,0-.376.018,7.518,7.518,0,0,1-1.874,0,.466.466,0,0,0-.36-.026.494.494,0,0,1-.163,0,1.093,1.093,0,0,0-.588.007,15.2,15.2,0,0,1-2.02.062.515.515,0,0,1-.106-.006.758.758,0,0,0-.358,0,.352.352,0,0,1-.1,0c-.068-.017-.132-.044-.2-.067a.6.6,0,0,0-.5.06,2.236,2.236,0,0,1-.425.021.777.777,0,0,0-.428.015.406.406,0,0,1-.231-.032,1.463,1.463,0,0,0-.962-.034.392.392,0,0,1-.392-.1.159.159,0,0,1,.068-.2,5.361,5.361,0,0,1,1.535.01c2.2-.068,4.394-.083,6.592-.068a7.62,7.62,0,0,1,1.188.059,2.937,2.937,0,0,0,1.145-.057c.048,0,.1,0,.146,0,.161,0,.323.005.483,0h.2c.108,0,.217,0,.326,0,.067,0,.134,0,.2-.006.141,0,.28,0,.421,0,.715,0,1.428.007,2.141,0,.289,0,.569.152.86.037a1.878,1.878,0,0,1,.515-.04c.267.016.533.008.8,0h.226c1.091,0,2.182.1,3.273.032a.5.5,0,0,1,.342.07.091.091,0,0,0,.076.007A.785.785,0,0,1-4368.431-3005.412Z" transform="translate(4395.383 3013.435)" fill="#448fb1"/>
      <path id="Path_42556" data-name="Path 42556" d="M-4410.7-2980.323c.108.014.23-.03.32.069-2.018.006-4.036.016-6.054.016q-8.068,0-16.135,0c-.132,0-.266.007-.4.011-.372-.065-.761.076-1.126-.089l.647-.01c.345,0,.691-.254,1.037,0h20.113a1.147,1.147,0,0,1,.637,0h.319A1.13,1.13,0,0,1-4410.7-2980.323Z" transform="translate(4436.458 2990.351)" fill="#b3d6e7"/>
      <path id="Path_42557" data-name="Path 42557" d="M-4215.688-3039.971a1,1,0,0,1,1.313.164,1.119,1.119,0,0,1,.1,1.408c-.181.262-.518.165-.773.264h0c.166-.183.378-.324.451-.584a.653.653,0,0,0-.23-.674.489.489,0,0,0-.584-.084c-.316.126-.323.408-.253.669.06.223.286.2.472.189a.209.209,0,0,0,.195-.215c.007-.1-.047-.191-.169-.115-.029.018,0,.12-.033.143-.077.058-.208.068-.25,0-.03-.048-.122-.1-.067-.229.075-.174.142-.32.353-.289a.4.4,0,0,1,.356.412c.015.25-.052.477-.322.516-.218.032-.48.126-.643-.154a.946.946,0,0,1,0-1.012.774.774,0,0,1,.888-.176.75.75,0,0,1,.5.845c-.012.09-.016.18-.025.293.4-.352.182-.713-.006-.988a.9.9,0,0,0-.957-.422c-.1.022-.208.026-.313.039Z" transform="translate(4235.697 3045.29)" fill="#eee"/>
      <path id="Path_42558" data-name="Path 42558" d="M-4426.008-3012.222c.024-.556.419-.818.854-1.006.2-.087.476-.108.582.207a.4.4,0,0,1,.027.315c-.134.011-.124.079-.062.166a.509.509,0,0,1-.145.274.69.69,0,0,0-.136.326.5.5,0,0,1-.146.284c-.114.041-.144-.072-.211-.114a.074.074,0,0,0-.057-.029c0,.079.08.075.118.118a.448.448,0,0,1,.016.594.21.21,0,0,1-.151-.05c-.057-.029-.108-.135-.177-.012-.089.106-.14.028-.194-.038a.5.5,0,0,1-.317-.56A.616.616,0,0,0-4426.008-3012.222Z" transform="translate(4429.017 3020.575)" fill="#f3f3f4"/>
      <path id="Path_42559" data-name="Path 42559" d="M-4381.459-3047.843c.006.223-.139.26-.316.256-1.232-.029-2.465.057-3.7-.044-.193-.016-.387.093-.586.014-.17-.067-.4-.124-.375-.337s.27-.289.458-.29c1.4,0,2.811.011,4.216.018.173,0,.331,0,.305.243a.235.235,0,0,1-.14.037c-1.239-.018-2.48,0-3.718-.008-.041,0-.083,0-.123,0a1.4,1.4,0,0,0-.462,0c-.131.044-.027.072.03.09l.125,0c1.3-.012,2.593-.005,3.888-.006A1.237,1.237,0,0,1-4381.459-3047.843Z" transform="translate(4392.6 3052.746)" fill="#e9f5f9"/>
      <path id="Path_42560" data-name="Path 42560" d="M-4379.494-3006.941l-5.13.016-5.487.016a.087.087,0,0,1-.1-.032c.007-.16.126-.173.246-.188a4.7,4.7,0,0,1,.808-.039c.17.308.428.02.649.092.318.106.672-.088,1,.024.137.046.216-.2.347-.039.1.065.108-.049.16-.078.24.226.478.133.717,0,.585,0,1.171-.011,1.755,0h0c.251.163.518.041.778.045a14.534,14.534,0,0,1,2.893.036c.355.089.712.209,1.039-.08C-4379.684-3007.127-4379.383-3007.325-4379.494-3006.941Z" transform="translate(4396.072 3014.962)" fill="#d1e8f0"/>
      <path id="Path_42561" data-name="Path 42561" d="M-4306.488-3012.514a25.4,25.4,0,0,1-2.873,0c-.027-.017-.037-.035-.027-.052s.019-.026.027-.026a.886.886,0,0,1,1.192-.392.318.318,0,0,0,.267.024A1.1,1.1,0,0,1-4306.488-3012.514Z" transform="translate(4321.708 3020.387)" fill="#f3f4f4"/>
      <path id="Path_42562" data-name="Path 42562" d="M-4242.006-3017.866l-.4,0c-.1-.05-.165-.112-.076-.226,0-.185,0-.369,0-.554-.005-.254.176-.342.368-.393a.309.309,0,0,1,.408.22c.057.265.2.268.425.255.555-.034.708.071.795.472-.005.02-.011.04-.017.06-.066.078-.13.166-.251.087a.937.937,0,0,1-.019-.184c-.355-.177-.736-.031-1.1-.088-.142-.089-.069-.231-.076-.272.014.041-.073.189.084.274.275.014.549,0,.824.008.1,0,.216-.037.268.1-.017.19-.165.171-.292.176-.273.011-.548-.009-.821.012A.381.381,0,0,0-4242.006-3017.866Z" transform="translate(4260.176 3025.886)" fill="#f3f3f3"/>
      <path id="Path_42563" data-name="Path 42563" d="M-4383.32-3057.734a.448.448,0,0,1-.566.366,11.17,11.17,0,0,0-1.548-.045c-.818-.023-1.637-.021-2.455-.041-.2-.005-.294-.247-.574-.211a.977.977,0,0,1,.8-.4c1.3.011,2.605,0,3.908.006.162,0,.362-.061.427.181-.923.025-1.846,0-2.77.008-.555.005-1.111-.007-1.665.007-.049.007-.122.015-.129.061-.014.086.074.083.132.1,1.254.015,2.508,0,3.761.008a4.451,4.451,0,0,0,.545-.086A.2.2,0,0,1-4383.32-3057.734Z" transform="translate(4394.468 3061.777)" fill="#e9f5f9"/>
      <path id="Path_42564" data-name="Path 42564" d="M-4406.993-3023.61c.04-.238.178-.356.417-.3.213.05.389.133.351.427-.027.218.034.447.024.669-.011.243.078.378.323.4a.086.086,0,0,1-.024.118.745.745,0,0,1-.531.032c-.105-.041-.225-.063-.277-.184-.008-.374,0-.747,0-1.005-.024.25.01.62-.008.987-.134.162-.176,0-.24-.069A6.075,6.075,0,0,0-4406.993-3023.61Z" transform="translate(4411.518 3030.366)" fill="#f2f2f3"/>
      <path id="Path_42565" data-name="Path 42565" d="M-4375.5-3045.369a.493.493,0,0,1-.333.1l-4.123-.013c.14-.283.453-.135.654-.265,1.12,0,2.24,0,3.359,0a.815.815,0,0,1,.389.033.276.276,0,0,1,.06.007C-4375.49-3045.462-4375.492-3045.416-4375.5-3045.369Z" transform="translate(4386.635 3050.272)" fill="#2b95cc"/>
      <path id="Path_42566" data-name="Path 42566" d="M-4339.244-3012.592a3.2,3.2,0,0,1-1.755,0A1.036,1.036,0,0,1-4339.244-3012.592Z" transform="translate(4350.792 3020.385)" fill="#f6f5f6"/>
      <path id="Path_42567" data-name="Path 42567" d="M-4382.173-3056.855c.1-.089.227-.062.343-.062,1.275,0,2.549,0,3.824,0a.956.956,0,0,1,.463.1c0,.045.007.092.011.138a.33.33,0,0,1-.059.009.172.172,0,0,1-.145.005c-1.428.011-2.857.055-4.286-.021A.238.238,0,0,1-4382.173-3056.855Z" transform="translate(4388.68 3060.729)" fill="#1794cf"/>
      <path id="Path_42568" data-name="Path 42568" d="M-4258.559-3012.385c.025.075.051.15.076.226l-.154.005c-.106-.109-.213-.038-.321,0l-.157.005c-.159-.136-.32-.078-.481-.008l-.039,0-.039-.005c.052-.3-.3-.025-.321-.226.116-.471.539-.414.866-.462C-4258.823-3012.892-4258.682-3012.625-4258.559-3012.385Z" transform="translate(4276.252 3020.178)" fill="#f4f4f5"/>
      <path id="Path_42569" data-name="Path 42569" d="M-4196.715-3012.3l-.475,0c-.072-.076.072-.156,0-.232a.889.889,0,0,1,1.214-.387c.1.03.2.045.3.067a.141.141,0,0,1,.032.1c-.069.147-.178.131-.3.068a1.492,1.492,0,0,0-.5-.114,1.138,1.138,0,0,1,.608.2.306.306,0,0,1,.115.194.145.145,0,0,1-.044.1h-.159A1.049,1.049,0,0,0-4196.715-3012.3Z" transform="translate(4218.479 3020.322)" fill="#f1f1f2"/>
      <path id="Path_42570" data-name="Path 42570" d="M-4378.4-3064.426c0,.2-.174.211-.28.212a23.523,23.523,0,0,1-3.46-.04c-.323-.045-.659.075-.972-.076l.053-.055a.409.409,0,0,1,.141-.052c1.389-.031,2.779-.005,4.169-.015A.95.95,0,0,1-4378.4-3064.426Z" transform="translate(4389.543 3067.663)" fill="#e0f3f7"/>
      <path id="Path_42571" data-name="Path 42571" d="M-4383.09-3069.052a6.357,6.357,0,0,1,1.521-.136,16.346,16.346,0,0,1,2.894.061c.124.019.283-.035.3.171a.612.612,0,0,1-.26.021h-.141q-1.854,0-3.709,0a1.115,1.115,0,0,1-.548-.063Z" transform="translate(4389.523 3072.048)" fill="#e0f3f7"/>
      <path id="Path_42572" data-name="Path 42572" d="M-4393-3012.316c0-.022,0-.043,0-.065a1.1,1.1,0,0,1,.615-.581c.371-.158.628.012.662.423-.257.215-.57.063-.853.123a.246.246,0,0,0-.187.106A.148.148,0,0,1-4393-3012.316Z" transform="translate(4398.647 3020.333)" fill="#f1f2f2"/>
      <path id="Path_42573" data-name="Path 42573" d="M-4179.922-3012.438l-.079-.158a1.038,1.038,0,0,1,.673-.269c.065.069.158.064.236.082-.061-.033-.148,0-.205-.062-.183-.1-.361.145-.545.009v-.08c.555-.283.711-.237,1.356.4a.485.485,0,0,1-.4.1C-4179.233-3012.446-4179.578-3012.406-4179.922-3012.438Z" transform="translate(4202.643 3020.389)" fill="#f0f1f1"/>
      <path id="Path_42574" data-name="Path 42574" d="M-4432.391-2985.62h-1.037c.072-.116.214-.053.361-.124-.365-.091-.707.047-1.007-.139a2.689,2.689,0,0,1,1.2.025c.08-.069.29-.015.215-.229.061-.055.142-.039.212-.062a1.307,1.307,0,0,1,.522-.028.357.357,0,0,1,.248.16.241.241,0,0,1-.24.159c-.106-.112-.213-.08-.318,0Z" transform="translate(4436.438 2995.647)" fill="#fbf8ef"/>
      <path id="Path_42575" data-name="Path 42575" d="M-4179.024-3006.293c.471-.168.963.047,1.436-.078.117.128.27.08.407.073.526-.029,1.052-.069,1.577-.1.133-.009.231.033.255.18h-3.677C-4179.026-3006.246-4179.024-3006.27-4179.024-3006.293Z" transform="translate(4201.747 3014.244)" fill="#cbe4ed"/>
      <path id="Path_42576" data-name="Path 42576" d="M-4217.434-3013.982c.3.062.345-.173.45-.363s-.148-.092-.132-.194a1.11,1.11,0,0,1,.64,0c-.111.08-.111.16,0,.246a.24.24,0,0,1-.222.119.16.16,0,0,1,.167.058c.036-.056-.017-.14.055-.177.149.055.171.177.162.315-.059.059-.031.208-.164.189a4.511,4.511,0,0,0-.828,0c-.125.006-.216-.042-.125-.192Z" transform="translate(4237.124 3021.774)" fill="#f0f0f0"/>
      <path id="Path_42577" data-name="Path 42577" d="M-4234.513-3006.98c.006.025,0,.062.021.073a1.988,1.988,0,0,0,1.1-.073c.161.331.321.1.48,0,.126.075.023.154,0,.231l-3.119-.006c0-.023,0-.046,0-.068a4.324,4.324,0,0,1,1.275,0Z" transform="translate(4254.201 3014.774)" fill="#cbe4ed"/>
      <path id="Path_42578" data-name="Path 42578" d="M-4108.427-3073.47a.556.556,0,0,1-.785.03.56.56,0,0,1-.107-.774.265.265,0,0,1,.187.089c.038.141-.015.308.124.418.139.125.312.06.47.082C-4108.469-3073.6-4108.391-3073.575-4108.427-3073.47Z" transform="translate(4137.699 3076.643)" fill="#3892b1"/>
      <path id="Path_42579" data-name="Path 42579" d="M-4107.943-3077.356a.16.16,0,0,1-.164-.1c.4-.429.809-.363,1.051.173a.151.151,0,0,1-.15.046c-.158-.065-.281-.23-.484-.167-.032.011-.065.02-.1.029A.4.4,0,0,1-4107.943-3077.356Z" transform="translate(4136.488 3079.879)" fill="#398ba8"/>
      <path id="Path_42580" data-name="Path 42580" d="M-4364.392-3012.018c-.017.1-.033.2-.159.079-.042-.344-.338-.337-.571-.39a2.588,2.588,0,0,0-.519-.006A.925.925,0,0,1-4364.392-3012.018Z" transform="translate(4373.467 3019.812)" fill="#f0eeef"/>
      <path id="Path_42581" data-name="Path 42581" d="M-4110.927-2998.692l-.239.08c-.074.042-.089-.007-.1-.063a2.019,2.019,0,0,1,.1-.183,2.195,2.195,0,0,0-.01-.806.283.283,0,0,1,.068-.215c.143.092.136.252.178.389q.039.319.079.638A.176.176,0,0,1-4110.927-2998.692Z" transform="translate(4139.395 3008.24)" fill="#d6eaef"/>
      <path id="Path_42582" data-name="Path 42582" d="M-4148.047-3012.784c.288-.335.6-.258,1.011-.051C-4147.432-3012.718-4147.75-3012.946-4148.047-3012.784Z" transform="translate(4173.24 3020.326)" fill="#efeff0"/>
      <path id="Path_42583" data-name="Path 42583" d="M-4421.527-2987.4c.09.251-.067.253-.24.239.029-.2-.243-.216-.241-.4.054.006.108.089.161,0a.172.172,0,0,1,.237,0l.083.081c.024.017.032.035.024.053S-4421.52-2987.4-4421.527-2987.4Z" transform="translate(4425.336 2996.945)" fill="#f4eaf3"/>
      <path id="Path_42584" data-name="Path 42584" d="M-4318.2-3007.753v.079c-.272.036-.56.233-.8-.079C-4318.733-3007.7-4318.467-3007.925-4318.2-3007.753Z" transform="translate(4330.546 3015.546)" fill="#f6f5f6"/>
      <path id="Path_42585" data-name="Path 42585" d="M-4408.593-3019.984a2.591,2.591,0,0,1,.079,1.039c-.035.062-.074.116-.158.076.026-.105-.146-.211,0-.318C-4408.509-3019.439-4408.631-3019.719-4408.593-3019.984Z" transform="translate(4413.118 3026.74)" fill="#e9e2dd"/>
      <path id="Path_42586" data-name="Path 42586" d="M-4099.2-3072.054h.172a.446.446,0,0,1-.159.572.209.209,0,0,0-.184-.1.142.142,0,0,1,0-.1C-4099.3-3071.8-4099.3-3071.949-4099.2-3072.054Z" transform="translate(4128.458 3074.655)" fill="#3094c1"/>
      <path id="Path_42587" data-name="Path 42587" d="M-4112.338-3001.172c.007.078.013.157.02.235-.051.25,0,.507-.04.758a.09.09,0,0,1-.1.056.2.2,0,0,1-.083-.1,5.511,5.511,0,0,1-.062-.75.5.5,0,0,1,.1-.291.084.084,0,0,1,.111-.008Z" transform="translate(4140.628 3009.533)" fill="#3ca5bf"/>
      <path id="Path_42588" data-name="Path 42588" d="M-4116.253-3066.881c.094,0,.18.038.181.123,0,.133-.118.161-.221.159-.072,0-.178-.039-.178-.118C-4116.471-3066.848-4116.337-3066.848-4116.253-3066.881Z" transform="translate(4144.184 3069.895)" fill="#f7faf1"/>
      <path id="Path_42589" data-name="Path 42589" d="M-4221-3031.18c-.3-.283-.137-.584-.05-.883a2.39,2.39,0,0,0,.051.883Z" transform="translate(4240.529 3037.855)" fill="#eee"/>
      <path id="Path_42590" data-name="Path 42590" d="M-4110.208-3005.6c.006-.12,0-.263.185-.211a.169.169,0,0,1,.12.219c-.052.187-.189.073-.293.076-.023-.016-.033-.034-.028-.053S-4110.214-3005.6-4110.208-3005.6Z" transform="translate(4138.437 3013.709)" fill="#fcfae8"/>
      <path id="Path_42591" data-name="Path 42591" d="M-4124.209-3005.419l-.788-.038c.322-.054.644-.232.966,0l-.032.04A.139.139,0,0,1-4124.209-3005.419Z" transform="translate(4152.029 3013.479)" fill="#cbe4ed"/>
      <path id="Path_42592" data-name="Path 42592" d="M-4116.038-3073.019c-.09-.1-.214-.149-.174-.307,0-.015.072-.032.1-.021C-4115.964-3073.287-4115.919-3073.189-4116.038-3073.019Z" transform="translate(4143.952 3075.848)" fill="#f7faf1"/>
      <path id="Path_42593" data-name="Path 42593" d="M-4105.679-2995.276c-.212.158-.311.09-.317-.16C-4105.8-2995.562-4105.782-2995.335-4105.679-2995.276Z" transform="translate(4134.544 3004.187)" fill="#f7f7de"/>
      <path id="Path_42594" data-name="Path 42594" d="M-4364.567-3008.931c-.216.064-.433.016-.641.082C-4365.009-3009.049-4364.776-3008.914-4364.567-3008.931Z" transform="translate(4373.068 3016.596)" fill="#e9e4e2"/>
      <path id="Path_42595" data-name="Path 42595" d="M-4214.2-3015.84h-.639a.273.273,0,0,1-.159-.16,2.2,2.2,0,0,0,.8.08h0Z" transform="translate(4234.848 3023.074)" fill="#eee"/>
      <path id="Path_42596" data-name="Path 42596" d="M-4218.687-3020.6a.341.341,0,0,1-.32-.4h0Z" transform="translate(4238.537 3027.676)" fill="#eee"/>
      <path id="Path_42597" data-name="Path 42597" d="M-4385.449-3066.755c-.1-.023-.216-.054-.2-.187.011-.1.11-.133.2-.148l.021.025a.415.415,0,0,1-.007.292Z" transform="translate(4391.881 3070.087)" fill="#e0f3f7"/>
      <path id="Path_42598" data-name="Path 42598" d="M-4216.333-3038a.406.406,0,0,1-.289.231c.011-.229.149-.231.289-.231Z" transform="translate(4236.342 3043.32)" fill="#eee"/>
      <path id="Path_42599" data-name="Path 42599" d="M-4327.289-3066.758l.154.069c0,.048,0,.1,0,.144-.072.045-.141.1-.235.077a.09.09,0,0,1-.029-.085A.339.339,0,0,1-4327.289-3066.758Z" transform="translate(4338.278 3069.781)" fill="#2a94c5"/>
      <path id="Path_42600" data-name="Path 42600" d="M-4452.762-3099.01l.075.067-.229.184-.085-.171Z" transform="translate(4453.855 3099.46)" fill="#3194b6"/>
      <path id="Path_42601" data-name="Path 42601" d="M-4426-2999.988a.358.358,0,0,1,0,.477Z" transform="translate(4429.004 3008.341)" fill="#e2e2e1"/>
      <path id="Path_42602" data-name="Path 42602" d="M-4131.527-3005.039l-.479.006A.389.389,0,0,1-4131.527-3005.039Z" transform="translate(4158.479 3013.061)" fill="#cbe4ed"/>
      <path id="Path_42603" data-name="Path 42603" d="M-4321.964-3066.914a.187.187,0,0,1,.023.238C-4322.033-3066.747-4321.958-3066.833-4321.964-3066.914Z" transform="translate(4333.297 3069.925)" fill="#e0f3f7"/>
      <path id="Path_42604" data-name="Path 42604" d="M-4112.934-3004.025l.012.084c0,.024-.006.049-.009.074l-.07-.019a.178.178,0,0,1-.187-.2l.023-.028Z" transform="translate(4141.163 3012.133)" fill="#cbe4ed"/>
      <path id="Path_42605" data-name="Path 42605" d="M-4165.85-2895.792c-.322-.142-.23-.424-.253-.662A.875.875,0,0,1-4165.85-2895.792Z" transform="translate(4189.854 2913.07)" fill="#f5f9ef"/>
      <path id="Path_42606" data-name="Path 42606" d="M-4156.241-2949l.1-.009c.115.084.068.209.078.319-.184.18.018.446-.141.631C-4156.217-2948.368-4156.228-2948.682-4156.241-2949Z" transform="translate(4180.779 2961.426)" fill="#2895ce"/>
      <path id="Path_42607" data-name="Path 42607" d="M-4168.218-2944.474c0-.056,0-.113,0-.17a.445.445,0,0,1-.03-.534.077.077,0,0,1,.119-.023A.825.825,0,0,1-4168.218-2944.474Z" transform="translate(4191.901 2957.944)" fill="#1787c2"/>
      <path id="Path_42608" data-name="Path 42608" d="M-4167.8-2949.711h-.088a.046.046,0,0,1-.077,0c0-.136,0-.272,0-.408A.519.519,0,0,1-4167.8-2949.711Z" transform="translate(4191.569 2962.453)" fill="#3197bd"/>
      <path id="Path_42609" data-name="Path 42609" d="M-4294.927-2933.415c.066.229.278.4.132.663-.031.053-.023.139-.116.13a.137.137,0,0,1-.124-.132A.846.846,0,0,1-4294.927-2933.415Z" transform="translate(4308.511 2947.081)" fill="#f9faec"/>
      <path id="Path_42610" data-name="Path 42610" d="M-4291.7-2902.6c-.051-.084-.1-.169-.154-.253q-.036-.241-.072-.482c.024-.037.049-.037.072,0a.887.887,0,0,1,.162.639C-4291.657-2902.662-4291.66-2902.63-4291.7-2902.6Z" transform="translate(4305.639 2919.428)" fill="#3395bb"/>
      <path id="Path_42611" data-name="Path 42611" d="M-4284.908-2946c0,.159,0,.318,0,.477h-.155l-.007-.479Z" transform="translate(4299.327 2958.659)" fill="#1ca8be"/>
      <path id="Path_42612" data-name="Path 42612" d="M-4292.472-2910.31h-.074a.97.97,0,0,1,0-.632C-4292.395-2910.747-4292.506-2910.52-4292.472-2910.31Z" transform="translate(4306.254 2926.402)" fill="#1886b6"/>
      <path id="Path_42613" data-name="Path 42613" d="M-4235.661-2896.965a3.4,3.4,0,0,1-.33-1.028c.125.054.147.161.167.283a4.788,4.788,0,0,0,.46,1.018C-4235.524-2896.715-4235.562-2896.872-4235.661-2896.965Z" transform="translate(4254.164 2914.486)" fill="#d1edf5"/>
      <path id="Path_42614" data-name="Path 42614" d="M-4227.152-2888.757c-.145-.013-.344.025-.238-.239a.11.11,0,0,1,0-.159c.447-.088.147.272.237.4Z" transform="translate(4246.282 2906.366)" fill="#faf7f9"/>
      <path id="Path_42615" data-name="Path 42615" d="M-4230.006-2893.223c0,.053,0,.106,0,.159-.428-.062-.208-.3-.171-.526A.372.372,0,0,1-4230.006-2893.223Z" transform="translate(4248.897 2910.435)" fill="#f9f9ea"/>
      <path id="Path_42616" data-name="Path 42616" d="M-4223.942-2889.246c.2.228.185.418-.094.566,0-.049,0-.1,0-.148h0C-4223.9-2888.944-4223.979-2889.109-4223.942-2889.246Z" transform="translate(4243.164 2906.437)" fill="#d1edf5"/>
      <path id="Path_42617" data-name="Path 42617" d="M-4135.018-2979.119a4.848,4.848,0,0,1,1.914.019Z" transform="translate(4161.25 2989.217)" fill="#b3d6e7"/>
      <path id="Path_42618" data-name="Path 42618" d="M-4109.076-2978.933c.042-.185.19-.142.313-.144.4-.006.806-.006,1.208-.009l.238.005c-.271.158-.568.06-.853.085A3.253,3.253,0,0,0-4109.076-2978.933Z" transform="translate(4137.379 2989.107)" fill="#b3d6e7"/>
      <path id="Path_42619" data-name="Path 42619" d="M-4457.924-3089c.2.028.158.183.158.309q0,2.883,0,5.768c0,.126.04.28-.158.309a.777.777,0,0,1-.081-.424q0-2.77,0-5.538A.77.77,0,0,1-4457.924-3089Z" transform="translate(4458.458 3090.246)" fill="#12a0cb"/>
      <path id="Path_42620" data-name="Path 42620" d="M-4171.642-2945.014l.076,0q0,.279,0,.558c-.229.278-.113.671-.317.957a6.565,6.565,0,0,0-.069-1.291c-.026-.12.005-.211.147-.225Z" transform="translate(4195.246 2957.754)" fill="#179fd3"/>
      <path id="Path_42621" data-name="Path 42621" d="M-4287-2908v-.24c.11-.01.115-.331.272-.125a.416.416,0,0,1-.019.516C-4286.937-2907.649-4286.889-2907.983-4287-2908Z" transform="translate(4301.103 2924.089)" fill="#2292d3"/>
      <path id="Path_42622" data-name="Path 42622" d="M-4289.085-2894.908c0-.031.005-.063.007-.095h.079c.054.159.106.319.159.478h-.061A.862.862,0,0,1-4289.085-2894.908Z" transform="translate(4303.021 2911.734)" fill="#2b90b9"/>
      <path id="Path_42623" data-name="Path 42623" d="M-4365.9-2925.581l-.093,0c.117-.109,0-.351.223-.4A.858.858,0,0,1-4365.9-2925.581Z" transform="translate(4373.788 2940.242)" fill="#3192c1"/>
      <path id="Path_42624" data-name="Path 42624" d="M-4244-2986.177c.169-.154.375-.048.561-.081a.346.346,0,0,1,.333-.182c.195-.005.39-.007.585,0a1.123,1.123,0,0,0,.447.007c.371-.031.742-.01,1.113-.019.265,0,.531,0,.8,0,.367,0,.733,0,1.1,0a6.289,6.289,0,0,1,1.38.07c.1.045.262.034.221.222-.206.112-.431.038-.645.06-.507.019-1.014,0-1.52,0a2.127,2.127,0,0,1-.536.009,5.414,5.414,0,0,0-.791,0,1.725,1.725,0,0,1-.457,0c-.306-.006-.611,0-.916.009s-.632-.016-.948,0C-4243.52-2986.116-4243.773-2986.037-4244-2986.177Z" transform="translate(4261.534 2995.886)" fill="#fcfbf8"/>
      <path id="Path_42625" data-name="Path 42625" d="M-4359.178-2985.086a.464.464,0,0,1-.559,0c-.331-.214-.693-.031-1.037-.08h-.239a2.789,2.789,0,0,1-.54-.021c-.027,0-.049-.029-.08-.012.056.018.086.051.061.113a5.334,5.334,0,0,1-1.449.076c-.192.006-.2-.371-.467-.235a3.991,3.991,0,0,1-1.406.055.111.111,0,0,1-.109-.135l.421-.013a.331.331,0,0,1,.208-.089c1.621-.013,3.242-.021,4.862,0C-4359.3-2985.414-4359.315-2985.174-4359.178-2985.086Z" transform="translate(4372.881 2994.955)" fill="#fcfbf8"/>
      <path id="Path_42626" data-name="Path 42626" d="M-4229.447-2983h.959a.611.611,0,0,0,.479,0h.639a.824.824,0,0,0,.558,0h1.6c.043.044.129.068.08.159-.829.011-1.659.005-2.486.022a11.6,11.6,0,0,0-2.251.044c-.037.008-.087-.042-.131-.065.007-.018.015-.035.022-.052C-4229.826-2983.038-4229.611-2982.886-4229.447-2983Z" transform="translate(4248.655 2992.707)" fill="#f8faf1"/>
      <path id="Path_42627" data-name="Path 42627" d="M-4295.043-2985.952c-.087,0-.187.017-.245-.064-.07-.1.073-.108.085-.176a4.309,4.309,0,0,1,.862-.028.862.862,0,0,0,.458-.086.651.651,0,0,1,.675.035c0,.052,0,.1,0,.157a.8.8,0,0,0,.558,0c.06-.091.153-.075.24-.077.051.05.176.034.157.141s-.113.14-.212.136a10.427,10.427,0,0,1-1.381-.036Z" transform="translate(4308.746 2995.821)" fill="#f4f8ed"/>
      <path id="Path_42628" data-name="Path 42628" d="M-4288.761-2988.253c-.216,0-.437-.076-.643.051a1.677,1.677,0,0,1-1.063-.079.155.155,0,0,1,.07-.186,4.422,4.422,0,0,1,1.218-.055c.54-.007,1.081-.025,1.621.014a2.027,2.027,0,0,0,.509.07c.127,0,.273-.016.34.142Z" transform="translate(4304.299 2997.803)" fill="#2681b3"/>
      <path id="Path_42629" data-name="Path 42629" d="M-4164.963-2986.175c-.062-.1-.166-.075-.256-.093.048-.168.193-.17.321-.17a10.533,10.533,0,0,1,1.352.02.3.3,0,0,1,.114.067.2.2,0,0,1,.029.118c-.046.194-.281.077-.361.217h-1.119A.4.4,0,0,0-4164.963-2986.175Z" transform="translate(4189.042 2995.883)" fill="#f7f9f2"/>
      <path id="Path_42630" data-name="Path 42630" d="M-4388.187-2988.266l-1.689-.009c-.081-.022-.191.026-.232-.083-.019-.05.036-.086.081-.111a6.7,6.7,0,0,1,1.8.014A.123.123,0,0,1-4388.187-2988.266Z" transform="translate(4395.985 2997.791)" fill="#2381b3"/>
      <path id="Path_42631" data-name="Path 42631" d="M-4367.214-2984a5.967,5.967,0,0,0,1.515.08c-.045.046-.089.13-.137.133a4.667,4.667,0,0,1-1.423-.035c-.061-.016-.189-.005-.135-.129C-4367.377-2983.986-4367.277-2983.983-4367.214-2984Z" transform="translate(4375.092 2993.626)" fill="#eef4e9"/>
      <path id="Path_42632" data-name="Path 42632" d="M-4276.986-2983.755c.442,0,.886,0,1.329,0,.2,0,.286-.063.106-.238h1.024c-.228.127-.5,0-.544.093-.177.337-.458.211-.706.223-.3.013-.61,0-.916,0C-4276.8-2983.678-4276.908-2983.656-4276.986-2983.755Z" transform="translate(4291.888 2993.625)" fill="#fcfbf8"/>
      <path id="Path_42633" data-name="Path 42633" d="M-4366-2988.314v-.129a2.327,2.327,0,0,1,1.313-.074.2.2,0,0,1,.131.234c-.271.086-.559-.023-.83.063l-.113,0C-4365.641-2988.375-4365.833-2988.262-4366-2988.314Z" transform="translate(4373.794 2997.838)" fill="#217eaf"/>
      <path id="Path_42634" data-name="Path 42634" d="M-4133.65-2986.243a1.3,1.3,0,0,1-.857.042.782.782,0,0,0-.579.037l-.059-.038c-.048-.067-.055-.128.026-.176a4.957,4.957,0,0,1,1.112-.055.8.8,0,0,1,.4.069C-4133.532-2986.291-4133.548-2986.25-4133.65-2986.243Z" transform="translate(4161.4 2995.871)" fill="#d6eaef"/>
      <path id="Path_42635" data-name="Path 42635" d="M-4107-2986.846a.167.167,0,0,1,.08-.16c.13.162.338.26.4.479C-4106.987-2986.405-4106.987-2986.405-4107-2986.846Z" transform="translate(4135.47 2996.395)" fill="#fff"/>
      <path id="Path_42636" data-name="Path 42636" d="M-4312-2983.116a1.953,1.953,0,0,1,1.071-.043c.125.015.069.1-.033.123C-4311.309-2983.106-4311.669-2982.953-4312-2983.116Z" transform="translate(4324.11 2992.904)" fill="#f4f8ed"/>
      <path id="Path_42637" data-name="Path 42637" d="M-4245.262-2983h.718c.1.133.346-.094.4.159h0a6.153,6.153,0,0,1-1.083,0C-4245.448-2982.843-4245.38-2982.919-4245.262-2983Z" transform="translate(4262.796 2992.707)" fill="#f8faf1"/>
      <path id="Path_42638" data-name="Path 42638" d="M-4402.33-2988.395l.226.12-.3.028c-.082-.012-.163.055-.247.008h-.634c-.1.019-.112-.05-.114-.125a.174.174,0,0,1,.094-.1A1.344,1.344,0,0,1-4402.33-2988.395Z" transform="translate(4408.211 2997.791)" fill="#2888ae"/>
      <path id="Path_42639" data-name="Path 42639" d="M-4147.019-2984.144c-.029-.324.226-.08.319-.159a.63.63,0,0,1,.718,0h0c-.028.053-.054.107-.081.161h-.958Z" transform="translate(4172.295 2994.011)" fill="#edf4e4"/>
      <path id="Path_42640" data-name="Path 42640" d="M-4252.227-2988.328c-.246-.118-.533.06-.773-.109a2.854,2.854,0,0,1,1.426-.087.235.235,0,0,1,.108.086c-.017.174-.181.085-.261.146Z" transform="translate(4269.816 2997.835)" fill="#2182b4"/>
      <path id="Path_42641" data-name="Path 42641" d="M-4135-2981.658a3.881,3.881,0,0,1,1.351.049,3.894,3.894,0,0,1-1.351-.048Z" transform="translate(4161.23 2991.526)" fill="#fff"/>
      <path id="Path_42642" data-name="Path 42642" d="M-4169.354-2983.008c.14,0,.121.073.08.16h-.638l-.079-.159Z" transform="translate(4193.432 2992.716)" fill="#ecf3e3"/>
      <path id="Path_42643" data-name="Path 42643" d="M-4116-2985.731l.081-.081a.22.22,0,0,1,.318,0l.08.083c-.1.1-.206.189-.312.289C-4115.957-2985.5-4115.928-2985.647-4116-2985.731Z" transform="translate(4143.75 2995.36)" fill="#fff"/>
      <path id="Path_42644" data-name="Path 42644" d="M-4324.244-2982.9l-.195-.138a1.277,1.277,0,0,1,.753.058C-4323.854-2982.832-4324.058-2982.936-4324.244-2982.9Z" transform="translate(4335.553 2992.772)" fill="#f4f8ed"/>
      <path id="Path_42645" data-name="Path 42645" d="M-4268.443-2983.033a.447.447,0,0,1-.558,0Z" transform="translate(4284.54 2992.739)" fill="#e0e8d8"/>
      <path id="Path_42646" data-name="Path 42646" d="M-4148.358-2980.067H-4149A.6.6,0,0,1-4148.358-2980.067Z" transform="translate(4174.113 2990.094)" fill="#f7f9f2"/>
      <path id="Path_42647" data-name="Path 42647" d="M-4160.351-2980.066h-.637A.6.6,0,0,1-4160.351-2980.066Z" transform="translate(4185.148 2990.093)" fill="#f7f9f2"/>
      <path id="Path_42648" data-name="Path 42648" d="M-4406.81-2986.763l.089.071a.174.174,0,0,1-.161.078l-.25-.086C-4407.058-2986.9-4406.94-2986.858-4406.81-2986.763Z" transform="translate(4411.646 2996.243)" fill="#c5e2f2"/>
      <path id="Path_42649" data-name="Path 42649" d="M-4101-2980.864h.54C-4100.643-2980.817-4100.827-2980.738-4101-2980.864Z" transform="translate(4129.949 2990.743)" fill="#fff"/>
      <path id="Path_42650" data-name="Path 42650" d="M-4410.992-2983.867c.105-.16.212-.267.318,0Z" transform="translate(4415.199 2993.655)" fill="#f4eaf3"/>
      <path id="Path_42651" data-name="Path 42651" d="M-4104.659-2990.427a.3.3,0,0,1-.1.047c-.069,0-.08-.053-.064-.1.007-.025.047-.04.074-.06C-4104.726-2990.515-4104.707-2990.488-4104.659-2990.427Z" transform="translate(4133.469 2999.648)" fill="#fff"/>
      <path id="Path_42652" data-name="Path 42652" d="M-4237.044-2986.009c.064-.081.159-.058.243-.069.074-.035.091,0,.089.069l-.326.084Z" transform="translate(4255.134 2995.552)" fill="#c5e2f2"/>
      <path id="Path_42653" data-name="Path 42653" d="M-4394.022-2985.656c.083-.025.161-.116.247-.008C-4393.855-2985.559-4393.937-2985.556-4394.022-2985.656Z" transform="translate(4399.583 2995.208)" fill="#c5e2f2"/>
      <path id="Path_42654" data-name="Path 42654" d="M-4390.241-3002.919h.083a.5.5,0,0,1,.4,0l.722,0a.468.468,0,0,1,.4,0,2.914,2.914,0,0,0,.72,0c.11-.088.217.021.326.011l.153-.01a1.425,1.425,0,0,1,.717,0c.561.048,1.126-.033,1.685.068.292.16.607.014.907.068.161.029.4-.045.382.252a.175.175,0,0,1-.12.057c-.414-.029-.829-.01-1.242-.014-.163,0-.325,0-.488,0-.188,0-.377,0-.566,0-.049,0-.1,0-.147,0-.872,0-1.743,0-2.615,0q-.365,0-.73,0-.322,0-.643,0c-.164,0-.329,0-.493,0-.21,0-.422,0-.632,0q-.283,0-.567,0h-.507q-.783,0-1.566,0c-.431,0-.86,0-1.29,0q-1.937,0-3.87,0c-.4,0-.8,0-1.2,0q-.551,0-1.1,0c-.072,0-.144,0-.217,0-.427,0-.854,0-1.28,0-.159,0-.318-.006-.477,0a1.016,1.016,0,0,1-.274.015c-.625-.044-1.251-.007-1.876-.019-.067,0-.134,0-.2,0-.15,0-.3,0-.453,0-.042,0-.083,0-.125,0-.1,0-.208,0-.311-.006a.425.425,0,0,1-.23-.066c-.077-.2.116-.207.2-.294a.2.2,0,0,1,.111,0,.517.517,0,0,0,.358.124c-.093-.022-.2-.014-.225-.146a.206.206,0,0,1,.2-.111c.175,0,.35,0,.525,0a.3.3,0,0,1,.245.085l.4-.005a1.712,1.712,0,0,1,.795-.005c.044.15-.077.151-.16.154a2.568,2.568,0,0,1-.5.006c.591.023,1.276-.028,1.96-.034a2.737,2.737,0,0,0,1.1-.051,7.941,7.941,0,0,1,1.4-.028,5.62,5.62,0,0,0,.664-.046,1.1,1.1,0,0,1,.639,0h.157a.4.4,0,0,1,.324,0,14.542,14.542,0,0,0,1.913-.005c.108-.086.214-.016.321,0l.151,0a2.565,2.565,0,0,1,1.05,0l.634,0c.154-.083.321-.022.481-.041a1.919,1.919,0,0,1,.554.033l.559.009a5.088,5.088,0,0,1,1.441,0l.871,0A.849.849,0,0,1-4390.241-3002.919Z" transform="translate(4411.524 3011.109)" fill="#d4eef7"/>
      <path id="Path_42655" data-name="Path 42655" d="M-4307.941-3001.7c-.042-.187-.193-.14-.315-.142q-.409-.007-.819,0c-.134,0-.208-.025-.135-.174l.133.005a2.752,2.752,0,0,1,.972-.069.474.474,0,0,1,.48.32,1.556,1.556,0,0,1,.084.8,1.352,1.352,0,0,1-.814.1c-2.021.011-4.042.023-6.063,0-.293,0-.584.016-.877.012-2.031-.026-4.063-.138-6.094-.063-.889.032-1.776.064-2.664.06-.181,0-.379.036-.516-.138a.18.18,0,0,1,.056-.233c.133-.038.276.047.409-.028a3.521,3.521,0,0,1,.8,0c.106.081.214.037.321,0,.43-.044.86,0,1.289-.013.236.027.473,0,.708.011.139.062.267,0,.4-.035a5.572,5.572,0,0,1,.771-.022c.25.006.5.054.747.041,1.565-.029,3.132.012,4.7,0a.588.588,0,0,0,.316,0c1.091,0,2.182-.034,3.272.006.213.044.42-.058.634-.027a1.74,1.74,0,0,0,.859,0,.74.74,0,0,1,.275.01.948.948,0,0,0,.416.026,1.048,1.048,0,0,0,.359,0c.206.006.407.01.326-.3A.377.377,0,0,1-4307.941-3001.7Z" transform="translate(4335.691 3010.27)" fill="#d5ecf4"/>
      <path id="Path_42656" data-name="Path 42656" d="M-4383.051-3001.915c-.02.13-.1.167-.227.167q-1.58,0-3.162,0l-.007-.17h1.014a.123.123,0,0,1,.127-.043l.23.047a.667.667,0,0,1,.437,0,.529.529,0,0,1,.4-.031,1.193,1.193,0,0,1,.195-.039,1.41,1.41,0,0,1,.523.07.045.045,0,0,1,.046,0,.6.6,0,0,1,.421,0Z" transform="translate(4392.613 3010.18)" fill="#d5ecf4"/>
      <path id="Path_42657" data-name="Path 42657" d="M-4406.234-3004.385l-.237-.011a.9.9,0,0,0-.561,0l-.174.074c-.046.048-.094.06-.144,0l-.038-.006-.039,0c-.107.02-.229.108-.3-.062a.181.181,0,0,1,.092-.213,1.551,1.551,0,0,1,.521.041l.559-.011.237.007.082.029Z" transform="translate(4412.195 3012.584)" fill="#4b91aa"/>
      <path id="Path_42658" data-name="Path 42658" d="M-4116.935-3003.294l-.38-.25a.052.052,0,0,1-.044-.064c.026-.042.074-.055.109-.082l.068-.058.155-.009.186.2C-4116.856-3003.466-4116.834-3003.358-4116.935-3003.294Z" transform="translate(4145.002 3011.808)" fill="#3192cb"/>
      <path id="Path_42659" data-name="Path 42659" d="M-4231.591-3003.124l-1.441,0A2.627,2.627,0,0,1-4231.591-3003.124Z" transform="translate(4251.441 3011.318)" fill="#257fa5"/>
      <path id="Path_42660" data-name="Path 42660" d="M-4191-3006.105c.265-.273.53-.186.8,0A3.041,3.041,0,0,1-4191-3006.105Z" transform="translate(4212.767 3014.129)" fill="#cbe4ed"/>
      <path id="Path_42661" data-name="Path 42661" d="M-4128.749-3003.234l-.089.089a4.158,4.158,0,0,1-1.017,0c.082-.2.249-.071.37-.083A7.063,7.063,0,0,1-4128.749-3003.234Z" transform="translate(4156.5 3011.352)" fill="#2788ae"/>
      <path id="Path_42662" data-name="Path 42662" d="M-4383.068-3003.1l-.128.043c-.265-.118-.548-.006-.819-.067A1.063,1.063,0,0,1-4383.068-3003.1Z" transform="translate(4390.375 3011.32)" fill="#2d83a2"/>
      <path id="Path_42663" data-name="Path 42663" d="M-4273.032-3003.123l-1.05,0A1.368,1.368,0,0,1-4273.032-3003.123Z" transform="translate(4289.216 3011.321)" fill="#2a87a6"/>
      <path id="Path_42664" data-name="Path 42664" d="M-4130.192-3001.864l1.015,0a.32.32,0,0,0,.026.058h-1.071A.526.526,0,0,0-4130.192-3001.864Z" transform="translate(4156.836 3010.067)" fill="#d4eef7"/>
      <path id="Path_42665" data-name="Path 42665" d="M-4255-3005.954c.276-.21.395-.209.481.007A1.1,1.1,0,0,1-4255-3005.954Z" transform="translate(4271.652 3013.974)" fill="#cbe4ed"/>
      <path id="Path_42666" data-name="Path 42666" d="M-4161.287-3003.1l-.718,0A.722.722,0,0,1-4161.287-3003.1Z" transform="translate(4186.083 3011.293)" fill="#3b8aab"/>
      <path id="Path_42667" data-name="Path 42667" d="M-4358.681-3002.975l-.116-.028a.392.392,0,0,1,.541-.048C-4358.384-3002.952-4358.548-3003.052-4358.681-3002.975Z" transform="translate(4367.169 3011.237)" fill="#3485a6"/>
      <path id="Path_42668" data-name="Path 42668" d="M-4317.349-3003.057l-.639,0A.6.6,0,0,1-4317.349-3003.057Z" transform="translate(4329.617 3011.251)" fill="#2d83aa"/>
      <path id="Path_42669" data-name="Path 42669" d="M-4357.343-3002c.129-.095.29-.021.426-.077l.177.079Z" transform="translate(4365.832 3010.261)" fill="#d4eef7"/>
      <path id="Path_42670" data-name="Path 42670" d="M-4246.993-3006.194c.107-.026.215-.392.32,0Z" transform="translate(4264.289 3014.217)" fill="#cbe4ed"/>
      <path id="Path_42671" data-name="Path 42671" d="M-4203.494-3003.078l-.562.008A.461.461,0,0,1-4203.494-3003.078Z" transform="translate(4224.777 3011.268)" fill="#2d85a4"/>
      <path id="Path_42672" data-name="Path 42672" d="M-4246.791-3002.992l-.559,0c-.024-.016-.033-.033-.025-.049s.015-.025.023-.025C-4247.164-3003.041-4246.963-3003.135-4246.791-3002.992Z" transform="translate(4264.642 3011.179)" fill="#2e83ac"/>
      <path id="Path_42673" data-name="Path 42673" d="M-4167.673-3002.963c-.112.084-.218,0-.326-.01A.193.193,0,0,1-4167.673-3002.963Z" transform="translate(4191.599 3011.165)" fill="#3b8aab"/>
      <path id="Path_42674" data-name="Path 42674" d="M-4307.692-3002.955a.505.505,0,0,1-.324,0A.192.192,0,0,1-4307.692-3002.955Z" transform="translate(4320.441 3011.153)" fill="#3180a2"/>
      <path id="Path_42675" data-name="Path 42675" d="M-4252.518-3003.006a.369.369,0,0,1,0,.073l-.475,0C-4252.852-3003.066-4252.676-3002.986-4252.518-3003.006Z" transform="translate(4269.808 3011.123)" fill="#26779a"/>
      <path id="Path_42676" data-name="Path 42676" d="M-4368.83-3001.844l-.436,0A.4.4,0,0,1-4368.83-3001.844Z" transform="translate(4376.802 3010.11)" fill="#d4eef7"/>
      <path id="Path_42677" data-name="Path 42677" d="M-4181.576-3003.021h-.4A.268.268,0,0,1-4181.576-3003.021Z" transform="translate(4204.457 3011.212)" fill="#3080a3"/>
      <path id="Path_42678" data-name="Path 42678" d="M-4279.673-3002.961c-.107.057-.214.005-.321,0A.192.192,0,0,1-4279.673-3002.961Z" transform="translate(4294.655 3011.157)" fill="#2e7fa0"/>
      <path id="Path_42679" data-name="Path 42679" d="M-4348.811-3001.769l-.422,0A.4.4,0,0,1-4348.811-3001.769Z" transform="translate(4358.368 3010.037)" fill="#d4eef7"/>
      <path id="Path_42680" data-name="Path 42680" d="M-4195.583-3003.021h-.4A.274.274,0,0,1-4195.583-3003.021Z" transform="translate(4217.345 3011.209)" fill="#3183ae"/>
      <path id="Path_42681" data-name="Path 42681" d="M-4416.4-2994.21c0-.026,0-.053,0-.08a.794.794,0,0,0,0-.555.113.113,0,0,1,0-.164l.168.161a.323.323,0,0,1,.128.311c0,.117-.085.214-.075.333A.235.235,0,0,1-4416.4-2994.21Z" transform="translate(4420.208 3003.759)" fill="#d5ecf4"/>
      <path id="Path_42682" data-name="Path 42682" d="M-4411.286-3004.336v.226c-.15.3-.15.3-.359.282a.5.5,0,0,1,.034-.3l.169-.213A.1.1,0,0,1-4411.286-3004.336Z" transform="translate(4415.812 3012.383)" fill="#358fc7"/>
      <path id="Path_42683" data-name="Path 42683" d="M-4409.181-3006.717l-.156-.008c-.041-.086-.07-.167.077-.167l.159-.077a.268.268,0,0,0,.16.156q.04-.059.079,0c.087,0,.18-.014.24.077Z" transform="translate(4413.706 3014.764)" fill="#d1e8f0"/>
      <path id="Path_42684" data-name="Path 42684" d="M-4413.8-2996.355l-.091-.32q.036-.157.073-.315c.154-.03.135.1.167.183,0,.148.077.3-.043.442A.1.1,0,0,1-4413.8-2996.355Z" transform="translate(4417.863 3005.586)" fill="#26839f"/>
      <path id="Path_42685" data-name="Path 42685" d="M-4418.557-2996.881c0,.054,0,.109,0,.164-.077.01-.189.134-.218-.029a.355.355,0,0,1,.087-.289C-4418.635-2997.078-4418.6-2996.939-4418.557-2996.881Z" transform="translate(4422.364 3005.631)" fill="#f2f1de"/>
      <path id="Path_42686" data-name="Path 42686" d="M-4415.54-3005.572c-.078,0-.134-.032-.111-.111s.049-.185.167-.188c.071,0,.068.05.075.1C-4415.4-3005.659-4415.426-3005.591-4415.54-3005.572Z" transform="translate(4419.491 3013.755)" fill="#f5ecd7"/>
      <path id="Path_42687" data-name="Path 42687" d="M-4412.887-3000.657c-.019-.088.007-.192-.09-.253a.428.428,0,0,1,.151-.344c.006.112.012.224.018.336C-4412.74-3000.8-4412.736-3000.707-4412.887-3000.657Z" transform="translate(4417.024 3009.505)" fill="#208bb1"/>
      <path id="Path_42688" data-name="Path 42688" d="M-4420.444-2989.379h-.236c-.014-.069-.117-.168-.015-.2C-4420.564-2989.616-4420.5-2989.478-4420.444-2989.379Z" transform="translate(4424.168 2998.766)" fill="#e3efe6"/>
      <path id="Path_42689" data-name="Path 42689" d="M-4422.963-2999.675a.532.532,0,0,1,0,.393A.479.479,0,0,1-4422.963-2999.675Z" transform="translate(4426.251 3008.052)" fill="#e3e2e2"/>
      <path id="Path_42690" data-name="Path 42690" d="M-4370.17-3046.123l-3.847,0c-.075.016-.106-.007-.079-.086q1.8,0,3.6-.008C-4370.382-3046.214-4370.255-3046.239-4370.17-3046.123Z" transform="translate(4381.257 3050.879)" fill="#238fbc"/>
      <path id="Path_42691" data-name="Path 42691" d="M-4380.974-3046.079l.078.086c-.084.323-.415.042-.556.227l-.081,0c-.091-.156-.059-.247.133-.268.114-.012.239.043.344-.047Z" transform="translate(4388.134 3050.753)" fill="#0a9ad9"/>
      <path id="Path_42692" data-name="Path 42692" d="M-4382.331-3046.172c-.1.2-.5-.075-.476.315-.119-.031-.185-.108-.15-.229s.148-.088.233-.092C-4382.593-3046.185-4382.462-3046.175-4382.331-3046.172Z" transform="translate(4389.408 3050.846)" fill="#238fbc"/>
      <path id="Path_42693" data-name="Path 42693" d="M-4234.714-3007.154h-1.274c.223-.16.477-.045.714-.08.162-.024.341.061.484-.077.025-.041.051-.038.076,0C-4234.714-3007.259-4234.714-3007.206-4234.714-3007.154Z" transform="translate(4254.163 3015.106)" fill="#d5ece4"/>
      <path id="Path_42694" data-name="Path 42694" d="M-4233.805-3008.848h-.076c-.2-.162-.426-.048-.637-.082-.161-.025-.34.063-.482-.08h0c.3,0,.6,0,.9,0C-4233.977-3009.008-4233.826-3009.043-4233.805-3008.848Z" transform="translate(4253.253 3016.643)" fill="#ebe4ec"/>
      <path id="Path_42695" data-name="Path 42695" d="M-4235.868-3013.537c-.137-.116-.057-.258,0-.394v.394Z" transform="translate(4254.121 3021.171)" fill="#ebe4ec"/>
      <path id="Path_42696" data-name="Path 42696" d="M-4377.533-3054.517l.1.011a.552.552,0,0,1-.444.126q-1.97.01-3.939,0a.705.705,0,0,1-.186-.053.312.312,0,0,1,.26-.127q1.909,0,3.819,0A.757.757,0,0,1-4377.533-3054.517Z" transform="translate(4388.522 3058.558)" fill="#1f92cf"/>
      <path id="Path_42697" data-name="Path 42697" d="M-4383.571-3055.926l-.159.087c-.133-.078-.25-.157-.013-.255l.091.086C-4383.65-3055.955-4383.588-3055.962-4383.571-3055.926Z" transform="translate(4390.25 3059.968)" fill="#2d88b1"/>
      <path id="Path_42698" data-name="Path 42698" d="M-4403.914-3018.622h-.08v-1.179l.08,0Z" transform="translate(4408.759 3026.573)" fill="#e3e3e2"/>
      <path id="Path_42699" data-name="Path 42699" d="M-4381.18-3055.014c-.035-.02-.147.037-.081-.083,1.326,0,2.652,0,3.978,0,.139,0,.294-.053.412.076Z" transform="translate(4387.859 3059.057)" fill="#179bdb"/>
      <path id="Path_42700" data-name="Path 42700" d="M-4187.547-3010.906c.186.048.372-.2.559,0a3.2,3.2,0,0,0-.719.239c-.168-.2-.465-.111-.667-.273C-4188.071-3011.111-4187.828-3010.7-4187.547-3010.906Z" transform="translate(4210.348 3018.459)" fill="#fff"/>
      <path id="Path_42701" data-name="Path 42701" d="M-4383.716-3066.557a.182.182,0,0,1,.007-.292l4.451-.006c-.077.258-.3.173-.463.174-1.057.011-2.113,0-3.17.006a3.052,3.052,0,0,0-.553.023c-.065.028-.128.062-.195.087A.574.574,0,0,1-4383.716-3066.557Z" transform="translate(4390.164 3069.871)" fill="#2a94c5"/>
      <path id="Path_42702" data-name="Path 42702" d="M-4381.946-3064.857l.078-.064a.491.491,0,0,1,.342-.077q1.813,0,3.627,0c.117,0,.242-.019.337.08,0,.023,0,.046,0,.068C-4379.023-3064.828-4380.484-3064.813-4381.946-3064.857Z" transform="translate(4388.471 3068.164)" fill="#218ec0"/>
      <path id="Path_42703" data-name="Path 42703" d="M-4376.665-3066.626l-4.307,0c.05-.245.248-.153.387-.154,1.167-.007,2.332,0,3.5-.006.141,0,.293.051.417-.066l.085.008C-4376.585-3066.765-4376.575-3066.677-4376.665-3066.626Z" transform="translate(4387.574 3069.871)" fill="#1299d9"/>
      <path id="Path_42704" data-name="Path 42704" d="M-4171.193-3010.07c.133.026.278-.046.38.153A.742.742,0,0,1-4171.193-3010.07Z" transform="translate(4194.538 3017.618)" fill="#fff"/>
      <path id="Path_42705" data-name="Path 42705" d="M-4413.814-2989.306h.035a.156.156,0,0,1,.173-.005c.173.111.422-.014.568.178a.472.472,0,0,1-.008.074c-.11.01-.228-.021-.321.063l-.486.012C-4413.9-2989.1-4413.962-2989.214-4413.814-2989.306Z" transform="translate(4417.882 2998.536)" fill="#3689ac"/>
      <path id="Path_42706" data-name="Path 42706" d="M-4210.613-3010.418l.447-.083c0,.053.014.143-.007.152C-4210.292-3010.3-4210.385-3010.4-4210.613-3010.418Z" transform="translate(4230.812 3018.015)" fill="#fff"/>
      <path id="Path_42707" data-name="Path 42707" d="M-4105.3-3073.528a.363.363,0,0,1-.022.063.446.446,0,0,1-.464-.06c-.073-.205-.124-.407.08-.574h0C-4105.233-3074.126-4105.109-3073.952-4105.3-3073.528Z" transform="translate(4134.415 3076.539)" fill="#edf1f2"/>
      <path id="Path_42708" data-name="Path 42708" d="M-4106.569-3074.07a1.179,1.179,0,0,0-.08.575.368.368,0,0,1-.081-.491Z" transform="translate(4135.274 3076.51)" fill="#bae3f0"/>
      <path id="Path_42709" data-name="Path 42709" d="M-4103.637-3074.427c.122-.373-.031-.55-.406-.571.251-.175.413-.04.555.161C-4103.493-3074.684-4103.458-3074.515-4103.637-3074.427Z" transform="translate(4132.747 3077.437)" fill="#bae3f0"/>
      <path id="Path_42710" data-name="Path 42710" d="M-4119.3-2987.4l-.319,0-.4-.039a.11.11,0,0,1,.057-.1,1,1,0,0,1,.658-.022l.082.006c.05,0,.059.05.084.078Z" transform="translate(4147.448 2996.946)" fill="#2086b5"/>
      <path id="Path_42711" data-name="Path 42711" d="M-4109.979-2996.054l-.083-.079c.055-.262-.085-.545.083-.795A1.86,1.86,0,0,1-4109.979-2996.054Z" transform="translate(4138.29 3005.525)" fill="#28879d"/>
      <path id="Path_42712" data-name="Path 42712" d="M-4387.008-2990.09a1.148,1.148,0,0,0-.715.123,19.54,19.54,0,0,0-2.183-.03c-.926-.039-1.856-.008-2.785-.01a8.692,8.692,0,0,0-1.064.028,4.519,4.519,0,0,0-.821-.022c-.488.008-.975-.012-1.462,0a2.046,2.046,0,0,1-.782-.072h-1.517l-2.954,0c-.334.188-.7.063-1.049.1-.969,0-1.94,0-2.91,0a1.619,1.619,0,0,1-.745-.094l-1.36-.013h-1.916l-1.038.01c-.206-.066-.441.054-.634-.1.151-.156.347-.109.528-.11q2.911-.007,5.823-.008a.975.975,0,0,0,.431-.049.208.208,0,0,1,.148-.012c.021.188.16.18.3.179,3.226-.009,6.451-.023,9.676-.025,1.991,0,3.981.016,5.971.024.356,0,.712,0,1.068,0A.163.163,0,0,1-4387.008-2990.09Z" transform="translate(4415.152 2999.475)" fill="#c5e2f2"/>
      <path id="Path_42713" data-name="Path 42713" d="M-4183.082-2987.048l4.667-.014a.4.4,0,0,1,.357.124v0l-1.2.036a.317.317,0,0,1-.251.082c-.135-.005-.274.025-.389-.08a7.508,7.508,0,0,0-1.771.068c-.437-.188-.9,0-1.349-.1C-4183.076-2986.948-4183.109-2986.981-4183.082-2987.048Z" transform="translate(4205.487 2996.447)" fill="#2681b2"/>
      <path id="Path_42714" data-name="Path 42714" d="M-4224.222-2987.082a10.606,10.606,0,0,1,1.437.029.069.069,0,0,1,0,.09l-1.2.029c-.1.07-.157-.048-.241-.054a.064.064,0,0,1-.019-.062C-4224.234-2987.072-4224.229-2987.082-4224.222-2987.082Z" transform="translate(4243.354 2996.48)" fill="#2181b1"/>
      <path id="Path_42715" data-name="Path 42715" d="M-4194.989-2987.111c.023.039.045.078.069.116l-1.109,0v-.03A2.138,2.138,0,0,1-4194.989-2987.111Z" transform="translate(4217.394 2996.509)" fill="#2580b2"/>
      <path id="Path_42716" data-name="Path 42716" d="M-4205.2-2987.1v.03l-.8,0v-.089C-4205.724-2987.193-4205.45-2987.292-4205.2-2987.1Z" transform="translate(4226.561 2996.587)" fill="#237db0"/>
      <path id="Path_42717" data-name="Path 42717" d="M-4233.2-2986.887v.075c-.012.046-.059.048-.088.072h-.621l-.089-.069v-.077Z" transform="translate(4252.331 2996.285)" fill="#247fb1"/>
      <path id="Path_42718" data-name="Path 42718" d="M-4234.6-2982.84c-.093-.151-.305-.007-.4-.159h.957C-4234.2-2982.84-4234.439-2982.982-4234.6-2982.84Z" transform="translate(4253.251 2992.707)" fill="#ebf0e1"/>
      <path id="Path_42719" data-name="Path 42719" d="M-4196.44-2982.995a.46.46,0,0,1-.558,0Z" transform="translate(4218.284 2992.704)" fill="#eaf2e2"/>
      <path id="Path_42720" data-name="Path 42720" d="M-4210.516-2983a.36.36,0,0,1-.479,0Z" transform="translate(4231.163 2992.707)" fill="#e9f1e1"/>
      <path id="Path_42721" data-name="Path 42721" d="M-4225.1-2985.878l.087-.072.243.072C-4224.885-2985.732-4225-2985.895-4225.1-2985.878Z" transform="translate(4244.146 2995.423)" fill="#c5e2f2"/>
      <path id="Path_42722" data-name="Path 42722" d="M-4358.3-2985.914c.254-.18.548-.026.814-.1a1.308,1.308,0,0,1,.52-.05h3.061a4.353,4.353,0,0,1,1.056.054l1.033.079a2.07,2.07,0,0,1-1.352.027Z" transform="translate(4366.713 2995.533)" fill="#fbfbf9"/>
      <path id="Path_42723" data-name="Path 42723" d="M-4337.13-2982.912a1.145,1.145,0,0,1,.754.042A.868.868,0,0,1-4337.13-2982.912Z" transform="translate(4347.231 2992.666)" fill="#eef5e5"/>
      <path id="Path_42724" data-name="Path 42724" d="M-4302.344-2986.733l-1.036,0a.07.07,0,0,1,0-.119h1.038Z" transform="translate(4316.206 2996.256)" fill="#237fb1"/>
      <path id="Path_42725" data-name="Path 42725" d="M-4142.6-2985.041h.236l.082.163H-4143v-.081C-4142.877-2985.052-4142.715-2984.937-4142.6-2985.041Z" transform="translate(4168.594 2994.586)" fill="#fff"/>
      <path id="Path_42726" data-name="Path 42726" d="M-4142.623-2985.04c-.112.135-.266.062-.4.081,0-.026,0-.053,0-.08Z" transform="translate(4168.619 2994.585)" fill="#c5e2f2"/>
      <path id="Path_42727" data-name="Path 42727" d="M-4348.38-2986.794l-.5.012-.068-.111.712-.012C-4348.216-2986.777-4348.311-2986.8-4348.38-2986.794Z" transform="translate(4358.109 2996.301)" fill="#1f7eb1"/>
      <path id="Path_42728" data-name="Path 42728" d="M-4370.349-2998.03h.029a1.68,1.68,0,0,0,.58.043,2.153,2.153,0,0,1,.393.015.1.1,0,0,1,.015.116,1.484,1.484,0,0,1-.894.107,19.133,19.133,0,0,0-2.1-.01,11.54,11.54,0,0,1,1.688,0,2.978,2.978,0,0,1,1.318.129.1.1,0,0,1-.042.117c-.257.1-.515-.011-.772,0-.2-.008-.393.024-.59,0-1.094.009-2.188,0-3.283,0a.518.518,0,0,1-.305,0c-1.571.02-3.143.008-4.713,0-.223.013-.446,0-.669,0-.314,0-.626,0-.94,0a1.514,1.514,0,0,1-.286,0c-.239.009-.478.006-.717,0-.435.014-.868.011-1.3,0a1.634,1.634,0,0,1-.287,0c-.284,0-.568.006-.851,0a1.524,1.524,0,0,1-.287,0,4.982,4.982,0,0,1-1.159.072q-.294,0-.588,0-.749,0-1.5,0a18.431,18.431,0,0,1-1.957-.045c-.149-.109-.28-.223-.069-.4a.759.759,0,0,0,.64.13c.837-.055,1.676.065,2.513-.014-.9.05-1.794-.049-2.69,0a.508.508,0,0,1-.443-.127.075.075,0,0,1,.068-.1,14.523,14.523,0,0,1,1.737.04l.1-.084c.173.087.36.022.54.043a8.477,8.477,0,0,0,1.343-.044l.12,0a6.483,6.483,0,0,0,1.147.041h11.5c.777,0,1.553,0,2.329,0A.662.662,0,0,0-4370.349-2998.03Z" transform="translate(4395.652 3006.539)" fill="#d5ecf4"/>
      <path id="Path_42729" data-name="Path 42729" d="M-4405.319-3000.754c-.052.267-.266.17-.418.17q-3.223.009-6.447,0l-.108-.077c.108-.119.032-.255.035-.384l.079-.26.308-.316c.081,0,.158-.113.244-.01.021.176-.194.144-.234.266.066.079.029.166.021.251-.011.1,0,.2.111.246a8.726,8.726,0,0,0,.882.017c.182-.006.362.013.543.009.674-.035,1.347.009,2.022-.02.479,0,.96.007,1.44,0h.534A2.514,2.514,0,0,1-4405.319-3000.754Z" transform="translate(4416.395 3009.888)" fill="#d5ecf4"/>
      <path id="Path_42730" data-name="Path 42730" d="M-4134.127-2997.112c.008-.023.016-.045.023-.069a.411.411,0,0,1,0-.25.441.441,0,0,0-.016-.057.115.115,0,0,1,.113-.054,10.573,10.573,0,0,1,1.259.031.3.3,0,0,0,.065-.01l.077.112c.113.369-.213.307-.387.395a.278.278,0,0,1-.341,0c-.131-.076-.262.017-.393,0h-.308C-4134.062-2997.047-4134.115-2997.059-4134.127-2997.112Z" transform="translate(4160.431 3006.095)" fill="#129cd6"/>
      <path id="Path_42731" data-name="Path 42731" d="M-4306.428-2997.891l-3.91-.007c-.026-.013-.035-.027-.027-.04s.019-.02.026-.02l3.91-.006c.027.016.036.032.027.049S-4306.419-2997.891-4306.428-2997.891Z" transform="translate(4322.605 3006.479)" fill="#2c7da5"/>
      <path id="Path_42732" data-name="Path 42732" d="M-4178.6-2998.029c-.075.1-.187.09-.289.09-.817,0-1.635-.009-2.451-.015-.026-.015-.035-.029-.026-.044s.018-.022.026-.022Z" transform="translate(4203.902 3006.538)" fill="#2e7ca4"/>
      <path id="Path_42733" data-name="Path 42733" d="M-4389.4-2998.057l-1.778.009c-.089.028-.163.121-.271.069a.13.13,0,0,1,.014-.162l1.7-.01A.415.415,0,0,1-4389.4-2998.057Z" transform="translate(4397.235 3006.651)" fill="#3284ab"/>
      <path id="Path_42734" data-name="Path 42734" d="M-4405.978-2997.374a2.925,2.925,0,0,1-1.038-.038.2.2,0,0,1,.134-.093c.272,0,.243-.256.348-.4l.075-.079.084,0a.464.464,0,0,1,.065.1.575.575,0,0,1-.005.336c.018.02-.062.066,0,.057a.5.5,0,0,1,.306.024A.075.075,0,0,1-4405.978-2997.374Z" transform="translate(4411.54 3006.494)" fill="#34ade2"/>
      <path id="Path_42735" data-name="Path 42735" d="M-4394.16-2997.433v-.048a1.376,1.376,0,0,1-.012-.155c0-.036,0-.071,0-.107a.372.372,0,0,1,.1-.3l.155,0c0,.053,0,.1,0,.158.109.076.041.236.148.314.052.043.131.038.174.1C-4393.776-2997.361-4393.97-2997.426-4394.16-2997.433Z" transform="translate(4399.722 3006.554)" fill="#37abde"/>
      <path id="Path_42736" data-name="Path 42736" d="M-4243.738-2997.939l-1.6-.008c-.027-.016-.036-.032-.026-.048s.018-.023.027-.023l1.594-.006c.025.018.035.037.027.056S-4243.729-2997.939-4243.738-2997.939Z" transform="translate(4262.79 3006.533)" fill="#32829a"/>
      <path id="Path_42737" data-name="Path 42737" d="M-4356.954-2998.03a4,4,0,0,1-1.388.076c-.025-.015-.034-.031-.025-.046s.017-.023.025-.023Z" transform="translate(4366.776 3006.539)" fill="#2d7aa3"/>
      <path id="Path_42738" data-name="Path 42738" d="M-4403-3001.118l.145,0,.526.047C-4402.56-3001-4402.8-3000.8-4403-3001.118Z" transform="translate(4407.842 3009.384)" fill="#d5ecf4"/>
      <path id="Path_42739" data-name="Path 42739" d="M-4132.052-2998.175l-1.292,0c-.026-.015-.036-.031-.028-.048s.015-.026.023-.026A3.725,3.725,0,0,1-4132.052-2998.175Z" transform="translate(4159.737 3006.759)" fill="#278abb"/>
      <path id="Path_42740" data-name="Path 42740" d="M-4407.811-2997.772c.024-.075.048-.151.072-.227l.231-.018a.235.235,0,0,1,.066.167.515.515,0,0,1-.139.333C-4407.834-2997.444-4407.755-2997.668-4407.811-2997.772Z" transform="translate(4412.272 3006.526)" fill="#43a6ce"/>
      <path id="Path_42741" data-name="Path 42741" d="M-4259.726-2997.964a.681.681,0,0,0,0,.071l-1.279,0v-.074Z" transform="translate(4277.182 3006.479)" fill="#2d80a7"/>
      <path id="Path_42742" data-name="Path 42742" d="M-4324.14-2997.97c0,.02,0,.04,0,.06l-1.2.01c-.026-.018-.035-.035-.025-.052s.018-.025.027-.025Z" transform="translate(4336.407 3006.49)" fill="#347e9c"/>
      <path id="Path_42743" data-name="Path 42743" d="M-4337.992-2998c0,.026,0,.052,0,.077-.375-.031-.762.1-1.127-.079Z" transform="translate(4349.063 3006.51)" fill="#2b7da3"/>
      <path id="Path_42744" data-name="Path 42744" d="M-4398.5-2998.047l-.007.4a1.78,1.78,0,0,1-.471-.314.558.558,0,0,1,0-.075Z" transform="translate(4404.144 3006.554)" fill="#1e86b7"/>
      <path id="Path_42745" data-name="Path 42745" d="M-4189.62-2997.98v.066l-.717.007c-.026-.017-.036-.035-.026-.052s.018-.026.026-.026Z" transform="translate(4212.182 3006.497)" fill="#32829b"/>
      <path id="Path_42746" data-name="Path 42746" d="M-4197.7-2997.985v.078l-.637-.008c-.027-.014-.037-.029-.028-.043s.017-.022.026-.022Z" transform="translate(4219.541 3006.497)" fill="#36869e"/>
      <path id="Path_42747" data-name="Path 42747" d="M-4211.711-2997.894l-.644,0c-.023-.016-.031-.033-.024-.049s.016-.025.023-.025h.645c.025.016.033.032.025.048S-4211.7-2997.894-4211.711-2997.894Z" transform="translate(4232.439 3006.479)" fill="#3b85b1"/>
      <path id="Path_42748" data-name="Path 42748" d="M-4145.716-2997.948a.78.78,0,0,1-.583-.075l.582,0c.027.016.036.032.027.047S-4145.708-2997.948-4145.716-2997.948Z" transform="translate(4171.631 3006.532)" fill="#307e95"/>
      <path id="Path_42749" data-name="Path 42749" d="M-4218.776-2997.966a.623.623,0,0,1,0,.074l-.552,0c-.027-.016-.037-.031-.027-.046s.019-.022.028-.022Z" transform="translate(4238.859 3006.479)" fill="#2f7b97"/>
      <path id="Path_42750" data-name="Path 42750" d="M-4399.007-3003.073a.485.485,0,0,1,.561,0A1.637,1.637,0,0,1-4399.007-3003.073Z" transform="translate(4404.17 3011.261)" fill="#2783aa"/>
      <path id="Path_42751" data-name="Path 42751" d="M-4224.529-2998.017a.529.529,0,0,0,0,.068l-.479.01c0-.028,0-.057,0-.085Z" transform="translate(4244.063 3006.533)" fill="#4491ad"/>
      <path id="Path_42752" data-name="Path 42752" d="M-4139.01-2997.918c0-.024,0-.048,0-.072h.477c0,.024,0,.049,0,.074l-.081.02Z" transform="translate(4164.923 3006.502)" fill="#308099"/>
      <path id="Path_42753" data-name="Path 42753" d="M-4363.718-2998.007c0,.023,0,.045,0,.069-.171.008-.348.062-.5-.074Z" transform="translate(4372.153 3006.523)" fill="#2a779c"/>
      <path id="Path_42754" data-name="Path 42754" d="M-4203.987-2997.89c0-.023,0-.047,0-.071l.479,0c0,.021,0,.043,0,.065Z" transform="translate(4224.716 3006.475)" fill="#2b76a0"/>
      <path id="Path_42755" data-name="Path 42755" d="M-4404.008-2997.863c0-.051-.005-.1-.008-.153l.318,0a.347.347,0,0,1,0,.074C-4403.794-2997.878-4403.884-2997.8-4404.008-2997.863Z" transform="translate(4408.779 3006.526)" fill="#2a80ab"/>
      <path id="Path_42756" data-name="Path 42756" d="M-4256.271-2991.933l4.791.006a.041.041,0,0,1,.017.047c-.006.015-.013.023-.019.023-.926.065-1.852.033-2.779.021-.669-.009-1.338-.009-2.007-.013-.022-.018-.031-.036-.024-.055S-4256.278-2991.933-4256.271-2991.933Z" transform="translate(4272.848 3000.928)" fill="#3782a5"/>
      <path id="Path_42757" data-name="Path 42757" d="M-4193.237-2991.933h3.354c.02.02.027.04.019.059s-.016.028-.024.028l-3.345,0a.051.051,0,0,1-.021-.055C-4193.249-2991.923-4193.243-2991.933-4193.237-2991.933Z" transform="translate(4214.841 3000.928)" fill="#3881a5"/>
      <path id="Path_42758" data-name="Path 42758" d="M-4305.279-2991.894l1.36,0c.021.017.027.034.02.05s-.015.024-.023.024a6.63,6.63,0,0,1-1.353,0c-.022-.016-.03-.032-.023-.049S-4305.286-2991.894-4305.279-2991.894Z" transform="translate(4317.942 3000.894)" fill="#3780a3"/>
      <path id="Path_42759" data-name="Path 42759" d="M-4336.371-2991.784l-.964-.057c-.025-.018-.034-.036-.026-.054s.017-.027.026-.027l1.2,0c.021.018.027.035.019.052s-.016.024-.023.024l-.165.053h-.033Z" transform="translate(4347.446 3000.918)" fill="#337b9e"/>
      <path id="Path_42760" data-name="Path 42760" d="M-4120.707-2995.406c-.067-.058-.133-.119.028-.113.2.007.35-.048.358-.281a.249.249,0,0,1,.048.351A.354.354,0,0,1-4120.707-2995.406Z" transform="translate(4148.148 3004.488)" fill="#238dc0"/>
      <path id="Path_42761" data-name="Path 42761" d="M-4143.552-2992.079l.095.1a1.861,1.861,0,0,1-.884-.01c-.026-.018-.033-.035-.025-.052s.017-.026.026-.026Z" transform="translate(4169.856 3001.063)" fill="#2f7fa0"/>
      <path id="Path_42762" data-name="Path 42762" d="M-4319.276-2991.864l.88,0c.021.016.027.031.021.046s-.014.023-.021.023a3.184,3.184,0,0,1-.876,0c-.022-.015-.03-.031-.024-.047S-4319.283-2991.864-4319.276-2991.864Z" transform="translate(4330.823 3000.865)" fill="#357c9d"/>
      <path id="Path_42763" data-name="Path 42763" d="M-4288.019-2991.821c0-.025,0-.05,0-.075l.719,0c.021.016.027.031.02.047s-.015.022-.021.022A1.854,1.854,0,0,1-4288.019-2991.821Z" transform="translate(4302.04 3000.894)" fill="#337ea0"/>
      <path id="Path_42764" data-name="Path 42764" d="M-4276.271-2991.916l.958,0c.026.018.036.036.027.054s-.017.027-.026.027l-.957,0c-.021-.016-.03-.032-.023-.049S-4276.278-2991.916-4276.271-2991.916Z" transform="translate(4291.251 3000.916)" fill="#347b9f"/>
      <path id="Path_42765" data-name="Path 42765" d="M-4129.076-2991.987c.118-.14.265-.1.41-.063,0,0,.008.023,0,.033s-.014.021-.021.031A.422.422,0,0,1-4129.076-2991.987Z" transform="translate(4155.782 3001.069)" fill="#238dc0"/>
      <path id="Path_42766" data-name="Path 42766" d="M-4264-2991.851c0-.027,0-.054,0-.081h.638c0,.028,0,.055,0,.083A2.545,2.545,0,0,1-4264-2991.851Z" transform="translate(4279.942 3000.928)" fill="#367ea1"/>
      <path id="Path_42767" data-name="Path 42767" d="M-4150.486-2991.95c0,.026,0,.052,0,.078-.188-.019-.374.089-.562.01,0-.029,0-.058,0-.087Z" transform="translate(4176.002 3000.944)" fill="#357da0"/>
      <path id="Path_42768" data-name="Path 42768" d="M-4195.764-2991.93c0,.028,0,.056,0,.083a.168.168,0,0,1-.243-.008c0-.024,0-.047,0-.07Z" transform="translate(4217.367 3000.926)" fill="#327a9e"/>
      <path id="Path_42769" data-name="Path 42769" d="M-4278.771-2991.87c0,.025,0,.05,0,.075a.184.184,0,0,1-.243,0c0-.023,0-.046,0-.069Z" transform="translate(4293.75 3000.87)" fill="#2f789a"/>
      <path id="Path_42770" data-name="Path 42770" d="M-4308-2991.8c0-.023,0-.046,0-.069l.236,0c0,.025,0,.05,0,.074A.179.179,0,0,1-4308-2991.8Z" transform="translate(4320.425 3000.874)" fill="#307599"/>
      <path id="Path_42771" data-name="Path 42771" d="M-4321.8-2991.866c0,.024,0,.048,0,.072a.189.189,0,0,1-.244,0c0-.025,0-.05,0-.076Z" transform="translate(4333.346 3000.867)" fill="#2f7796"/>
      <path id="Path_42772" data-name="Path 42772" d="M-4341.8-2986.8l.142-.11,2.955,0v.119C-4339.732-2986.765-4340.765-2986.73-4341.8-2986.8Z" transform="translate(4351.526 2996.302)" fill="#2781b2"/>
      <path id="Path_42773" data-name="Path 42773" d="M-4176.018-2996.115c.1.084.1.167,0,.25-.768-.019-1.537-.064-2.3-.047-.382.008-.765.044-1.148.04-.09,0-.211.009-.207-.121s.126-.114.215-.114c.781,0,1.563-.02,2.343.011C-4176.75-2996.082-4176.385-2996.133-4176.018-2996.115Z" transform="translate(4202.345 3004.78)" fill="#e6f3f7"/>
      <path id="Path_42774" data-name="Path 42774" d="M-4388.078-2996.1c1.058,0,2.117,0,3.175.008.114,0,.313-.073.308.128,0,.162-.187.1-.3.1-.936.005-1.872,0-2.808,0-.181,0-.354,0-.378-.244Z" transform="translate(4394.113 3004.769)" fill="#e6f3f7"/>
      <path id="Path_42775" data-name="Path 42775" d="M-4274.048-2996.117c.424,0,.848,0,1.27,0,.1,0,.279-.058.271.129-.007.146-.162.1-.259.1-.483,0-.966-.014-1.45-.044a10.047,10.047,0,0,1-1.139.024c-.094-.016-.292.089-.285-.1s.207-.112.322-.115C-4274.9-2996.123-4274.471-2996.117-4274.048-2996.117Z" transform="translate(4290.649 3004.789)" fill="#e6f3f7"/>
      <path id="Path_42776" data-name="Path 42776" d="M-4338.373-2995.981c.371,0,.742,0,1.113,0,.08,0,.173,0,.181.107.009.13-.112.082-.175.1-.377.123-.749-.08-1.134-.02a8.7,8.7,0,0,1-1.13.043c-.088,0-.218.031-.234-.087-.023-.173.157-.126.229-.13.382-.018.767-.008,1.15-.008Z" transform="translate(4349.646 3004.654)" fill="#e6f3f7"/>
      <path id="Path_42777" data-name="Path 42777" d="M-4219.05-2995.756l-.47-.049c-.078-.009-.211.068-.2-.095.009-.13.132-.1.22-.1.25,0,.5-.005.751,0,.1,0,.246-.038.254.11s-.142.118-.239.124-.21,0-.316,0Z" transform="translate(4239.191 3004.678)" fill="#e6f3f7"/>
      <path id="Path_42778" data-name="Path 42778" d="M-4197.193-2995.611c-.147.083-.315-.139-.508-.047-.013.006-.072-.036-.076-.061-.008-.052.014-.117.075-.119.3-.006.6-.007.906,0a.1.1,0,0,1,.095.106.1.1,0,0,1-.1.106C-4196.915-2995.62-4197.032-2995.618-4197.193-2995.611Z" transform="translate(4219.001 3004.526)" fill="#e6f3f7"/>
      <path id="Path_42779" data-name="Path 42779" d="M-4301.1-2996.073c.138.044.4-.073.4.112,0,.247-.267.117-.412.123s-.388.1-.383-.115S-4301.242-2996.022-4301.1-2996.073Z" transform="translate(4314.446 3004.738)" fill="#e6f3f7"/>
      <path id="Path_42780" data-name="Path 42780" d="M-4389.687-2992.359l-.239-.014c-.006-.156.084-.115.169-.082l1.981.014c.025.017.034.034.024.05s-.017.024-.025.024A14.162,14.162,0,0,1-4389.687-2992.359Z" transform="translate(4395.814 3001.437)" fill="#3480a4"/>
      <path id="Path_42781" data-name="Path 42781" d="M-4231.144-2995.808c-.115-.041-.369.088-.369-.119s.252-.086.391-.116a.469.469,0,0,1,.157,0c.1.011.248-.042.259.1.016.188-.158.118-.26.135A1.155,1.155,0,0,1-4231.144-2995.808Z" transform="translate(4250.043 3004.718)" fill="#e6f3f7"/>
      <path id="Path_42782" data-name="Path 42782" d="M-4363-2991.837c0-.025,0-.05,0-.074l1.515,0c.025.016.034.034.026.05s-.017.026-.026.026Z" transform="translate(4371.038 3000.908)" fill="#2f7a9c"/>
      <path id="Path_42783" data-name="Path 42783" d="M-4286.528-2995.715c-.076-.007-.172.008-.185-.1-.016-.138.095-.131.185-.133s.17.013.169.115S-4286.446-2995.717-4286.528-2995.715Z" transform="translate(4300.84 3004.621)" fill="#e6f3f7"/>
      <path id="Path_42784" data-name="Path 42784" d="M-4202.5-2995.82a.109.109,0,0,1-.107.143c-.083.009-.164-.006-.17-.11a.1.1,0,0,1,.093-.106C-4202.6-2995.9-4202.523-2995.908-4202.5-2995.82Z" transform="translate(4223.599 3004.578)" fill="#e6f3f7"/>
      <path id="Path_42785" data-name="Path 42785" d="M-4390.8-2996.471c-.065.009-.132.015-.169.082-.151-.106-.062-.263-.084-.4l.254-.064a.287.287,0,0,0-.022.063h0C-4390.982-2996.67-4390.877-2996.571-4390.8-2996.471Z" transform="translate(4396.854 3005.453)" fill="#2795cb"/>
      <path id="Path_42786" data-name="Path 42786" d="M-4344-2991.843v-.076l.559,0v.081Z" transform="translate(4353.551 3000.918)" fill="#32799d"/>
      <path id="Path_42787" data-name="Path 42787" d="M-4290.268-2995.44c.035-.018.064-.046.1-.047.069,0,.08.053.065.1-.008.025-.049.04-.074.06Z" transform="translate(4304.109 3004.199)" fill="#e6f3f7"/>
      <path id="Path_42788" data-name="Path 42788" d="M-4342.662-2995.43c-.034.018-.064.046-.1.047-.069,0-.079-.052-.065-.1.008-.025.049-.041.075-.06Z" transform="translate(4352.475 3004.252)" fill="#e6f3f7"/>
      <path id="Path_42789" data-name="Path 42789" d="M-4280.7-2995.338c-.032-.038-.067-.061-.069-.087s.014-.085.036-.094c.059-.022.093.021.091.076C-4280.646-2995.413-4280.676-2995.384-4280.7-2995.338Z" transform="translate(4295.373 3004.233)" fill="#e6f3f7"/>
      <path id="Path_42790" data-name="Path 42790" d="M-4304.668-2995.414c-.025.039-.038.087-.062.094-.063.017-.089-.035-.082-.087a.1.1,0,0,1,.064-.069C-4304.726-2995.479-4304.7-2995.439-4304.668-2995.414Z" transform="translate(4317.494 3004.188)" fill="#e6f3f7"/>
      <path id="Path_42791" data-name="Path 42791" d="M-4182.663-2995.43c-.035.018-.065.045-.1.047-.069,0-.08-.053-.065-.1.008-.025.048-.041.075-.06Z" transform="translate(4205.247 3004.252)" fill="#e6f3f7"/>
      <path id="Path_42792" data-name="Path 42792" d="M-4234.664-2995.381c-.035.018-.065.046-.1.047-.069,0-.081-.053-.065-.1.008-.025.054-.061.073-.055S-4234.711-2995.442-4234.664-2995.381Z" transform="translate(4253.099 3004.203)" fill="#e6f3f7"/>
      <path id="Path_42793" data-name="Path 42793" d="M-4408.064-2994.957c.095.06.039.258.219.24.021.014.029.029.024.045s-.011.025-.018.025l-.162.019C-4408.131-2994.717-4408.077-2994.841-4408.064-2994.957Z" transform="translate(4412.524 3003.711)" fill="#45809d"/>
      <path id="Path_42794" data-name="Path 42794" d="M-4399.028-2997.024c.232-.009.424.044.47.315,0,.028,0,.057,0,.085a.641.641,0,0,1-.482,0Z" transform="translate(4404.197 3005.614)" fill="#1098d3"/>
      <path id="Path_42795" data-name="Path 42795" d="M-4405.063-2996.57c0-.023,0-.047-.007-.07a.6.6,0,0,1,.093-.332l.306-.076C-4404.8-2996.884-4404.633-2996.484-4405.063-2996.57Z" transform="translate(4409.75 3005.635)" fill="#1792c8"/>
      <path id="Path_42796" data-name="Path 42796" d="M-4399.037-2992.031l.482,0-.081.083C-4398.767-2991.99-4398.931-2991.872-4399.037-2992.031Z" transform="translate(4404.197 3001.019)" fill="#158aba"/>
    </g>
  </g>
</svg>
