<svg xmlns="http://www.w3.org/2000/svg" width="13.021" height="11.532" viewBox="0 0 13.021 11.532">
  <path id="Path_43406" data-name="Path 43406" d="M6.557,13.251H8.511V9.369l-2.6-2.235L3.3,9.369v3.881H5.255V10.688h1.3Zm7.813,1.281H2.651A.646.646,0,0,1,2,13.891V9.078a.636.636,0,0,1,.223-.483L4.6,6.552V3.641A.646.646,0,0,1,5.255,3H14.37a.646.646,0,0,1,.651.641V13.891A.646.646,0,0,1,14.37,14.532ZM11.115,8.125V9.407h1.3V8.125Zm0,2.563v1.281h1.3V10.688Zm0-5.125V6.844h1.3V5.563Zm-2.6,0V6.844h1.3V5.563Z" transform="translate(-2 -3)" fill="#f6767c"/>
</svg>
