<svg xmlns="http://www.w3.org/2000/svg" width="146" height="146" viewBox="0 0 146 146">
  <g id="Group_48133" data-name="Group 48133" transform="translate(-132 -119.51)" opacity="0.8">
    <circle id="Ellipse_352" data-name="Ellipse 352" cx="73" cy="73" r="73" transform="translate(132 119.51)" fill="#f85a47"/>
    <g id="Group_17618" data-name="Group 17618" transform="translate(169.637 157.759)">
      <path id="Path_25563" data-name="Path 25563" d="M0,0H70.4V70.4H0Z" fill="none"/>
      <path id="Path_25564" data-name="Path 25564" d="M28.638,46c10.742,0,20.137,4.62,25.247,11.513l-5.4,2.555c-4.159-4.928-11.493-8.2-19.844-8.2s-15.684,3.274-19.844,8.2l-5.4-2.558C8.5,50.616,17.9,46,28.638,46Zm0-44A14.666,14.666,0,0,1,43.3,16.666v8.8a14.666,14.666,0,0,1-29.333,0v-8.8A14.666,14.666,0,0,1,28.638,2Z" transform="translate(6.562 3.867)" fill="#fff"/>
    </g>
  </g>
</svg>
